G04 #@! TF.FileFunction,Legend,Top*
%FSLAX46Y46*%
G04 Gerber Fmt 4.6, Leading zero omitted, Abs format (unit mm)*
G04 Created by KiCad (PCBNEW 4.0.7) date 10/05/18 10:25:31*
%MOMM*%
%LPD*%
G01*
G04 APERTURE LIST*
%ADD10C,0.100000*%
%ADD11C,0.120000*%
%ADD12C,0.152400*%
%ADD13C,0.150000*%
%ADD14C,0.050000*%
G04 APERTURE END LIST*
D10*
D11*
X130923264Y-55658437D02*
G75*
G03X130920000Y-45860643I-1383264J4898437D01*
G01*
X128156736Y-55658437D02*
G75*
G02X128160000Y-45860643I1383264J4898437D01*
G01*
X128156736Y-55658437D02*
G75*
G03X130920000Y-55659357I1383264J4898437D01*
G01*
X134590000Y-50760000D02*
X124490000Y-50760000D01*
X134590000Y-50800000D02*
X124490000Y-50800000D01*
X134590000Y-50840000D02*
X124490000Y-50840000D01*
X134589000Y-50880000D02*
X124491000Y-50880000D01*
X134588000Y-50920000D02*
X124492000Y-50920000D01*
X134587000Y-50960000D02*
X124493000Y-50960000D01*
X134585000Y-51000000D02*
X124495000Y-51000000D01*
X134583000Y-51040000D02*
X124497000Y-51040000D01*
X134580000Y-51080000D02*
X124500000Y-51080000D01*
X134578000Y-51120000D02*
X124502000Y-51120000D01*
X134575000Y-51160000D02*
X124505000Y-51160000D01*
X134571000Y-51200000D02*
X124509000Y-51200000D01*
X134568000Y-51240000D02*
X124512000Y-51240000D01*
X134564000Y-51280000D02*
X124516000Y-51280000D01*
X134560000Y-51320000D02*
X124520000Y-51320000D01*
X134555000Y-51360000D02*
X124525000Y-51360000D01*
X134550000Y-51400000D02*
X124530000Y-51400000D01*
X134545000Y-51440000D02*
X124535000Y-51440000D01*
X134539000Y-51481000D02*
X124541000Y-51481000D01*
X134533000Y-51521000D02*
X124547000Y-51521000D01*
X134527000Y-51561000D02*
X124553000Y-51561000D01*
X134521000Y-51601000D02*
X124559000Y-51601000D01*
X134514000Y-51641000D02*
X124566000Y-51641000D01*
X134507000Y-51681000D02*
X124573000Y-51681000D01*
X134499000Y-51721000D02*
X124581000Y-51721000D01*
X134491000Y-51761000D02*
X124589000Y-51761000D01*
X134483000Y-51801000D02*
X124597000Y-51801000D01*
X134475000Y-51841000D02*
X124605000Y-51841000D01*
X134466000Y-51881000D02*
X124614000Y-51881000D01*
X134457000Y-51921000D02*
X124623000Y-51921000D01*
X134447000Y-51961000D02*
X124633000Y-51961000D01*
X134437000Y-52001000D02*
X124643000Y-52001000D01*
X134427000Y-52041000D02*
X124653000Y-52041000D01*
X134416000Y-52081000D02*
X130721000Y-52081000D01*
X128359000Y-52081000D02*
X124664000Y-52081000D01*
X134405000Y-52121000D02*
X130721000Y-52121000D01*
X128359000Y-52121000D02*
X124675000Y-52121000D01*
X134394000Y-52161000D02*
X130721000Y-52161000D01*
X128359000Y-52161000D02*
X124686000Y-52161000D01*
X134383000Y-52201000D02*
X130721000Y-52201000D01*
X128359000Y-52201000D02*
X124697000Y-52201000D01*
X134371000Y-52241000D02*
X130721000Y-52241000D01*
X128359000Y-52241000D02*
X124709000Y-52241000D01*
X134358000Y-52281000D02*
X130721000Y-52281000D01*
X128359000Y-52281000D02*
X124722000Y-52281000D01*
X134346000Y-52321000D02*
X130721000Y-52321000D01*
X128359000Y-52321000D02*
X124734000Y-52321000D01*
X134332000Y-52361000D02*
X130721000Y-52361000D01*
X128359000Y-52361000D02*
X124748000Y-52361000D01*
X134319000Y-52401000D02*
X130721000Y-52401000D01*
X128359000Y-52401000D02*
X124761000Y-52401000D01*
X134305000Y-52441000D02*
X130721000Y-52441000D01*
X128359000Y-52441000D02*
X124775000Y-52441000D01*
X134291000Y-52481000D02*
X130721000Y-52481000D01*
X128359000Y-52481000D02*
X124789000Y-52481000D01*
X134277000Y-52521000D02*
X130721000Y-52521000D01*
X128359000Y-52521000D02*
X124803000Y-52521000D01*
X134262000Y-52561000D02*
X130721000Y-52561000D01*
X128359000Y-52561000D02*
X124818000Y-52561000D01*
X134246000Y-52601000D02*
X130721000Y-52601000D01*
X128359000Y-52601000D02*
X124834000Y-52601000D01*
X134231000Y-52641000D02*
X130721000Y-52641000D01*
X128359000Y-52641000D02*
X124849000Y-52641000D01*
X134214000Y-52681000D02*
X130721000Y-52681000D01*
X128359000Y-52681000D02*
X124866000Y-52681000D01*
X134198000Y-52721000D02*
X130721000Y-52721000D01*
X128359000Y-52721000D02*
X124882000Y-52721000D01*
X134181000Y-52761000D02*
X130721000Y-52761000D01*
X128359000Y-52761000D02*
X124899000Y-52761000D01*
X134164000Y-52801000D02*
X130721000Y-52801000D01*
X128359000Y-52801000D02*
X124916000Y-52801000D01*
X134146000Y-52841000D02*
X130721000Y-52841000D01*
X128359000Y-52841000D02*
X124934000Y-52841000D01*
X134128000Y-52881000D02*
X130721000Y-52881000D01*
X128359000Y-52881000D02*
X124952000Y-52881000D01*
X134109000Y-52921000D02*
X130721000Y-52921000D01*
X128359000Y-52921000D02*
X124971000Y-52921000D01*
X134090000Y-52961000D02*
X130721000Y-52961000D01*
X128359000Y-52961000D02*
X124990000Y-52961000D01*
X134071000Y-53001000D02*
X130721000Y-53001000D01*
X128359000Y-53001000D02*
X125009000Y-53001000D01*
X134051000Y-53041000D02*
X130721000Y-53041000D01*
X128359000Y-53041000D02*
X125029000Y-53041000D01*
X134031000Y-53081000D02*
X130721000Y-53081000D01*
X128359000Y-53081000D02*
X125049000Y-53081000D01*
X134010000Y-53121000D02*
X130721000Y-53121000D01*
X128359000Y-53121000D02*
X125070000Y-53121000D01*
X133989000Y-53161000D02*
X130721000Y-53161000D01*
X128359000Y-53161000D02*
X125091000Y-53161000D01*
X133968000Y-53201000D02*
X130721000Y-53201000D01*
X128359000Y-53201000D02*
X125112000Y-53201000D01*
X133945000Y-53241000D02*
X130721000Y-53241000D01*
X128359000Y-53241000D02*
X125135000Y-53241000D01*
X133923000Y-53281000D02*
X130721000Y-53281000D01*
X128359000Y-53281000D02*
X125157000Y-53281000D01*
X133900000Y-53321000D02*
X130721000Y-53321000D01*
X128359000Y-53321000D02*
X125180000Y-53321000D01*
X133876000Y-53361000D02*
X130721000Y-53361000D01*
X128359000Y-53361000D02*
X125204000Y-53361000D01*
X133852000Y-53401000D02*
X130721000Y-53401000D01*
X128359000Y-53401000D02*
X125228000Y-53401000D01*
X133828000Y-53441000D02*
X130721000Y-53441000D01*
X128359000Y-53441000D02*
X125252000Y-53441000D01*
X133803000Y-53481000D02*
X130721000Y-53481000D01*
X128359000Y-53481000D02*
X125277000Y-53481000D01*
X133777000Y-53521000D02*
X130721000Y-53521000D01*
X128359000Y-53521000D02*
X125303000Y-53521000D01*
X133751000Y-53561000D02*
X130721000Y-53561000D01*
X128359000Y-53561000D02*
X125329000Y-53561000D01*
X133725000Y-53601000D02*
X130721000Y-53601000D01*
X128359000Y-53601000D02*
X125355000Y-53601000D01*
X133697000Y-53641000D02*
X130721000Y-53641000D01*
X128359000Y-53641000D02*
X125383000Y-53641000D01*
X133670000Y-53681000D02*
X130721000Y-53681000D01*
X128359000Y-53681000D02*
X125410000Y-53681000D01*
X133641000Y-53721000D02*
X130721000Y-53721000D01*
X128359000Y-53721000D02*
X125439000Y-53721000D01*
X133612000Y-53761000D02*
X130721000Y-53761000D01*
X128359000Y-53761000D02*
X125468000Y-53761000D01*
X133583000Y-53801000D02*
X130721000Y-53801000D01*
X128359000Y-53801000D02*
X125497000Y-53801000D01*
X133553000Y-53841000D02*
X130721000Y-53841000D01*
X128359000Y-53841000D02*
X125527000Y-53841000D01*
X133522000Y-53881000D02*
X130721000Y-53881000D01*
X128359000Y-53881000D02*
X125558000Y-53881000D01*
X133491000Y-53921000D02*
X130721000Y-53921000D01*
X128359000Y-53921000D02*
X125589000Y-53921000D01*
X133459000Y-53961000D02*
X130721000Y-53961000D01*
X128359000Y-53961000D02*
X125621000Y-53961000D01*
X133426000Y-54001000D02*
X130721000Y-54001000D01*
X128359000Y-54001000D02*
X125654000Y-54001000D01*
X133393000Y-54041000D02*
X130721000Y-54041000D01*
X128359000Y-54041000D02*
X125687000Y-54041000D01*
X133359000Y-54081000D02*
X130721000Y-54081000D01*
X128359000Y-54081000D02*
X125721000Y-54081000D01*
X133324000Y-54121000D02*
X130721000Y-54121000D01*
X128359000Y-54121000D02*
X125756000Y-54121000D01*
X133288000Y-54161000D02*
X130721000Y-54161000D01*
X128359000Y-54161000D02*
X125792000Y-54161000D01*
X133252000Y-54201000D02*
X130721000Y-54201000D01*
X128359000Y-54201000D02*
X125828000Y-54201000D01*
X133215000Y-54241000D02*
X130721000Y-54241000D01*
X128359000Y-54241000D02*
X125865000Y-54241000D01*
X133177000Y-54281000D02*
X130721000Y-54281000D01*
X128359000Y-54281000D02*
X125903000Y-54281000D01*
X133138000Y-54321000D02*
X130721000Y-54321000D01*
X128359000Y-54321000D02*
X125942000Y-54321000D01*
X133099000Y-54361000D02*
X130721000Y-54361000D01*
X128359000Y-54361000D02*
X125981000Y-54361000D01*
X133058000Y-54401000D02*
X130721000Y-54401000D01*
X128359000Y-54401000D02*
X126022000Y-54401000D01*
X133017000Y-54441000D02*
X126063000Y-54441000D01*
X132975000Y-54481000D02*
X126105000Y-54481000D01*
X132931000Y-54521000D02*
X126149000Y-54521000D01*
X132887000Y-54561000D02*
X126193000Y-54561000D01*
X132842000Y-54601000D02*
X126238000Y-54601000D01*
X132795000Y-54641000D02*
X126285000Y-54641000D01*
X132747000Y-54681000D02*
X126333000Y-54681000D01*
X132698000Y-54721000D02*
X126382000Y-54721000D01*
X132648000Y-54761000D02*
X126432000Y-54761000D01*
X132597000Y-54801000D02*
X126483000Y-54801000D01*
X132544000Y-54841000D02*
X126536000Y-54841000D01*
X132489000Y-54881000D02*
X126591000Y-54881000D01*
X132434000Y-54921000D02*
X126646000Y-54921000D01*
X132376000Y-54961000D02*
X126704000Y-54961000D01*
X132317000Y-55001000D02*
X126763000Y-55001000D01*
X132255000Y-55041000D02*
X126825000Y-55041000D01*
X132192000Y-55081000D02*
X126888000Y-55081000D01*
X132127000Y-55121000D02*
X126953000Y-55121000D01*
X132059000Y-55161000D02*
X127021000Y-55161000D01*
X131989000Y-55201000D02*
X127091000Y-55201000D01*
X131917000Y-55241000D02*
X127163000Y-55241000D01*
X131841000Y-55281000D02*
X127239000Y-55281000D01*
X131762000Y-55321000D02*
X127318000Y-55321000D01*
X131680000Y-55361000D02*
X127400000Y-55361000D01*
X131593000Y-55401000D02*
X127487000Y-55401000D01*
X131502000Y-55441000D02*
X127578000Y-55441000D01*
X131406000Y-55481000D02*
X127674000Y-55481000D01*
X131303000Y-55521000D02*
X127777000Y-55521000D01*
X131194000Y-55561000D02*
X127886000Y-55561000D01*
X131076000Y-55601000D02*
X128004000Y-55601000D01*
X130947000Y-55641000D02*
X128133000Y-55641000D01*
X130805000Y-55681000D02*
X128275000Y-55681000D01*
X130644000Y-55721000D02*
X128436000Y-55721000D01*
X130453000Y-55761000D02*
X128627000Y-55761000D01*
X130212000Y-55801000D02*
X128868000Y-55801000D01*
X129819000Y-55841000D02*
X129261000Y-55841000D01*
X129540000Y-45560000D02*
X129540000Y-47060000D01*
X130290000Y-46310000D02*
X128790000Y-46310000D01*
X122980000Y-60650000D02*
X122980000Y-63770000D01*
X120860000Y-60650000D02*
X120860000Y-63770000D01*
X122980000Y-60650000D02*
X122916000Y-60650000D01*
X120924000Y-60650000D02*
X120860000Y-60650000D01*
X122980000Y-63770000D02*
X122916000Y-63770000D01*
X120924000Y-63770000D02*
X120860000Y-63770000D01*
X140006436Y-56170830D02*
G75*
G03X136314004Y-56170000I-1846436J-979170D01*
G01*
X140006436Y-58129170D02*
G75*
G02X136314004Y-58130000I-1846436J979170D01*
G01*
X140006436Y-58129170D02*
G75*
G03X140005996Y-56170000I-1846436J979170D01*
G01*
X138160000Y-55100000D02*
X138160000Y-59200000D01*
X138200000Y-55100000D02*
X138200000Y-59200000D01*
X138240000Y-55101000D02*
X138240000Y-59199000D01*
X138280000Y-55103000D02*
X138280000Y-59197000D01*
X138320000Y-55106000D02*
X138320000Y-59194000D01*
X138360000Y-55109000D02*
X138360000Y-59191000D01*
X138400000Y-55113000D02*
X138400000Y-56370000D01*
X138400000Y-57930000D02*
X138400000Y-59187000D01*
X138440000Y-55118000D02*
X138440000Y-56370000D01*
X138440000Y-57930000D02*
X138440000Y-59182000D01*
X138480000Y-55124000D02*
X138480000Y-56370000D01*
X138480000Y-57930000D02*
X138480000Y-59176000D01*
X138520000Y-55131000D02*
X138520000Y-56370000D01*
X138520000Y-57930000D02*
X138520000Y-59169000D01*
X138560000Y-55138000D02*
X138560000Y-56370000D01*
X138560000Y-57930000D02*
X138560000Y-59162000D01*
X138600000Y-55146000D02*
X138600000Y-56370000D01*
X138600000Y-57930000D02*
X138600000Y-59154000D01*
X138640000Y-55155000D02*
X138640000Y-56370000D01*
X138640000Y-57930000D02*
X138640000Y-59145000D01*
X138680000Y-55165000D02*
X138680000Y-56370000D01*
X138680000Y-57930000D02*
X138680000Y-59135000D01*
X138720000Y-55176000D02*
X138720000Y-56370000D01*
X138720000Y-57930000D02*
X138720000Y-59124000D01*
X138760000Y-55187000D02*
X138760000Y-56370000D01*
X138760000Y-57930000D02*
X138760000Y-59113000D01*
X138800000Y-55200000D02*
X138800000Y-56370000D01*
X138800000Y-57930000D02*
X138800000Y-59100000D01*
X138840000Y-55213000D02*
X138840000Y-56370000D01*
X138840000Y-57930000D02*
X138840000Y-59087000D01*
X138881000Y-55227000D02*
X138881000Y-56370000D01*
X138881000Y-57930000D02*
X138881000Y-59073000D01*
X138921000Y-55243000D02*
X138921000Y-56370000D01*
X138921000Y-57930000D02*
X138921000Y-59057000D01*
X138961000Y-55259000D02*
X138961000Y-56370000D01*
X138961000Y-57930000D02*
X138961000Y-59041000D01*
X139001000Y-55276000D02*
X139001000Y-56370000D01*
X139001000Y-57930000D02*
X139001000Y-59024000D01*
X139041000Y-55294000D02*
X139041000Y-56370000D01*
X139041000Y-57930000D02*
X139041000Y-59006000D01*
X139081000Y-55313000D02*
X139081000Y-56370000D01*
X139081000Y-57930000D02*
X139081000Y-58987000D01*
X139121000Y-55333000D02*
X139121000Y-56370000D01*
X139121000Y-57930000D02*
X139121000Y-58967000D01*
X139161000Y-55354000D02*
X139161000Y-56370000D01*
X139161000Y-57930000D02*
X139161000Y-58946000D01*
X139201000Y-55377000D02*
X139201000Y-56370000D01*
X139201000Y-57930000D02*
X139201000Y-58923000D01*
X139241000Y-55400000D02*
X139241000Y-56370000D01*
X139241000Y-57930000D02*
X139241000Y-58900000D01*
X139281000Y-55425000D02*
X139281000Y-56370000D01*
X139281000Y-57930000D02*
X139281000Y-58875000D01*
X139321000Y-55451000D02*
X139321000Y-56370000D01*
X139321000Y-57930000D02*
X139321000Y-58849000D01*
X139361000Y-55478000D02*
X139361000Y-56370000D01*
X139361000Y-57930000D02*
X139361000Y-58822000D01*
X139401000Y-55507000D02*
X139401000Y-56370000D01*
X139401000Y-57930000D02*
X139401000Y-58793000D01*
X139441000Y-55537000D02*
X139441000Y-56370000D01*
X139441000Y-57930000D02*
X139441000Y-58763000D01*
X139481000Y-55569000D02*
X139481000Y-56370000D01*
X139481000Y-57930000D02*
X139481000Y-58731000D01*
X139521000Y-55603000D02*
X139521000Y-56370000D01*
X139521000Y-57930000D02*
X139521000Y-58697000D01*
X139561000Y-55638000D02*
X139561000Y-56370000D01*
X139561000Y-57930000D02*
X139561000Y-58662000D01*
X139601000Y-55675000D02*
X139601000Y-56370000D01*
X139601000Y-57930000D02*
X139601000Y-58625000D01*
X139641000Y-55714000D02*
X139641000Y-56370000D01*
X139641000Y-57930000D02*
X139641000Y-58586000D01*
X139681000Y-55755000D02*
X139681000Y-56370000D01*
X139681000Y-57930000D02*
X139681000Y-58545000D01*
X139721000Y-55799000D02*
X139721000Y-56370000D01*
X139721000Y-57930000D02*
X139721000Y-58501000D01*
X139761000Y-55845000D02*
X139761000Y-56370000D01*
X139761000Y-57930000D02*
X139761000Y-58455000D01*
X139801000Y-55894000D02*
X139801000Y-56370000D01*
X139801000Y-57930000D02*
X139801000Y-58406000D01*
X139841000Y-55946000D02*
X139841000Y-56370000D01*
X139841000Y-57930000D02*
X139841000Y-58354000D01*
X139881000Y-56002000D02*
X139881000Y-56370000D01*
X139881000Y-57930000D02*
X139881000Y-58298000D01*
X139921000Y-56062000D02*
X139921000Y-56370000D01*
X139921000Y-57930000D02*
X139921000Y-58238000D01*
X139961000Y-56127000D02*
X139961000Y-58173000D01*
X140001000Y-56198000D02*
X140001000Y-58102000D01*
X140041000Y-56276000D02*
X140041000Y-58024000D01*
X140081000Y-56364000D02*
X140081000Y-57936000D01*
X140121000Y-56464000D02*
X140121000Y-57836000D01*
X140161000Y-56583000D02*
X140161000Y-57717000D01*
X140201000Y-56735000D02*
X140201000Y-57565000D01*
X140241000Y-56985000D02*
X140241000Y-57315000D01*
X135460000Y-57150000D02*
X136360000Y-57150000D01*
X135910000Y-56700000D02*
X135910000Y-57600000D01*
X136850000Y-70060000D02*
X139970000Y-70060000D01*
X136850000Y-72180000D02*
X139970000Y-72180000D01*
X136850000Y-70060000D02*
X136850000Y-70124000D01*
X136850000Y-72116000D02*
X136850000Y-72180000D01*
X139970000Y-70060000D02*
X139970000Y-70124000D01*
X139970000Y-72116000D02*
X139970000Y-72180000D01*
X93670000Y-120860000D02*
X96790000Y-120860000D01*
X93670000Y-122980000D02*
X96790000Y-122980000D01*
X93670000Y-120860000D02*
X93670000Y-120924000D01*
X93670000Y-122916000D02*
X93670000Y-122980000D01*
X96790000Y-120860000D02*
X96790000Y-120924000D01*
X96790000Y-122916000D02*
X96790000Y-122980000D01*
X113070000Y-88340000D02*
X113070000Y-94460000D01*
X110450000Y-88340000D02*
X110450000Y-94460000D01*
X113070000Y-88340000D02*
X112756000Y-88340000D01*
X110764000Y-88340000D02*
X110450000Y-88340000D01*
X113070000Y-94460000D02*
X112756000Y-94460000D01*
X110764000Y-94460000D02*
X110450000Y-94460000D01*
X123450000Y-111470000D02*
X123450000Y-107050000D01*
X125470000Y-111470000D02*
X125470000Y-107050000D01*
X123450000Y-111470000D02*
X123464000Y-111470000D01*
X125456000Y-111470000D02*
X125470000Y-111470000D01*
X123450000Y-107050000D02*
X123464000Y-107050000D01*
X125456000Y-107050000D02*
X125470000Y-107050000D01*
X175169723Y-107695722D02*
G75*
G03X175170000Y-103084420I-1179723J2305722D01*
G01*
X172810277Y-107695722D02*
G75*
G02X172810000Y-103084420I1179723J2305722D01*
G01*
X172810277Y-107695722D02*
G75*
G03X175170000Y-107695580I1179723J2305722D01*
G01*
X176540000Y-105390000D02*
X171440000Y-105390000D01*
X176540000Y-105430000D02*
X171440000Y-105430000D01*
X176539000Y-105470000D02*
X171441000Y-105470000D01*
X176538000Y-105510000D02*
X171442000Y-105510000D01*
X176536000Y-105550000D02*
X171444000Y-105550000D01*
X176533000Y-105590000D02*
X171447000Y-105590000D01*
X176529000Y-105630000D02*
X171451000Y-105630000D01*
X176525000Y-105670000D02*
X174970000Y-105670000D01*
X173010000Y-105670000D02*
X171455000Y-105670000D01*
X176521000Y-105710000D02*
X174970000Y-105710000D01*
X173010000Y-105710000D02*
X171459000Y-105710000D01*
X176515000Y-105750000D02*
X174970000Y-105750000D01*
X173010000Y-105750000D02*
X171465000Y-105750000D01*
X176509000Y-105790000D02*
X174970000Y-105790000D01*
X173010000Y-105790000D02*
X171471000Y-105790000D01*
X176503000Y-105830000D02*
X174970000Y-105830000D01*
X173010000Y-105830000D02*
X171477000Y-105830000D01*
X176496000Y-105870000D02*
X174970000Y-105870000D01*
X173010000Y-105870000D02*
X171484000Y-105870000D01*
X176488000Y-105910000D02*
X174970000Y-105910000D01*
X173010000Y-105910000D02*
X171492000Y-105910000D01*
X176479000Y-105950000D02*
X174970000Y-105950000D01*
X173010000Y-105950000D02*
X171501000Y-105950000D01*
X176470000Y-105990000D02*
X174970000Y-105990000D01*
X173010000Y-105990000D02*
X171510000Y-105990000D01*
X176460000Y-106030000D02*
X174970000Y-106030000D01*
X173010000Y-106030000D02*
X171520000Y-106030000D01*
X176450000Y-106070000D02*
X174970000Y-106070000D01*
X173010000Y-106070000D02*
X171530000Y-106070000D01*
X176438000Y-106111000D02*
X174970000Y-106111000D01*
X173010000Y-106111000D02*
X171542000Y-106111000D01*
X176426000Y-106151000D02*
X174970000Y-106151000D01*
X173010000Y-106151000D02*
X171554000Y-106151000D01*
X176414000Y-106191000D02*
X174970000Y-106191000D01*
X173010000Y-106191000D02*
X171566000Y-106191000D01*
X176400000Y-106231000D02*
X174970000Y-106231000D01*
X173010000Y-106231000D02*
X171580000Y-106231000D01*
X176386000Y-106271000D02*
X174970000Y-106271000D01*
X173010000Y-106271000D02*
X171594000Y-106271000D01*
X176372000Y-106311000D02*
X174970000Y-106311000D01*
X173010000Y-106311000D02*
X171608000Y-106311000D01*
X176356000Y-106351000D02*
X174970000Y-106351000D01*
X173010000Y-106351000D02*
X171624000Y-106351000D01*
X176340000Y-106391000D02*
X174970000Y-106391000D01*
X173010000Y-106391000D02*
X171640000Y-106391000D01*
X176323000Y-106431000D02*
X174970000Y-106431000D01*
X173010000Y-106431000D02*
X171657000Y-106431000D01*
X176305000Y-106471000D02*
X174970000Y-106471000D01*
X173010000Y-106471000D02*
X171675000Y-106471000D01*
X176286000Y-106511000D02*
X174970000Y-106511000D01*
X173010000Y-106511000D02*
X171694000Y-106511000D01*
X176266000Y-106551000D02*
X174970000Y-106551000D01*
X173010000Y-106551000D02*
X171714000Y-106551000D01*
X176246000Y-106591000D02*
X174970000Y-106591000D01*
X173010000Y-106591000D02*
X171734000Y-106591000D01*
X176224000Y-106631000D02*
X174970000Y-106631000D01*
X173010000Y-106631000D02*
X171756000Y-106631000D01*
X176202000Y-106671000D02*
X174970000Y-106671000D01*
X173010000Y-106671000D02*
X171778000Y-106671000D01*
X176179000Y-106711000D02*
X174970000Y-106711000D01*
X173010000Y-106711000D02*
X171801000Y-106711000D01*
X176155000Y-106751000D02*
X174970000Y-106751000D01*
X173010000Y-106751000D02*
X171825000Y-106751000D01*
X176130000Y-106791000D02*
X174970000Y-106791000D01*
X173010000Y-106791000D02*
X171850000Y-106791000D01*
X176103000Y-106831000D02*
X174970000Y-106831000D01*
X173010000Y-106831000D02*
X171877000Y-106831000D01*
X176076000Y-106871000D02*
X174970000Y-106871000D01*
X173010000Y-106871000D02*
X171904000Y-106871000D01*
X176048000Y-106911000D02*
X174970000Y-106911000D01*
X173010000Y-106911000D02*
X171932000Y-106911000D01*
X176018000Y-106951000D02*
X174970000Y-106951000D01*
X173010000Y-106951000D02*
X171962000Y-106951000D01*
X175987000Y-106991000D02*
X174970000Y-106991000D01*
X173010000Y-106991000D02*
X171993000Y-106991000D01*
X175955000Y-107031000D02*
X174970000Y-107031000D01*
X173010000Y-107031000D02*
X172025000Y-107031000D01*
X175922000Y-107071000D02*
X174970000Y-107071000D01*
X173010000Y-107071000D02*
X172058000Y-107071000D01*
X175887000Y-107111000D02*
X174970000Y-107111000D01*
X173010000Y-107111000D02*
X172093000Y-107111000D01*
X175851000Y-107151000D02*
X174970000Y-107151000D01*
X173010000Y-107151000D02*
X172129000Y-107151000D01*
X175813000Y-107191000D02*
X174970000Y-107191000D01*
X173010000Y-107191000D02*
X172167000Y-107191000D01*
X175773000Y-107231000D02*
X174970000Y-107231000D01*
X173010000Y-107231000D02*
X172207000Y-107231000D01*
X175732000Y-107271000D02*
X174970000Y-107271000D01*
X173010000Y-107271000D02*
X172248000Y-107271000D01*
X175689000Y-107311000D02*
X174970000Y-107311000D01*
X173010000Y-107311000D02*
X172291000Y-107311000D01*
X175644000Y-107351000D02*
X174970000Y-107351000D01*
X173010000Y-107351000D02*
X172336000Y-107351000D01*
X175596000Y-107391000D02*
X174970000Y-107391000D01*
X173010000Y-107391000D02*
X172384000Y-107391000D01*
X175546000Y-107431000D02*
X174970000Y-107431000D01*
X173010000Y-107431000D02*
X172434000Y-107431000D01*
X175494000Y-107471000D02*
X174970000Y-107471000D01*
X173010000Y-107471000D02*
X172486000Y-107471000D01*
X175438000Y-107511000D02*
X174970000Y-107511000D01*
X173010000Y-107511000D02*
X172542000Y-107511000D01*
X175380000Y-107551000D02*
X174970000Y-107551000D01*
X173010000Y-107551000D02*
X172600000Y-107551000D01*
X175317000Y-107591000D02*
X174970000Y-107591000D01*
X173010000Y-107591000D02*
X172663000Y-107591000D01*
X175251000Y-107631000D02*
X172729000Y-107631000D01*
X175179000Y-107671000D02*
X172801000Y-107671000D01*
X175102000Y-107711000D02*
X172878000Y-107711000D01*
X175018000Y-107751000D02*
X172962000Y-107751000D01*
X174924000Y-107791000D02*
X173056000Y-107791000D01*
X174819000Y-107831000D02*
X173161000Y-107831000D01*
X174697000Y-107871000D02*
X173283000Y-107871000D01*
X174549000Y-107911000D02*
X173431000Y-107911000D01*
X174344000Y-107951000D02*
X173636000Y-107951000D01*
X173990000Y-101940000D02*
X173990000Y-103140000D01*
X174640000Y-102540000D02*
X173340000Y-102540000D01*
X191980000Y-77780000D02*
X191980000Y-74660000D01*
X194100000Y-77780000D02*
X194100000Y-74660000D01*
X191980000Y-77780000D02*
X192044000Y-77780000D01*
X194036000Y-77780000D02*
X194100000Y-77780000D01*
X191980000Y-74660000D02*
X192044000Y-74660000D01*
X194036000Y-74660000D02*
X194100000Y-74660000D01*
X190193564Y-58129170D02*
G75*
G03X193885996Y-58130000I1846436J979170D01*
G01*
X190193564Y-56170830D02*
G75*
G02X193885996Y-56170000I1846436J-979170D01*
G01*
X190193564Y-56170830D02*
G75*
G03X190194004Y-58130000I1846436J-979170D01*
G01*
X192040000Y-59200000D02*
X192040000Y-55100000D01*
X192000000Y-59200000D02*
X192000000Y-55100000D01*
X191960000Y-59199000D02*
X191960000Y-55101000D01*
X191920000Y-59197000D02*
X191920000Y-55103000D01*
X191880000Y-59194000D02*
X191880000Y-55106000D01*
X191840000Y-59191000D02*
X191840000Y-55109000D01*
X191800000Y-59187000D02*
X191800000Y-57930000D01*
X191800000Y-56370000D02*
X191800000Y-55113000D01*
X191760000Y-59182000D02*
X191760000Y-57930000D01*
X191760000Y-56370000D02*
X191760000Y-55118000D01*
X191720000Y-59176000D02*
X191720000Y-57930000D01*
X191720000Y-56370000D02*
X191720000Y-55124000D01*
X191680000Y-59169000D02*
X191680000Y-57930000D01*
X191680000Y-56370000D02*
X191680000Y-55131000D01*
X191640000Y-59162000D02*
X191640000Y-57930000D01*
X191640000Y-56370000D02*
X191640000Y-55138000D01*
X191600000Y-59154000D02*
X191600000Y-57930000D01*
X191600000Y-56370000D02*
X191600000Y-55146000D01*
X191560000Y-59145000D02*
X191560000Y-57930000D01*
X191560000Y-56370000D02*
X191560000Y-55155000D01*
X191520000Y-59135000D02*
X191520000Y-57930000D01*
X191520000Y-56370000D02*
X191520000Y-55165000D01*
X191480000Y-59124000D02*
X191480000Y-57930000D01*
X191480000Y-56370000D02*
X191480000Y-55176000D01*
X191440000Y-59113000D02*
X191440000Y-57930000D01*
X191440000Y-56370000D02*
X191440000Y-55187000D01*
X191400000Y-59100000D02*
X191400000Y-57930000D01*
X191400000Y-56370000D02*
X191400000Y-55200000D01*
X191360000Y-59087000D02*
X191360000Y-57930000D01*
X191360000Y-56370000D02*
X191360000Y-55213000D01*
X191319000Y-59073000D02*
X191319000Y-57930000D01*
X191319000Y-56370000D02*
X191319000Y-55227000D01*
X191279000Y-59057000D02*
X191279000Y-57930000D01*
X191279000Y-56370000D02*
X191279000Y-55243000D01*
X191239000Y-59041000D02*
X191239000Y-57930000D01*
X191239000Y-56370000D02*
X191239000Y-55259000D01*
X191199000Y-59024000D02*
X191199000Y-57930000D01*
X191199000Y-56370000D02*
X191199000Y-55276000D01*
X191159000Y-59006000D02*
X191159000Y-57930000D01*
X191159000Y-56370000D02*
X191159000Y-55294000D01*
X191119000Y-58987000D02*
X191119000Y-57930000D01*
X191119000Y-56370000D02*
X191119000Y-55313000D01*
X191079000Y-58967000D02*
X191079000Y-57930000D01*
X191079000Y-56370000D02*
X191079000Y-55333000D01*
X191039000Y-58946000D02*
X191039000Y-57930000D01*
X191039000Y-56370000D02*
X191039000Y-55354000D01*
X190999000Y-58923000D02*
X190999000Y-57930000D01*
X190999000Y-56370000D02*
X190999000Y-55377000D01*
X190959000Y-58900000D02*
X190959000Y-57930000D01*
X190959000Y-56370000D02*
X190959000Y-55400000D01*
X190919000Y-58875000D02*
X190919000Y-57930000D01*
X190919000Y-56370000D02*
X190919000Y-55425000D01*
X190879000Y-58849000D02*
X190879000Y-57930000D01*
X190879000Y-56370000D02*
X190879000Y-55451000D01*
X190839000Y-58822000D02*
X190839000Y-57930000D01*
X190839000Y-56370000D02*
X190839000Y-55478000D01*
X190799000Y-58793000D02*
X190799000Y-57930000D01*
X190799000Y-56370000D02*
X190799000Y-55507000D01*
X190759000Y-58763000D02*
X190759000Y-57930000D01*
X190759000Y-56370000D02*
X190759000Y-55537000D01*
X190719000Y-58731000D02*
X190719000Y-57930000D01*
X190719000Y-56370000D02*
X190719000Y-55569000D01*
X190679000Y-58697000D02*
X190679000Y-57930000D01*
X190679000Y-56370000D02*
X190679000Y-55603000D01*
X190639000Y-58662000D02*
X190639000Y-57930000D01*
X190639000Y-56370000D02*
X190639000Y-55638000D01*
X190599000Y-58625000D02*
X190599000Y-57930000D01*
X190599000Y-56370000D02*
X190599000Y-55675000D01*
X190559000Y-58586000D02*
X190559000Y-57930000D01*
X190559000Y-56370000D02*
X190559000Y-55714000D01*
X190519000Y-58545000D02*
X190519000Y-57930000D01*
X190519000Y-56370000D02*
X190519000Y-55755000D01*
X190479000Y-58501000D02*
X190479000Y-57930000D01*
X190479000Y-56370000D02*
X190479000Y-55799000D01*
X190439000Y-58455000D02*
X190439000Y-57930000D01*
X190439000Y-56370000D02*
X190439000Y-55845000D01*
X190399000Y-58406000D02*
X190399000Y-57930000D01*
X190399000Y-56370000D02*
X190399000Y-55894000D01*
X190359000Y-58354000D02*
X190359000Y-57930000D01*
X190359000Y-56370000D02*
X190359000Y-55946000D01*
X190319000Y-58298000D02*
X190319000Y-57930000D01*
X190319000Y-56370000D02*
X190319000Y-56002000D01*
X190279000Y-58238000D02*
X190279000Y-57930000D01*
X190279000Y-56370000D02*
X190279000Y-56062000D01*
X190239000Y-58173000D02*
X190239000Y-56127000D01*
X190199000Y-58102000D02*
X190199000Y-56198000D01*
X190159000Y-58024000D02*
X190159000Y-56276000D01*
X190119000Y-57936000D02*
X190119000Y-56364000D01*
X190079000Y-57836000D02*
X190079000Y-56464000D01*
X190039000Y-57717000D02*
X190039000Y-56583000D01*
X189999000Y-57565000D02*
X189999000Y-56735000D01*
X189959000Y-57315000D02*
X189959000Y-56985000D01*
X194740000Y-57150000D02*
X193840000Y-57150000D01*
X194290000Y-57600000D02*
X194290000Y-56700000D01*
X159060000Y-73450000D02*
X155940000Y-73450000D01*
X159060000Y-71330000D02*
X155940000Y-71330000D01*
X159060000Y-73450000D02*
X159060000Y-73386000D01*
X159060000Y-71394000D02*
X159060000Y-71330000D01*
X155940000Y-73450000D02*
X155940000Y-73386000D01*
X155940000Y-71394000D02*
X155940000Y-71330000D01*
X68390000Y-74870000D02*
X68390000Y-77530000D01*
X68390000Y-77530000D02*
X59760000Y-77530000D01*
X59760000Y-77530000D02*
X59760000Y-74870000D01*
X59760000Y-74870000D02*
X68390000Y-74870000D01*
X68390000Y-74870000D02*
X68390000Y-77470000D01*
X68390000Y-77470000D02*
X59760000Y-77470000D01*
X59760000Y-77470000D02*
X59760000Y-74870000D01*
X59760000Y-74870000D02*
X68390000Y-74870000D01*
X68820000Y-75820000D02*
X68390000Y-75820000D01*
X68820000Y-76580000D02*
X68390000Y-76580000D01*
X68390000Y-75050000D02*
X59760000Y-75050000D01*
X68390000Y-75170000D02*
X59760000Y-75170000D01*
X68390000Y-75290000D02*
X59760000Y-75290000D01*
X68390000Y-75410000D02*
X59760000Y-75410000D01*
X68390000Y-75530000D02*
X59760000Y-75530000D01*
X68390000Y-75650000D02*
X59760000Y-75650000D01*
X68390000Y-75770000D02*
X59760000Y-75770000D01*
X68390000Y-75890000D02*
X59760000Y-75890000D01*
X68390000Y-76010000D02*
X59760000Y-76010000D01*
X68390000Y-76130000D02*
X59760000Y-76130000D01*
X68390000Y-76250000D02*
X59760000Y-76250000D01*
X68390000Y-76370000D02*
X59760000Y-76370000D01*
X68390000Y-76490000D02*
X59760000Y-76490000D01*
X68390000Y-76610000D02*
X59760000Y-76610000D01*
X68390000Y-76730000D02*
X59760000Y-76730000D01*
X68390000Y-76850000D02*
X59760000Y-76850000D01*
X68390000Y-76970000D02*
X59760000Y-76970000D01*
X68390000Y-77090000D02*
X59760000Y-77090000D01*
X68390000Y-77210000D02*
X59760000Y-77210000D01*
X68390000Y-77330000D02*
X59760000Y-77330000D01*
X68390000Y-77450000D02*
X59760000Y-77450000D01*
X68390000Y-77570000D02*
X59760000Y-77570000D01*
X69850000Y-74930000D02*
X71120000Y-74930000D01*
X71120000Y-74930000D02*
X71120000Y-76200000D01*
X68390000Y-88840000D02*
X68390000Y-91500000D01*
X68390000Y-91500000D02*
X59760000Y-91500000D01*
X59760000Y-91500000D02*
X59760000Y-88840000D01*
X59760000Y-88840000D02*
X68390000Y-88840000D01*
X68390000Y-88840000D02*
X68390000Y-91440000D01*
X68390000Y-91440000D02*
X59760000Y-91440000D01*
X59760000Y-91440000D02*
X59760000Y-88840000D01*
X59760000Y-88840000D02*
X68390000Y-88840000D01*
X68820000Y-89790000D02*
X68390000Y-89790000D01*
X68820000Y-90550000D02*
X68390000Y-90550000D01*
X68390000Y-89020000D02*
X59760000Y-89020000D01*
X68390000Y-89140000D02*
X59760000Y-89140000D01*
X68390000Y-89260000D02*
X59760000Y-89260000D01*
X68390000Y-89380000D02*
X59760000Y-89380000D01*
X68390000Y-89500000D02*
X59760000Y-89500000D01*
X68390000Y-89620000D02*
X59760000Y-89620000D01*
X68390000Y-89740000D02*
X59760000Y-89740000D01*
X68390000Y-89860000D02*
X59760000Y-89860000D01*
X68390000Y-89980000D02*
X59760000Y-89980000D01*
X68390000Y-90100000D02*
X59760000Y-90100000D01*
X68390000Y-90220000D02*
X59760000Y-90220000D01*
X68390000Y-90340000D02*
X59760000Y-90340000D01*
X68390000Y-90460000D02*
X59760000Y-90460000D01*
X68390000Y-90580000D02*
X59760000Y-90580000D01*
X68390000Y-90700000D02*
X59760000Y-90700000D01*
X68390000Y-90820000D02*
X59760000Y-90820000D01*
X68390000Y-90940000D02*
X59760000Y-90940000D01*
X68390000Y-91060000D02*
X59760000Y-91060000D01*
X68390000Y-91180000D02*
X59760000Y-91180000D01*
X68390000Y-91300000D02*
X59760000Y-91300000D01*
X68390000Y-91420000D02*
X59760000Y-91420000D01*
X68390000Y-91540000D02*
X59760000Y-91540000D01*
X69850000Y-88900000D02*
X71120000Y-88900000D01*
X71120000Y-88900000D02*
X71120000Y-90170000D01*
X148230000Y-44970000D02*
X148230000Y-54090000D01*
X148230000Y-54090000D02*
X174350000Y-54090000D01*
X174350000Y-54090000D02*
X174350000Y-44970000D01*
X174350000Y-44970000D02*
X148230000Y-44970000D01*
X147430000Y-49530000D02*
X148230000Y-49530000D01*
X175150000Y-49530000D02*
X174350000Y-49530000D01*
X205930000Y-78800000D02*
X205930000Y-76140000D01*
X205930000Y-76140000D02*
X214560000Y-76140000D01*
X214560000Y-76140000D02*
X214560000Y-78800000D01*
X214560000Y-78800000D02*
X205930000Y-78800000D01*
X205930000Y-78800000D02*
X205930000Y-76200000D01*
X205930000Y-76200000D02*
X214560000Y-76200000D01*
X214560000Y-76200000D02*
X214560000Y-78800000D01*
X214560000Y-78800000D02*
X205930000Y-78800000D01*
X205500000Y-77850000D02*
X205930000Y-77850000D01*
X205500000Y-77090000D02*
X205930000Y-77090000D01*
X205930000Y-78620000D02*
X214560000Y-78620000D01*
X205930000Y-78500000D02*
X214560000Y-78500000D01*
X205930000Y-78380000D02*
X214560000Y-78380000D01*
X205930000Y-78260000D02*
X214560000Y-78260000D01*
X205930000Y-78140000D02*
X214560000Y-78140000D01*
X205930000Y-78020000D02*
X214560000Y-78020000D01*
X205930000Y-77900000D02*
X214560000Y-77900000D01*
X205930000Y-77780000D02*
X214560000Y-77780000D01*
X205930000Y-77660000D02*
X214560000Y-77660000D01*
X205930000Y-77540000D02*
X214560000Y-77540000D01*
X205930000Y-77420000D02*
X214560000Y-77420000D01*
X205930000Y-77300000D02*
X214560000Y-77300000D01*
X205930000Y-77180000D02*
X214560000Y-77180000D01*
X205930000Y-77060000D02*
X214560000Y-77060000D01*
X205930000Y-76940000D02*
X214560000Y-76940000D01*
X205930000Y-76820000D02*
X214560000Y-76820000D01*
X205930000Y-76700000D02*
X214560000Y-76700000D01*
X205930000Y-76580000D02*
X214560000Y-76580000D01*
X205930000Y-76460000D02*
X214560000Y-76460000D01*
X205930000Y-76340000D02*
X214560000Y-76340000D01*
X205930000Y-76220000D02*
X214560000Y-76220000D01*
X205930000Y-76100000D02*
X214560000Y-76100000D01*
X204470000Y-78740000D02*
X203200000Y-78740000D01*
X203200000Y-78740000D02*
X203200000Y-77470000D01*
X205930000Y-92770000D02*
X205930000Y-90110000D01*
X205930000Y-90110000D02*
X214560000Y-90110000D01*
X214560000Y-90110000D02*
X214560000Y-92770000D01*
X214560000Y-92770000D02*
X205930000Y-92770000D01*
X205930000Y-92770000D02*
X205930000Y-90170000D01*
X205930000Y-90170000D02*
X214560000Y-90170000D01*
X214560000Y-90170000D02*
X214560000Y-92770000D01*
X214560000Y-92770000D02*
X205930000Y-92770000D01*
X205500000Y-91820000D02*
X205930000Y-91820000D01*
X205500000Y-91060000D02*
X205930000Y-91060000D01*
X205930000Y-92590000D02*
X214560000Y-92590000D01*
X205930000Y-92470000D02*
X214560000Y-92470000D01*
X205930000Y-92350000D02*
X214560000Y-92350000D01*
X205930000Y-92230000D02*
X214560000Y-92230000D01*
X205930000Y-92110000D02*
X214560000Y-92110000D01*
X205930000Y-91990000D02*
X214560000Y-91990000D01*
X205930000Y-91870000D02*
X214560000Y-91870000D01*
X205930000Y-91750000D02*
X214560000Y-91750000D01*
X205930000Y-91630000D02*
X214560000Y-91630000D01*
X205930000Y-91510000D02*
X214560000Y-91510000D01*
X205930000Y-91390000D02*
X214560000Y-91390000D01*
X205930000Y-91270000D02*
X214560000Y-91270000D01*
X205930000Y-91150000D02*
X214560000Y-91150000D01*
X205930000Y-91030000D02*
X214560000Y-91030000D01*
X205930000Y-90910000D02*
X214560000Y-90910000D01*
X205930000Y-90790000D02*
X214560000Y-90790000D01*
X205930000Y-90670000D02*
X214560000Y-90670000D01*
X205930000Y-90550000D02*
X214560000Y-90550000D01*
X205930000Y-90430000D02*
X214560000Y-90430000D01*
X205930000Y-90310000D02*
X214560000Y-90310000D01*
X205930000Y-90190000D02*
X214560000Y-90190000D01*
X205930000Y-90070000D02*
X214560000Y-90070000D01*
X204470000Y-92710000D02*
X203200000Y-92710000D01*
X203200000Y-92710000D02*
X203200000Y-91440000D01*
X107810000Y-66790000D02*
X107810000Y-57670000D01*
X107810000Y-57670000D02*
X82690000Y-57670000D01*
X82690000Y-57670000D02*
X82690000Y-66790000D01*
X82690000Y-66790000D02*
X107810000Y-66790000D01*
X107840000Y-62230000D02*
X107810000Y-62230000D01*
X82660000Y-62230000D02*
X82690000Y-62230000D01*
D12*
X127381000Y-92710000D02*
X127381000Y-72390000D01*
X121539000Y-72390000D02*
X121539000Y-92710000D01*
X127381000Y-92710000D02*
X121539000Y-92710000D01*
X127381000Y-72390000D02*
X125476000Y-72390000D01*
X121539000Y-72390000D02*
X123444000Y-72390000D01*
X125476000Y-72390000D02*
G75*
G02X123444000Y-72390000I-1016000J0D01*
G01*
D11*
X108620000Y-81320000D02*
X108620000Y-78700000D01*
X108620000Y-78700000D02*
X102200000Y-78700000D01*
X102200000Y-78700000D02*
X102200000Y-81320000D01*
X102200000Y-81320000D02*
X108620000Y-81320000D01*
X112050000Y-80010000D02*
X108620000Y-80010000D01*
X98770000Y-80010000D02*
X102200000Y-80010000D01*
X95290000Y-90770000D02*
X92670000Y-90770000D01*
X92670000Y-90770000D02*
X92670000Y-97190000D01*
X92670000Y-97190000D02*
X95290000Y-97190000D01*
X95290000Y-97190000D02*
X95290000Y-90770000D01*
X93980000Y-87340000D02*
X93980000Y-90770000D01*
X93980000Y-100620000D02*
X93980000Y-97190000D01*
X116170000Y-97750000D02*
X116170000Y-100370000D01*
X116170000Y-100370000D02*
X122590000Y-100370000D01*
X122590000Y-100370000D02*
X122590000Y-97750000D01*
X122590000Y-97750000D02*
X116170000Y-97750000D01*
X112740000Y-99060000D02*
X116170000Y-99060000D01*
X126020000Y-99060000D02*
X122590000Y-99060000D01*
X158290000Y-80969000D02*
X158290000Y-90390000D01*
X141270000Y-80969000D02*
X141270000Y-90390000D01*
X158290000Y-80969000D02*
X141270000Y-80969000D01*
X158290000Y-90390000D02*
X141270000Y-90390000D01*
X153340000Y-90390000D02*
X153340000Y-96390000D01*
X146220000Y-90390000D02*
X146220000Y-96390000D01*
X153340000Y-90390000D02*
X146220000Y-90390000D01*
X153340000Y-96390000D02*
X146220000Y-96390000D01*
X151840000Y-96390000D02*
X151840000Y-140390000D01*
X147720000Y-96390000D02*
X147720000Y-140390000D01*
X151840000Y-96390000D02*
X147720000Y-96390000D01*
X151840000Y-140390000D02*
X147720000Y-140390000D01*
X137200000Y-80610000D02*
X134580000Y-80610000D01*
X134580000Y-80610000D02*
X134580000Y-87030000D01*
X134580000Y-87030000D02*
X137200000Y-87030000D01*
X137200000Y-87030000D02*
X137200000Y-80610000D01*
X135890000Y-77180000D02*
X135890000Y-80610000D01*
X135890000Y-90460000D02*
X135890000Y-87030000D01*
X88230000Y-110450000D02*
X88230000Y-113070000D01*
X88230000Y-113070000D02*
X94650000Y-113070000D01*
X94650000Y-113070000D02*
X94650000Y-110450000D01*
X94650000Y-110450000D02*
X88230000Y-110450000D01*
X84800000Y-111760000D02*
X88230000Y-111760000D01*
X98080000Y-111760000D02*
X94650000Y-111760000D01*
X106720000Y-108550000D02*
X104100000Y-108550000D01*
X104100000Y-108550000D02*
X104100000Y-114970000D01*
X104100000Y-114970000D02*
X106720000Y-114970000D01*
X106720000Y-114970000D02*
X106720000Y-108550000D01*
X105410000Y-105120000D02*
X105410000Y-108550000D01*
X105410000Y-118400000D02*
X105410000Y-114970000D01*
X136280000Y-103390000D02*
X132960000Y-103390000D01*
X132960000Y-103390000D02*
X132960000Y-112510000D01*
X132960000Y-112510000D02*
X136280000Y-112510000D01*
X136280000Y-112510000D02*
X136280000Y-103390000D01*
X134620000Y-98770000D02*
X134620000Y-103390000D01*
X134620000Y-117130000D02*
X134620000Y-112510000D01*
X174660000Y-119420000D02*
X174660000Y-116800000D01*
X174660000Y-116800000D02*
X168240000Y-116800000D01*
X168240000Y-116800000D02*
X168240000Y-119420000D01*
X168240000Y-119420000D02*
X174660000Y-119420000D01*
X178090000Y-118110000D02*
X174660000Y-118110000D01*
X164810000Y-118110000D02*
X168240000Y-118110000D01*
X188630000Y-124500000D02*
X188630000Y-121880000D01*
X188630000Y-121880000D02*
X182210000Y-121880000D01*
X182210000Y-121880000D02*
X182210000Y-124500000D01*
X182210000Y-124500000D02*
X188630000Y-124500000D01*
X192060000Y-123190000D02*
X188630000Y-123190000D01*
X178780000Y-123190000D02*
X182210000Y-123190000D01*
X173390000Y-91480000D02*
X173390000Y-88860000D01*
X173390000Y-88860000D02*
X166970000Y-88860000D01*
X166970000Y-88860000D02*
X166970000Y-91480000D01*
X166970000Y-91480000D02*
X173390000Y-91480000D01*
X176820000Y-90170000D02*
X173390000Y-90170000D01*
X163540000Y-90170000D02*
X166970000Y-90170000D01*
X188560000Y-109180000D02*
X188560000Y-111800000D01*
X188560000Y-111800000D02*
X194980000Y-111800000D01*
X194980000Y-111800000D02*
X194980000Y-109180000D01*
X194980000Y-109180000D02*
X188560000Y-109180000D01*
X185130000Y-110490000D02*
X188560000Y-110490000D01*
X198410000Y-110490000D02*
X194980000Y-110490000D01*
X191170000Y-99100000D02*
X191170000Y-96480000D01*
X191170000Y-96480000D02*
X184750000Y-96480000D01*
X184750000Y-96480000D02*
X184750000Y-99100000D01*
X184750000Y-99100000D02*
X191170000Y-99100000D01*
X194600000Y-97790000D02*
X191170000Y-97790000D01*
X181320000Y-97790000D02*
X184750000Y-97790000D01*
X160230000Y-106200000D02*
X162350000Y-106200000D01*
X162350000Y-106200000D02*
X162350000Y-102080000D01*
X162350000Y-102080000D02*
X160230000Y-102080000D01*
X160230000Y-102080000D02*
X160230000Y-106200000D01*
X161290000Y-109510000D02*
X161290000Y-106200000D01*
X161290000Y-98770000D02*
X161290000Y-102080000D01*
X160230000Y-105540000D02*
X162350000Y-105540000D01*
X151400000Y-59570000D02*
X151400000Y-64890000D01*
X151400000Y-64890000D02*
X161020000Y-64890000D01*
X161020000Y-64890000D02*
X161020000Y-59570000D01*
X161020000Y-59570000D02*
X151400000Y-59570000D01*
X150370000Y-62230000D02*
X151400000Y-62230000D01*
X162050000Y-62230000D02*
X161020000Y-62230000D01*
X152885000Y-59570000D02*
X152885000Y-64890000D01*
X173460000Y-64080000D02*
X177060000Y-64080000D01*
X173421522Y-64068478D02*
G75*
G02X175260000Y-59630000I1838478J1838478D01*
G01*
X177098478Y-64068478D02*
G75*
G03X175260000Y-59630000I-1838478J1838478D01*
G01*
X166330000Y-73580000D02*
X176570000Y-73580000D01*
X166330000Y-78221000D02*
X176570000Y-78221000D01*
X166330000Y-73580000D02*
X166330000Y-78221000D01*
X176570000Y-73580000D02*
X176570000Y-78221000D01*
X166330000Y-75090000D02*
X176570000Y-75090000D01*
X169600000Y-73580000D02*
X169600000Y-75090000D01*
X173301000Y-73580000D02*
X173301000Y-75090000D01*
D13*
X136207143Y-50926666D02*
X136254762Y-50974285D01*
X136302381Y-51117142D01*
X136302381Y-51212380D01*
X136254762Y-51355238D01*
X136159524Y-51450476D01*
X136064286Y-51498095D01*
X135873810Y-51545714D01*
X135730952Y-51545714D01*
X135540476Y-51498095D01*
X135445238Y-51450476D01*
X135350000Y-51355238D01*
X135302381Y-51212380D01*
X135302381Y-51117142D01*
X135350000Y-50974285D01*
X135397619Y-50926666D01*
X136302381Y-49974285D02*
X136302381Y-50545714D01*
X136302381Y-50260000D02*
X135302381Y-50260000D01*
X135445238Y-50355238D01*
X135540476Y-50450476D01*
X135588095Y-50545714D01*
X124587143Y-62376666D02*
X124634762Y-62424285D01*
X124682381Y-62567142D01*
X124682381Y-62662380D01*
X124634762Y-62805238D01*
X124539524Y-62900476D01*
X124444286Y-62948095D01*
X124253810Y-62995714D01*
X124110952Y-62995714D01*
X123920476Y-62948095D01*
X123825238Y-62900476D01*
X123730000Y-62805238D01*
X123682381Y-62662380D01*
X123682381Y-62567142D01*
X123730000Y-62424285D01*
X123777619Y-62376666D01*
X123777619Y-61995714D02*
X123730000Y-61948095D01*
X123682381Y-61852857D01*
X123682381Y-61614761D01*
X123730000Y-61519523D01*
X123777619Y-61471904D01*
X123872857Y-61424285D01*
X123968095Y-61424285D01*
X124110952Y-61471904D01*
X124682381Y-62043333D01*
X124682381Y-61424285D01*
X137993334Y-54197143D02*
X137945715Y-54244762D01*
X137802858Y-54292381D01*
X137707620Y-54292381D01*
X137564762Y-54244762D01*
X137469524Y-54149524D01*
X137421905Y-54054286D01*
X137374286Y-53863810D01*
X137374286Y-53720952D01*
X137421905Y-53530476D01*
X137469524Y-53435238D01*
X137564762Y-53340000D01*
X137707620Y-53292381D01*
X137802858Y-53292381D01*
X137945715Y-53340000D01*
X137993334Y-53387619D01*
X138326667Y-53292381D02*
X138945715Y-53292381D01*
X138612381Y-53673333D01*
X138755239Y-53673333D01*
X138850477Y-53720952D01*
X138898096Y-53768571D01*
X138945715Y-53863810D01*
X138945715Y-54101905D01*
X138898096Y-54197143D01*
X138850477Y-54244762D01*
X138755239Y-54292381D01*
X138469524Y-54292381D01*
X138374286Y-54244762D01*
X138326667Y-54197143D01*
X138243334Y-69167143D02*
X138195715Y-69214762D01*
X138052858Y-69262381D01*
X137957620Y-69262381D01*
X137814762Y-69214762D01*
X137719524Y-69119524D01*
X137671905Y-69024286D01*
X137624286Y-68833810D01*
X137624286Y-68690952D01*
X137671905Y-68500476D01*
X137719524Y-68405238D01*
X137814762Y-68310000D01*
X137957620Y-68262381D01*
X138052858Y-68262381D01*
X138195715Y-68310000D01*
X138243334Y-68357619D01*
X139100477Y-68595714D02*
X139100477Y-69262381D01*
X138862381Y-68214762D02*
X138624286Y-68929048D01*
X139243334Y-68929048D01*
X95063334Y-119967143D02*
X95015715Y-120014762D01*
X94872858Y-120062381D01*
X94777620Y-120062381D01*
X94634762Y-120014762D01*
X94539524Y-119919524D01*
X94491905Y-119824286D01*
X94444286Y-119633810D01*
X94444286Y-119490952D01*
X94491905Y-119300476D01*
X94539524Y-119205238D01*
X94634762Y-119110000D01*
X94777620Y-119062381D01*
X94872858Y-119062381D01*
X95015715Y-119110000D01*
X95063334Y-119157619D01*
X95968096Y-119062381D02*
X95491905Y-119062381D01*
X95444286Y-119538571D01*
X95491905Y-119490952D01*
X95587143Y-119443333D01*
X95825239Y-119443333D01*
X95920477Y-119490952D01*
X95968096Y-119538571D01*
X96015715Y-119633810D01*
X96015715Y-119871905D01*
X95968096Y-119967143D01*
X95920477Y-120014762D01*
X95825239Y-120062381D01*
X95587143Y-120062381D01*
X95491905Y-120014762D01*
X95444286Y-119967143D01*
X114677143Y-91566666D02*
X114724762Y-91614285D01*
X114772381Y-91757142D01*
X114772381Y-91852380D01*
X114724762Y-91995238D01*
X114629524Y-92090476D01*
X114534286Y-92138095D01*
X114343810Y-92185714D01*
X114200952Y-92185714D01*
X114010476Y-92138095D01*
X113915238Y-92090476D01*
X113820000Y-91995238D01*
X113772381Y-91852380D01*
X113772381Y-91757142D01*
X113820000Y-91614285D01*
X113867619Y-91566666D01*
X113772381Y-90709523D02*
X113772381Y-90900000D01*
X113820000Y-90995238D01*
X113867619Y-91042857D01*
X114010476Y-91138095D01*
X114200952Y-91185714D01*
X114581905Y-91185714D01*
X114677143Y-91138095D01*
X114724762Y-91090476D01*
X114772381Y-90995238D01*
X114772381Y-90804761D01*
X114724762Y-90709523D01*
X114677143Y-90661904D01*
X114581905Y-90614285D01*
X114343810Y-90614285D01*
X114248571Y-90661904D01*
X114200952Y-90709523D01*
X114153333Y-90804761D01*
X114153333Y-90995238D01*
X114200952Y-91090476D01*
X114248571Y-91138095D01*
X114343810Y-91185714D01*
X122557143Y-109426666D02*
X122604762Y-109474285D01*
X122652381Y-109617142D01*
X122652381Y-109712380D01*
X122604762Y-109855238D01*
X122509524Y-109950476D01*
X122414286Y-109998095D01*
X122223810Y-110045714D01*
X122080952Y-110045714D01*
X121890476Y-109998095D01*
X121795238Y-109950476D01*
X121700000Y-109855238D01*
X121652381Y-109712380D01*
X121652381Y-109617142D01*
X121700000Y-109474285D01*
X121747619Y-109426666D01*
X121652381Y-109093333D02*
X121652381Y-108426666D01*
X122652381Y-108855238D01*
X178157143Y-105556666D02*
X178204762Y-105604285D01*
X178252381Y-105747142D01*
X178252381Y-105842380D01*
X178204762Y-105985238D01*
X178109524Y-106080476D01*
X178014286Y-106128095D01*
X177823810Y-106175714D01*
X177680952Y-106175714D01*
X177490476Y-106128095D01*
X177395238Y-106080476D01*
X177300000Y-105985238D01*
X177252381Y-105842380D01*
X177252381Y-105747142D01*
X177300000Y-105604285D01*
X177347619Y-105556666D01*
X177680952Y-104985238D02*
X177633333Y-105080476D01*
X177585714Y-105128095D01*
X177490476Y-105175714D01*
X177442857Y-105175714D01*
X177347619Y-105128095D01*
X177300000Y-105080476D01*
X177252381Y-104985238D01*
X177252381Y-104794761D01*
X177300000Y-104699523D01*
X177347619Y-104651904D01*
X177442857Y-104604285D01*
X177490476Y-104604285D01*
X177585714Y-104651904D01*
X177633333Y-104699523D01*
X177680952Y-104794761D01*
X177680952Y-104985238D01*
X177728571Y-105080476D01*
X177776190Y-105128095D01*
X177871429Y-105175714D01*
X178061905Y-105175714D01*
X178157143Y-105128095D01*
X178204762Y-105080476D01*
X178252381Y-104985238D01*
X178252381Y-104794761D01*
X178204762Y-104699523D01*
X178157143Y-104651904D01*
X178061905Y-104604285D01*
X177871429Y-104604285D01*
X177776190Y-104651904D01*
X177728571Y-104699523D01*
X177680952Y-104794761D01*
X191087143Y-76386666D02*
X191134762Y-76434285D01*
X191182381Y-76577142D01*
X191182381Y-76672380D01*
X191134762Y-76815238D01*
X191039524Y-76910476D01*
X190944286Y-76958095D01*
X190753810Y-77005714D01*
X190610952Y-77005714D01*
X190420476Y-76958095D01*
X190325238Y-76910476D01*
X190230000Y-76815238D01*
X190182381Y-76672380D01*
X190182381Y-76577142D01*
X190230000Y-76434285D01*
X190277619Y-76386666D01*
X191182381Y-75910476D02*
X191182381Y-75720000D01*
X191134762Y-75624761D01*
X191087143Y-75577142D01*
X190944286Y-75481904D01*
X190753810Y-75434285D01*
X190372857Y-75434285D01*
X190277619Y-75481904D01*
X190230000Y-75529523D01*
X190182381Y-75624761D01*
X190182381Y-75815238D01*
X190230000Y-75910476D01*
X190277619Y-75958095D01*
X190372857Y-76005714D01*
X190610952Y-76005714D01*
X190706190Y-75958095D01*
X190753810Y-75910476D01*
X190801429Y-75815238D01*
X190801429Y-75624761D01*
X190753810Y-75529523D01*
X190706190Y-75481904D01*
X190610952Y-75434285D01*
X191397143Y-60817143D02*
X191349524Y-60864762D01*
X191206667Y-60912381D01*
X191111429Y-60912381D01*
X190968571Y-60864762D01*
X190873333Y-60769524D01*
X190825714Y-60674286D01*
X190778095Y-60483810D01*
X190778095Y-60340952D01*
X190825714Y-60150476D01*
X190873333Y-60055238D01*
X190968571Y-59960000D01*
X191111429Y-59912381D01*
X191206667Y-59912381D01*
X191349524Y-59960000D01*
X191397143Y-60007619D01*
X192349524Y-60912381D02*
X191778095Y-60912381D01*
X192063809Y-60912381D02*
X192063809Y-59912381D01*
X191968571Y-60055238D01*
X191873333Y-60150476D01*
X191778095Y-60198095D01*
X193301905Y-60912381D02*
X192730476Y-60912381D01*
X193016190Y-60912381D02*
X193016190Y-59912381D01*
X192920952Y-60055238D01*
X192825714Y-60150476D01*
X192730476Y-60198095D01*
X156857143Y-75057143D02*
X156809524Y-75104762D01*
X156666667Y-75152381D01*
X156571429Y-75152381D01*
X156428571Y-75104762D01*
X156333333Y-75009524D01*
X156285714Y-74914286D01*
X156238095Y-74723810D01*
X156238095Y-74580952D01*
X156285714Y-74390476D01*
X156333333Y-74295238D01*
X156428571Y-74200000D01*
X156571429Y-74152381D01*
X156666667Y-74152381D01*
X156809524Y-74200000D01*
X156857143Y-74247619D01*
X157809524Y-75152381D02*
X157238095Y-75152381D01*
X157523809Y-75152381D02*
X157523809Y-74152381D01*
X157428571Y-74295238D01*
X157333333Y-74390476D01*
X157238095Y-74438095D01*
X158190476Y-74247619D02*
X158238095Y-74200000D01*
X158333333Y-74152381D01*
X158571429Y-74152381D01*
X158666667Y-74200000D01*
X158714286Y-74247619D01*
X158761905Y-74342857D01*
X158761905Y-74438095D01*
X158714286Y-74580952D01*
X158142857Y-75152381D01*
X158761905Y-75152381D01*
X64993810Y-74382381D02*
X64993810Y-73382381D01*
X65993810Y-74382381D02*
X65422381Y-74382381D01*
X65708095Y-74382381D02*
X65708095Y-73382381D01*
X65612857Y-73525238D01*
X65517619Y-73620476D01*
X65422381Y-73668095D01*
X64993810Y-88352381D02*
X64993810Y-87352381D01*
X65422381Y-87447619D02*
X65470000Y-87400000D01*
X65565238Y-87352381D01*
X65803334Y-87352381D01*
X65898572Y-87400000D01*
X65946191Y-87447619D01*
X65993810Y-87542857D01*
X65993810Y-87638095D01*
X65946191Y-87780952D01*
X65374762Y-88352381D01*
X65993810Y-88352381D01*
X161123334Y-44422381D02*
X160647143Y-44422381D01*
X160647143Y-43422381D01*
X161980477Y-44422381D02*
X161409048Y-44422381D01*
X161694762Y-44422381D02*
X161694762Y-43422381D01*
X161599524Y-43565238D01*
X161504286Y-43660476D01*
X161409048Y-43708095D01*
X208278571Y-79192381D02*
X208469048Y-79192381D01*
X208564286Y-79240000D01*
X208659524Y-79335238D01*
X208707143Y-79525714D01*
X208707143Y-79859048D01*
X208659524Y-80049524D01*
X208564286Y-80144762D01*
X208469048Y-80192381D01*
X208278571Y-80192381D01*
X208183333Y-80144762D01*
X208088095Y-80049524D01*
X208040476Y-79859048D01*
X208040476Y-79525714D01*
X208088095Y-79335238D01*
X208183333Y-79240000D01*
X208278571Y-79192381D01*
X209659524Y-80192381D02*
X209088095Y-80192381D01*
X209373809Y-80192381D02*
X209373809Y-79192381D01*
X209278571Y-79335238D01*
X209183333Y-79430476D01*
X209088095Y-79478095D01*
X208278571Y-93162381D02*
X208469048Y-93162381D01*
X208564286Y-93210000D01*
X208659524Y-93305238D01*
X208707143Y-93495714D01*
X208707143Y-93829048D01*
X208659524Y-94019524D01*
X208564286Y-94114762D01*
X208469048Y-94162381D01*
X208278571Y-94162381D01*
X208183333Y-94114762D01*
X208088095Y-94019524D01*
X208040476Y-93829048D01*
X208040476Y-93495714D01*
X208088095Y-93305238D01*
X208183333Y-93210000D01*
X208278571Y-93162381D01*
X209088095Y-93257619D02*
X209135714Y-93210000D01*
X209230952Y-93162381D01*
X209469048Y-93162381D01*
X209564286Y-93210000D01*
X209611905Y-93257619D01*
X209659524Y-93352857D01*
X209659524Y-93448095D01*
X209611905Y-93590952D01*
X209040476Y-94162381D01*
X209659524Y-94162381D01*
X94511905Y-68242381D02*
X94511905Y-67242381D01*
X94892858Y-67242381D01*
X94988096Y-67290000D01*
X95035715Y-67337619D01*
X95083334Y-67432857D01*
X95083334Y-67575714D01*
X95035715Y-67670952D01*
X94988096Y-67718571D01*
X94892858Y-67766190D01*
X94511905Y-67766190D01*
X96035715Y-68242381D02*
X95464286Y-68242381D01*
X95750000Y-68242381D02*
X95750000Y-67242381D01*
X95654762Y-67385238D01*
X95559524Y-67480476D01*
X95464286Y-67528095D01*
D14*
X121694331Y-71811892D02*
X121694331Y-70810542D01*
X122075797Y-70810542D01*
X122171164Y-70858225D01*
X122218847Y-70905908D01*
X122266531Y-71001275D01*
X122266531Y-71144325D01*
X122218847Y-71239692D01*
X122171164Y-71287375D01*
X122075797Y-71335058D01*
X121694331Y-71335058D01*
X122600314Y-70810542D02*
X122838731Y-71811892D01*
X123029464Y-71096642D01*
X123220197Y-71811892D01*
X123458614Y-70810542D01*
X123840081Y-71811892D02*
X123840081Y-70810542D01*
X124173864Y-71525792D01*
X124507647Y-70810542D01*
X124507647Y-71811892D01*
X124984481Y-71811892D02*
X124984481Y-70810542D01*
X125222897Y-70810542D01*
X125365947Y-70858225D01*
X125461314Y-70953592D01*
X125508997Y-71048958D01*
X125556681Y-71239692D01*
X125556681Y-71382742D01*
X125508997Y-71573475D01*
X125461314Y-71668842D01*
X125365947Y-71764208D01*
X125222897Y-71811892D01*
X124984481Y-71811892D01*
X126510347Y-71811892D02*
X125938147Y-71811892D01*
X126224247Y-71811892D02*
X126224247Y-70810542D01*
X126128881Y-70953592D01*
X126033514Y-71048958D01*
X125938147Y-71096642D01*
X124913623Y-80392725D02*
X124913623Y-80870225D01*
X123910873Y-80870225D01*
X124913623Y-80058475D02*
X123910873Y-80058475D01*
X124627123Y-79724225D01*
X123910873Y-79389975D01*
X124913623Y-79389975D01*
X123910873Y-79007975D02*
X123910873Y-78387225D01*
X124292873Y-78721475D01*
X124292873Y-78578225D01*
X124340623Y-78482725D01*
X124388373Y-78434975D01*
X124483873Y-78387225D01*
X124722623Y-78387225D01*
X124818123Y-78434975D01*
X124865873Y-78482725D01*
X124913623Y-78578225D01*
X124913623Y-78864725D01*
X124865873Y-78960225D01*
X124818123Y-79007975D01*
X123910873Y-77479975D02*
X123910873Y-77957475D01*
X124388373Y-78005225D01*
X124340623Y-77957475D01*
X124292873Y-77861975D01*
X124292873Y-77623225D01*
X124340623Y-77527725D01*
X124388373Y-77479975D01*
X124483873Y-77432225D01*
X124722623Y-77432225D01*
X124818123Y-77479975D01*
X124865873Y-77527725D01*
X124913623Y-77623225D01*
X124913623Y-77861975D01*
X124865873Y-77957475D01*
X124818123Y-78005225D01*
X124006373Y-77050225D02*
X123958623Y-77002475D01*
X123910873Y-76906975D01*
X123910873Y-76668225D01*
X123958623Y-76572725D01*
X124006373Y-76524975D01*
X124101873Y-76477225D01*
X124197373Y-76477225D01*
X124340623Y-76524975D01*
X124913623Y-77097975D01*
X124913623Y-76477225D01*
X124245123Y-75617725D02*
X124913623Y-75617725D01*
X123863123Y-75856475D02*
X124579373Y-76095225D01*
X124579373Y-75474475D01*
D13*
X105243334Y-82772381D02*
X104910000Y-82296190D01*
X104671905Y-82772381D02*
X104671905Y-81772381D01*
X105052858Y-81772381D01*
X105148096Y-81820000D01*
X105195715Y-81867619D01*
X105243334Y-81962857D01*
X105243334Y-82105714D01*
X105195715Y-82200952D01*
X105148096Y-82248571D01*
X105052858Y-82296190D01*
X104671905Y-82296190D01*
X106195715Y-82772381D02*
X105624286Y-82772381D01*
X105910000Y-82772381D02*
X105910000Y-81772381D01*
X105814762Y-81915238D01*
X105719524Y-82010476D01*
X105624286Y-82058095D01*
X96742381Y-94146666D02*
X96266190Y-94480000D01*
X96742381Y-94718095D02*
X95742381Y-94718095D01*
X95742381Y-94337142D01*
X95790000Y-94241904D01*
X95837619Y-94194285D01*
X95932857Y-94146666D01*
X96075714Y-94146666D01*
X96170952Y-94194285D01*
X96218571Y-94241904D01*
X96266190Y-94337142D01*
X96266190Y-94718095D01*
X95837619Y-93765714D02*
X95790000Y-93718095D01*
X95742381Y-93622857D01*
X95742381Y-93384761D01*
X95790000Y-93289523D01*
X95837619Y-93241904D01*
X95932857Y-93194285D01*
X96028095Y-93194285D01*
X96170952Y-93241904D01*
X96742381Y-93813333D01*
X96742381Y-93194285D01*
X119213334Y-97202381D02*
X118880000Y-96726190D01*
X118641905Y-97202381D02*
X118641905Y-96202381D01*
X119022858Y-96202381D01*
X119118096Y-96250000D01*
X119165715Y-96297619D01*
X119213334Y-96392857D01*
X119213334Y-96535714D01*
X119165715Y-96630952D01*
X119118096Y-96678571D01*
X119022858Y-96726190D01*
X118641905Y-96726190D01*
X119546667Y-96202381D02*
X120165715Y-96202381D01*
X119832381Y-96583333D01*
X119975239Y-96583333D01*
X120070477Y-96630952D01*
X120118096Y-96678571D01*
X120165715Y-96773810D01*
X120165715Y-97011905D01*
X120118096Y-97107143D01*
X120070477Y-97154762D01*
X119975239Y-97202381D01*
X119689524Y-97202381D01*
X119594286Y-97154762D01*
X119546667Y-97107143D01*
X159932381Y-84196666D02*
X159456190Y-84530000D01*
X159932381Y-84768095D02*
X158932381Y-84768095D01*
X158932381Y-84387142D01*
X158980000Y-84291904D01*
X159027619Y-84244285D01*
X159122857Y-84196666D01*
X159265714Y-84196666D01*
X159360952Y-84244285D01*
X159408571Y-84291904D01*
X159456190Y-84387142D01*
X159456190Y-84768095D01*
X159265714Y-83339523D02*
X159932381Y-83339523D01*
X158884762Y-83577619D02*
X159599048Y-83815714D01*
X159599048Y-83196666D01*
X138652381Y-83986666D02*
X138176190Y-84320000D01*
X138652381Y-84558095D02*
X137652381Y-84558095D01*
X137652381Y-84177142D01*
X137700000Y-84081904D01*
X137747619Y-84034285D01*
X137842857Y-83986666D01*
X137985714Y-83986666D01*
X138080952Y-84034285D01*
X138128571Y-84081904D01*
X138176190Y-84177142D01*
X138176190Y-84558095D01*
X137652381Y-83081904D02*
X137652381Y-83558095D01*
X138128571Y-83605714D01*
X138080952Y-83558095D01*
X138033333Y-83462857D01*
X138033333Y-83224761D01*
X138080952Y-83129523D01*
X138128571Y-83081904D01*
X138223810Y-83034285D01*
X138461905Y-83034285D01*
X138557143Y-83081904D01*
X138604762Y-83129523D01*
X138652381Y-83224761D01*
X138652381Y-83462857D01*
X138604762Y-83558095D01*
X138557143Y-83605714D01*
X91273334Y-109902381D02*
X90940000Y-109426190D01*
X90701905Y-109902381D02*
X90701905Y-108902381D01*
X91082858Y-108902381D01*
X91178096Y-108950000D01*
X91225715Y-108997619D01*
X91273334Y-109092857D01*
X91273334Y-109235714D01*
X91225715Y-109330952D01*
X91178096Y-109378571D01*
X91082858Y-109426190D01*
X90701905Y-109426190D01*
X92130477Y-108902381D02*
X91940000Y-108902381D01*
X91844762Y-108950000D01*
X91797143Y-108997619D01*
X91701905Y-109140476D01*
X91654286Y-109330952D01*
X91654286Y-109711905D01*
X91701905Y-109807143D01*
X91749524Y-109854762D01*
X91844762Y-109902381D01*
X92035239Y-109902381D01*
X92130477Y-109854762D01*
X92178096Y-109807143D01*
X92225715Y-109711905D01*
X92225715Y-109473810D01*
X92178096Y-109378571D01*
X92130477Y-109330952D01*
X92035239Y-109283333D01*
X91844762Y-109283333D01*
X91749524Y-109330952D01*
X91701905Y-109378571D01*
X91654286Y-109473810D01*
X108172381Y-111926666D02*
X107696190Y-112260000D01*
X108172381Y-112498095D02*
X107172381Y-112498095D01*
X107172381Y-112117142D01*
X107220000Y-112021904D01*
X107267619Y-111974285D01*
X107362857Y-111926666D01*
X107505714Y-111926666D01*
X107600952Y-111974285D01*
X107648571Y-112021904D01*
X107696190Y-112117142D01*
X107696190Y-112498095D01*
X107172381Y-111593333D02*
X107172381Y-110926666D01*
X108172381Y-111355238D01*
X137732381Y-108116666D02*
X137256190Y-108450000D01*
X137732381Y-108688095D02*
X136732381Y-108688095D01*
X136732381Y-108307142D01*
X136780000Y-108211904D01*
X136827619Y-108164285D01*
X136922857Y-108116666D01*
X137065714Y-108116666D01*
X137160952Y-108164285D01*
X137208571Y-108211904D01*
X137256190Y-108307142D01*
X137256190Y-108688095D01*
X137160952Y-107545238D02*
X137113333Y-107640476D01*
X137065714Y-107688095D01*
X136970476Y-107735714D01*
X136922857Y-107735714D01*
X136827619Y-107688095D01*
X136780000Y-107640476D01*
X136732381Y-107545238D01*
X136732381Y-107354761D01*
X136780000Y-107259523D01*
X136827619Y-107211904D01*
X136922857Y-107164285D01*
X136970476Y-107164285D01*
X137065714Y-107211904D01*
X137113333Y-107259523D01*
X137160952Y-107354761D01*
X137160952Y-107545238D01*
X137208571Y-107640476D01*
X137256190Y-107688095D01*
X137351429Y-107735714D01*
X137541905Y-107735714D01*
X137637143Y-107688095D01*
X137684762Y-107640476D01*
X137732381Y-107545238D01*
X137732381Y-107354761D01*
X137684762Y-107259523D01*
X137637143Y-107211904D01*
X137541905Y-107164285D01*
X137351429Y-107164285D01*
X137256190Y-107211904D01*
X137208571Y-107259523D01*
X137160952Y-107354761D01*
X171283334Y-120872381D02*
X170950000Y-120396190D01*
X170711905Y-120872381D02*
X170711905Y-119872381D01*
X171092858Y-119872381D01*
X171188096Y-119920000D01*
X171235715Y-119967619D01*
X171283334Y-120062857D01*
X171283334Y-120205714D01*
X171235715Y-120300952D01*
X171188096Y-120348571D01*
X171092858Y-120396190D01*
X170711905Y-120396190D01*
X171759524Y-120872381D02*
X171950000Y-120872381D01*
X172045239Y-120824762D01*
X172092858Y-120777143D01*
X172188096Y-120634286D01*
X172235715Y-120443810D01*
X172235715Y-120062857D01*
X172188096Y-119967619D01*
X172140477Y-119920000D01*
X172045239Y-119872381D01*
X171854762Y-119872381D01*
X171759524Y-119920000D01*
X171711905Y-119967619D01*
X171664286Y-120062857D01*
X171664286Y-120300952D01*
X171711905Y-120396190D01*
X171759524Y-120443810D01*
X171854762Y-120491429D01*
X172045239Y-120491429D01*
X172140477Y-120443810D01*
X172188096Y-120396190D01*
X172235715Y-120300952D01*
X184777143Y-125952381D02*
X184443809Y-125476190D01*
X184205714Y-125952381D02*
X184205714Y-124952381D01*
X184586667Y-124952381D01*
X184681905Y-125000000D01*
X184729524Y-125047619D01*
X184777143Y-125142857D01*
X184777143Y-125285714D01*
X184729524Y-125380952D01*
X184681905Y-125428571D01*
X184586667Y-125476190D01*
X184205714Y-125476190D01*
X185729524Y-125952381D02*
X185158095Y-125952381D01*
X185443809Y-125952381D02*
X185443809Y-124952381D01*
X185348571Y-125095238D01*
X185253333Y-125190476D01*
X185158095Y-125238095D01*
X186348571Y-124952381D02*
X186443810Y-124952381D01*
X186539048Y-125000000D01*
X186586667Y-125047619D01*
X186634286Y-125142857D01*
X186681905Y-125333333D01*
X186681905Y-125571429D01*
X186634286Y-125761905D01*
X186586667Y-125857143D01*
X186539048Y-125904762D01*
X186443810Y-125952381D01*
X186348571Y-125952381D01*
X186253333Y-125904762D01*
X186205714Y-125857143D01*
X186158095Y-125761905D01*
X186110476Y-125571429D01*
X186110476Y-125333333D01*
X186158095Y-125142857D01*
X186205714Y-125047619D01*
X186253333Y-125000000D01*
X186348571Y-124952381D01*
X169537143Y-92932381D02*
X169203809Y-92456190D01*
X168965714Y-92932381D02*
X168965714Y-91932381D01*
X169346667Y-91932381D01*
X169441905Y-91980000D01*
X169489524Y-92027619D01*
X169537143Y-92122857D01*
X169537143Y-92265714D01*
X169489524Y-92360952D01*
X169441905Y-92408571D01*
X169346667Y-92456190D01*
X168965714Y-92456190D01*
X170489524Y-92932381D02*
X169918095Y-92932381D01*
X170203809Y-92932381D02*
X170203809Y-91932381D01*
X170108571Y-92075238D01*
X170013333Y-92170476D01*
X169918095Y-92218095D01*
X171441905Y-92932381D02*
X170870476Y-92932381D01*
X171156190Y-92932381D02*
X171156190Y-91932381D01*
X171060952Y-92075238D01*
X170965714Y-92170476D01*
X170870476Y-92218095D01*
X191127143Y-108632381D02*
X190793809Y-108156190D01*
X190555714Y-108632381D02*
X190555714Y-107632381D01*
X190936667Y-107632381D01*
X191031905Y-107680000D01*
X191079524Y-107727619D01*
X191127143Y-107822857D01*
X191127143Y-107965714D01*
X191079524Y-108060952D01*
X191031905Y-108108571D01*
X190936667Y-108156190D01*
X190555714Y-108156190D01*
X192079524Y-108632381D02*
X191508095Y-108632381D01*
X191793809Y-108632381D02*
X191793809Y-107632381D01*
X191698571Y-107775238D01*
X191603333Y-107870476D01*
X191508095Y-107918095D01*
X192460476Y-107727619D02*
X192508095Y-107680000D01*
X192603333Y-107632381D01*
X192841429Y-107632381D01*
X192936667Y-107680000D01*
X192984286Y-107727619D01*
X193031905Y-107822857D01*
X193031905Y-107918095D01*
X192984286Y-108060952D01*
X192412857Y-108632381D01*
X193031905Y-108632381D01*
X187317143Y-100552381D02*
X186983809Y-100076190D01*
X186745714Y-100552381D02*
X186745714Y-99552381D01*
X187126667Y-99552381D01*
X187221905Y-99600000D01*
X187269524Y-99647619D01*
X187317143Y-99742857D01*
X187317143Y-99885714D01*
X187269524Y-99980952D01*
X187221905Y-100028571D01*
X187126667Y-100076190D01*
X186745714Y-100076190D01*
X188269524Y-100552381D02*
X187698095Y-100552381D01*
X187983809Y-100552381D02*
X187983809Y-99552381D01*
X187888571Y-99695238D01*
X187793333Y-99790476D01*
X187698095Y-99838095D01*
X188602857Y-99552381D02*
X189221905Y-99552381D01*
X188888571Y-99933333D01*
X189031429Y-99933333D01*
X189126667Y-99980952D01*
X189174286Y-100028571D01*
X189221905Y-100123810D01*
X189221905Y-100361905D01*
X189174286Y-100457143D01*
X189126667Y-100504762D01*
X189031429Y-100552381D01*
X188745714Y-100552381D01*
X188650476Y-100504762D01*
X188602857Y-100457143D01*
X158682381Y-105449524D02*
X159682381Y-105116191D01*
X158682381Y-104782857D01*
X159682381Y-104449524D02*
X158682381Y-104449524D01*
X158682381Y-104211429D01*
X158730000Y-104068571D01*
X158825238Y-103973333D01*
X158920476Y-103925714D01*
X159110952Y-103878095D01*
X159253810Y-103878095D01*
X159444286Y-103925714D01*
X159539524Y-103973333D01*
X159634762Y-104068571D01*
X159682381Y-104211429D01*
X159682381Y-104449524D01*
X159682381Y-102925714D02*
X159682381Y-103497143D01*
X159682381Y-103211429D02*
X158682381Y-103211429D01*
X158825238Y-103306667D01*
X158920476Y-103401905D01*
X158968095Y-103497143D01*
X154900476Y-58022381D02*
X155233809Y-59022381D01*
X155567143Y-58022381D01*
X155900476Y-59022381D02*
X155900476Y-58022381D01*
X156138571Y-58022381D01*
X156281429Y-58070000D01*
X156376667Y-58165238D01*
X156424286Y-58260476D01*
X156471905Y-58450952D01*
X156471905Y-58593810D01*
X156424286Y-58784286D01*
X156376667Y-58879524D01*
X156281429Y-58974762D01*
X156138571Y-59022381D01*
X155900476Y-59022381D01*
X156852857Y-58117619D02*
X156900476Y-58070000D01*
X156995714Y-58022381D01*
X157233810Y-58022381D01*
X157329048Y-58070000D01*
X157376667Y-58117619D01*
X157424286Y-58212857D01*
X157424286Y-58308095D01*
X157376667Y-58450952D01*
X156805238Y-59022381D01*
X157424286Y-59022381D01*
X174069524Y-58122381D02*
X174402857Y-59122381D01*
X174736191Y-58122381D01*
X174926667Y-58122381D02*
X175498096Y-58122381D01*
X175212381Y-59122381D02*
X175212381Y-58122381D01*
X176355239Y-59122381D02*
X175783810Y-59122381D01*
X176069524Y-59122381D02*
X176069524Y-58122381D01*
X175974286Y-58265238D01*
X175879048Y-58360476D01*
X175783810Y-58408095D01*
X170259524Y-72032381D02*
X170592857Y-73032381D01*
X170926191Y-72032381D01*
X171116667Y-72032381D02*
X171688096Y-72032381D01*
X171402381Y-73032381D02*
X171402381Y-72032381D01*
X171973810Y-72127619D02*
X172021429Y-72080000D01*
X172116667Y-72032381D01*
X172354763Y-72032381D01*
X172450001Y-72080000D01*
X172497620Y-72127619D01*
X172545239Y-72222857D01*
X172545239Y-72318095D01*
X172497620Y-72460952D01*
X171926191Y-73032381D01*
X172545239Y-73032381D01*
M02*
