G04 #@! TF.FileFunction,Other,User*
%FSLAX46Y46*%
G04 Gerber Fmt 4.6, Leading zero omitted, Abs format (unit mm)*
G04 Created by KiCad (PCBNEW 4.0.7) date 09/14/18 10:33:28*
%MOMM*%
%LPD*%
G01*
G04 APERTURE LIST*
%ADD10C,0.100000*%
%ADD11C,0.050000*%
G04 APERTURE END LIST*
D10*
D11*
X134890000Y-45410000D02*
X124190000Y-45410000D01*
X124190000Y-45410000D02*
X124190000Y-56110000D01*
X124190000Y-56110000D02*
X134890000Y-56110000D01*
X134890000Y-56110000D02*
X134890000Y-45410000D01*
X123270000Y-59910000D02*
X120570000Y-59910000D01*
X120570000Y-59910000D02*
X120570000Y-64510000D01*
X120570000Y-64510000D02*
X123270000Y-64510000D01*
X123270000Y-64510000D02*
X123270000Y-59910000D01*
X135810000Y-54800000D02*
X135810000Y-59500000D01*
X135810000Y-59500000D02*
X140510000Y-59500000D01*
X140510000Y-59500000D02*
X140510000Y-54800000D01*
X140510000Y-54800000D02*
X135810000Y-54800000D01*
X136110000Y-69770000D02*
X136110000Y-72470000D01*
X136110000Y-72470000D02*
X140710000Y-72470000D01*
X140710000Y-72470000D02*
X140710000Y-69770000D01*
X140710000Y-69770000D02*
X136110000Y-69770000D01*
X92930000Y-120570000D02*
X92930000Y-123270000D01*
X92930000Y-123270000D02*
X97530000Y-123270000D01*
X97530000Y-123270000D02*
X97530000Y-120570000D01*
X97530000Y-120570000D02*
X92930000Y-120570000D01*
X113360000Y-87850000D02*
X110160000Y-87850000D01*
X110160000Y-87850000D02*
X110160000Y-94950000D01*
X110160000Y-94950000D02*
X113360000Y-94950000D01*
X113360000Y-94950000D02*
X113360000Y-87850000D01*
X123160000Y-112810000D02*
X125760000Y-112810000D01*
X125760000Y-112810000D02*
X125760000Y-105710000D01*
X125760000Y-105710000D02*
X123160000Y-105710000D01*
X123160000Y-105710000D02*
X123160000Y-112810000D01*
X176840000Y-102540000D02*
X171140000Y-102540000D01*
X171140000Y-102540000D02*
X171140000Y-108240000D01*
X171140000Y-108240000D02*
X176840000Y-108240000D01*
X176840000Y-108240000D02*
X176840000Y-102540000D01*
X191690000Y-78520000D02*
X194390000Y-78520000D01*
X194390000Y-78520000D02*
X194390000Y-73920000D01*
X194390000Y-73920000D02*
X191690000Y-73920000D01*
X191690000Y-73920000D02*
X191690000Y-78520000D01*
X194390000Y-59500000D02*
X194390000Y-54800000D01*
X194390000Y-54800000D02*
X189690000Y-54800000D01*
X189690000Y-54800000D02*
X189690000Y-59500000D01*
X189690000Y-59500000D02*
X194390000Y-59500000D01*
X159800000Y-73740000D02*
X159800000Y-71040000D01*
X159800000Y-71040000D02*
X155200000Y-71040000D01*
X155200000Y-71040000D02*
X155200000Y-73740000D01*
X155200000Y-73740000D02*
X159800000Y-73740000D01*
X71650000Y-74400000D02*
X71650000Y-78000000D01*
X71650000Y-78000000D02*
X59300000Y-78000000D01*
X59300000Y-78000000D02*
X59300000Y-74400000D01*
X59300000Y-74400000D02*
X71650000Y-74400000D01*
X71650000Y-88370000D02*
X71650000Y-91970000D01*
X71650000Y-91970000D02*
X59300000Y-91970000D01*
X59300000Y-91970000D02*
X59300000Y-88370000D01*
X59300000Y-88370000D02*
X71650000Y-88370000D01*
X144600000Y-44680000D02*
X144600000Y-54380000D01*
X144600000Y-54380000D02*
X178000000Y-54380000D01*
X178000000Y-54380000D02*
X178000000Y-44680000D01*
X178000000Y-44680000D02*
X144600000Y-44680000D01*
X202670000Y-79270000D02*
X202670000Y-75670000D01*
X202670000Y-75670000D02*
X215020000Y-75670000D01*
X215020000Y-75670000D02*
X215020000Y-79270000D01*
X215020000Y-79270000D02*
X202670000Y-79270000D01*
X202670000Y-93240000D02*
X202670000Y-89640000D01*
X202670000Y-89640000D02*
X215020000Y-89640000D01*
X215020000Y-89640000D02*
X215020000Y-93240000D01*
X215020000Y-93240000D02*
X202670000Y-93240000D01*
X110670000Y-67080000D02*
X110670000Y-57380000D01*
X110670000Y-57380000D02*
X79820000Y-57380000D01*
X79820000Y-57380000D02*
X79820000Y-67080000D01*
X79820000Y-67080000D02*
X110670000Y-67080000D01*
X114080000Y-81610000D02*
X114080000Y-78410000D01*
X114080000Y-78410000D02*
X96730000Y-78410000D01*
X96730000Y-78410000D02*
X96730000Y-81610000D01*
X96730000Y-81610000D02*
X114080000Y-81610000D01*
X95580000Y-85310000D02*
X92380000Y-85310000D01*
X92380000Y-85310000D02*
X92380000Y-102660000D01*
X92380000Y-102660000D02*
X95580000Y-102660000D01*
X95580000Y-102660000D02*
X95580000Y-85310000D01*
X110710000Y-97460000D02*
X110710000Y-100660000D01*
X110710000Y-100660000D02*
X128060000Y-100660000D01*
X128060000Y-100660000D02*
X128060000Y-97460000D01*
X128060000Y-97460000D02*
X110710000Y-97460000D01*
X158480000Y-80730000D02*
X141080000Y-80730000D01*
X141080000Y-80730000D02*
X141080000Y-140580000D01*
X141080000Y-140580000D02*
X158480000Y-140580000D01*
X158480000Y-140580000D02*
X158480000Y-80730000D01*
X137490000Y-75150000D02*
X134290000Y-75150000D01*
X134290000Y-75150000D02*
X134290000Y-92500000D01*
X134290000Y-92500000D02*
X137490000Y-92500000D01*
X137490000Y-92500000D02*
X137490000Y-75150000D01*
X82770000Y-110160000D02*
X82770000Y-113360000D01*
X82770000Y-113360000D02*
X100120000Y-113360000D01*
X100120000Y-113360000D02*
X100120000Y-110160000D01*
X100120000Y-110160000D02*
X82770000Y-110160000D01*
X107010000Y-103090000D02*
X103810000Y-103090000D01*
X103810000Y-103090000D02*
X103810000Y-120440000D01*
X103810000Y-120440000D02*
X107010000Y-120440000D01*
X107010000Y-120440000D02*
X107010000Y-103090000D01*
X136570000Y-96740000D02*
X132670000Y-96740000D01*
X132670000Y-96740000D02*
X132670000Y-119190000D01*
X132670000Y-119190000D02*
X136570000Y-119190000D01*
X136570000Y-119190000D02*
X136570000Y-96740000D01*
X180120000Y-119710000D02*
X180120000Y-116510000D01*
X180120000Y-116510000D02*
X162770000Y-116510000D01*
X162770000Y-116510000D02*
X162770000Y-119710000D01*
X162770000Y-119710000D02*
X180120000Y-119710000D01*
X194090000Y-124790000D02*
X194090000Y-121590000D01*
X194090000Y-121590000D02*
X176740000Y-121590000D01*
X176740000Y-121590000D02*
X176740000Y-124790000D01*
X176740000Y-124790000D02*
X194090000Y-124790000D01*
X178850000Y-91770000D02*
X178850000Y-88570000D01*
X178850000Y-88570000D02*
X161500000Y-88570000D01*
X161500000Y-88570000D02*
X161500000Y-91770000D01*
X161500000Y-91770000D02*
X178850000Y-91770000D01*
X183100000Y-108890000D02*
X183100000Y-112090000D01*
X183100000Y-112090000D02*
X200450000Y-112090000D01*
X200450000Y-112090000D02*
X200450000Y-108890000D01*
X200450000Y-108890000D02*
X183100000Y-108890000D01*
X196630000Y-99390000D02*
X196630000Y-96190000D01*
X196630000Y-96190000D02*
X179280000Y-96190000D01*
X179280000Y-96190000D02*
X179280000Y-99390000D01*
X179280000Y-99390000D02*
X196630000Y-99390000D01*
X159940000Y-111540000D02*
X162640000Y-111540000D01*
X162640000Y-111540000D02*
X162640000Y-96740000D01*
X162640000Y-96740000D02*
X159940000Y-96740000D01*
X159940000Y-96740000D02*
X159940000Y-111540000D01*
X146740000Y-59280000D02*
X146740000Y-65180000D01*
X146740000Y-65180000D02*
X165690000Y-65180000D01*
X165690000Y-65180000D02*
X165690000Y-59280000D01*
X165690000Y-59280000D02*
X146740000Y-59280000D01*
X172530000Y-59500000D02*
X177990000Y-59500000D01*
X172530000Y-59500000D02*
X172530000Y-64240000D01*
X177990000Y-64240000D02*
X177990000Y-59500000D01*
X177990000Y-64240000D02*
X172530000Y-64240000D01*
X166200000Y-73450000D02*
X166200000Y-78360000D01*
X166200000Y-78360000D02*
X176700000Y-78360000D01*
X176700000Y-78360000D02*
X176700000Y-73450000D01*
X176700000Y-73450000D02*
X166200000Y-73450000D01*
X70560000Y-43180000D02*
G75*
G03X70560000Y-43180000I-3250000J0D01*
G01*
X70560000Y-127000000D02*
G75*
G03X70560000Y-127000000I-3250000J0D01*
G01*
X210260000Y-127000000D02*
G75*
G03X210260000Y-127000000I-3250000J0D01*
G01*
X210260000Y-43180000D02*
G75*
G03X210260000Y-43180000I-3250000J0D01*
G01*
M02*
