G04 #@! TF.FileFunction,Soldermask,Bot*
%FSLAX46Y46*%
G04 Gerber Fmt 4.6, Leading zero omitted, Abs format (unit mm)*
G04 Created by KiCad (PCBNEW 4.0.7) date 09/14/18 10:33:28*
%MOMM*%
%LPD*%
G01*
G04 APERTURE LIST*
%ADD10C,0.100000*%
%ADD11R,2.000000X2.000000*%
%ADD12C,2.000000*%
%ADD13C,1.600000*%
%ADD14R,1.200000X1.200000*%
%ADD15C,1.200000*%
%ADD16R,1.600000X1.600000*%
%ADD17R,1.700000X1.700000*%
%ADD18C,2.400000*%
%ADD19O,2.400000X2.400000*%
%ADD20O,2.641600X1.320800*%
%ADD21O,1.600000X1.600000*%
%ADD22C,2.340000*%
%ADD23R,3.200000X3.200000*%
%ADD24O,3.200000X3.200000*%
%ADD25C,1.000000*%
%ADD26R,1.000000X1.000000*%
%ADD27R,1.800000X1.800000*%
%ADD28O,1.800000X1.800000*%
%ADD29C,3.000000*%
G04 APERTURE END LIST*
D10*
D11*
X129540000Y-48260000D03*
D12*
X129540000Y-53260000D03*
D13*
X121920000Y-60960000D03*
X121920000Y-63460000D03*
D14*
X137160000Y-57150000D03*
D15*
X139160000Y-57150000D03*
D13*
X137160000Y-71120000D03*
X139660000Y-71120000D03*
X93980000Y-121920000D03*
X96480000Y-121920000D03*
X111760000Y-88900000D03*
X111760000Y-93900000D03*
X124460000Y-111760000D03*
X124460000Y-106760000D03*
D16*
X173990000Y-104140000D03*
D13*
X173990000Y-106640000D03*
X193040000Y-77470000D03*
X193040000Y-74970000D03*
D14*
X193040000Y-57150000D03*
D15*
X191040000Y-57150000D03*
D13*
X158750000Y-72390000D03*
X156250000Y-72390000D03*
D17*
X69850000Y-76200000D03*
X69850000Y-90170000D03*
D18*
X146050000Y-49530000D03*
D19*
X176530000Y-49530000D03*
D17*
X204470000Y-77470000D03*
X204470000Y-91440000D03*
D18*
X109220000Y-62230000D03*
D19*
X81280000Y-62230000D03*
D20*
X120650000Y-73660000D03*
X120650000Y-76200000D03*
X120650000Y-88900000D03*
X120650000Y-91440000D03*
X120650000Y-78740000D03*
X120650000Y-81280000D03*
X120650000Y-86360000D03*
X120650000Y-83820000D03*
X128270000Y-91440000D03*
X128270000Y-88900000D03*
X128270000Y-86360000D03*
X128270000Y-83820000D03*
X128270000Y-81280000D03*
X128270000Y-78740000D03*
X128270000Y-76200000D03*
X128270000Y-73660000D03*
D13*
X113030000Y-80010000D03*
D21*
X97790000Y-80010000D03*
D13*
X93980000Y-86360000D03*
D21*
X93980000Y-101600000D03*
D13*
X111760000Y-99060000D03*
D21*
X127000000Y-99060000D03*
D22*
X154780000Y-87630000D03*
X149780000Y-87630000D03*
X144780000Y-87630000D03*
D13*
X135890000Y-76200000D03*
D21*
X135890000Y-91440000D03*
D13*
X83820000Y-111760000D03*
D21*
X99060000Y-111760000D03*
D13*
X105410000Y-104140000D03*
D21*
X105410000Y-119380000D03*
D13*
X134620000Y-97790000D03*
D21*
X134620000Y-118110000D03*
D13*
X179070000Y-118110000D03*
D21*
X163830000Y-118110000D03*
D13*
X193040000Y-123190000D03*
D21*
X177800000Y-123190000D03*
D13*
X177800000Y-90170000D03*
D21*
X162560000Y-90170000D03*
D13*
X184150000Y-110490000D03*
D21*
X199390000Y-110490000D03*
D13*
X195580000Y-97790000D03*
D21*
X180340000Y-97790000D03*
D16*
X161290000Y-110490000D03*
D21*
X161290000Y-97790000D03*
D23*
X148590000Y-62230000D03*
D24*
X163830000Y-62230000D03*
D25*
X175260000Y-60960000D03*
X176530000Y-62230000D03*
D26*
X173990000Y-62230000D03*
D27*
X168910000Y-76200000D03*
D28*
X171450000Y-76200000D03*
X173990000Y-76200000D03*
D29*
X67310000Y-43180000D03*
X67310000Y-127000000D03*
X207010000Y-127000000D03*
X207010000Y-43180000D03*
M02*
