G04 #@! TF.FileFunction,Other,Fab,Top*
%FSLAX46Y46*%
G04 Gerber Fmt 4.6, Leading zero omitted, Abs format (unit mm)*
G04 Created by KiCad (PCBNEW 4.0.7) date 09/14/18 10:33:28*
%MOMM*%
%LPD*%
G01*
G04 APERTURE LIST*
%ADD10C,0.100000*%
%ADD11C,0.150000*%
G04 APERTURE END LIST*
D10*
X134540000Y-50760000D02*
G75*
G03X134540000Y-50760000I-5000000J0D01*
G01*
X129540000Y-45560000D02*
X129540000Y-47060000D01*
X130290000Y-46310000D02*
X128790000Y-46310000D01*
X122920000Y-60710000D02*
X120920000Y-60710000D01*
X120920000Y-60710000D02*
X120920000Y-63710000D01*
X120920000Y-63710000D02*
X122920000Y-63710000D01*
X122920000Y-63710000D02*
X122920000Y-60710000D01*
X140160000Y-57150000D02*
G75*
G03X140160000Y-57150000I-2000000J0D01*
G01*
X135460000Y-57150000D02*
X136360000Y-57150000D01*
X135910000Y-56700000D02*
X135910000Y-57600000D01*
X136910000Y-70120000D02*
X136910000Y-72120000D01*
X136910000Y-72120000D02*
X139910000Y-72120000D01*
X139910000Y-72120000D02*
X139910000Y-70120000D01*
X139910000Y-70120000D02*
X136910000Y-70120000D01*
X93730000Y-120920000D02*
X93730000Y-122920000D01*
X93730000Y-122920000D02*
X96730000Y-122920000D01*
X96730000Y-122920000D02*
X96730000Y-120920000D01*
X96730000Y-120920000D02*
X93730000Y-120920000D01*
X113010000Y-88400000D02*
X110510000Y-88400000D01*
X110510000Y-88400000D02*
X110510000Y-94400000D01*
X110510000Y-94400000D02*
X113010000Y-94400000D01*
X113010000Y-94400000D02*
X113010000Y-88400000D01*
X123510000Y-111410000D02*
X125410000Y-111410000D01*
X125410000Y-111410000D02*
X125410000Y-107110000D01*
X125410000Y-107110000D02*
X123510000Y-107110000D01*
X123510000Y-107110000D02*
X123510000Y-111410000D01*
X176490000Y-105390000D02*
G75*
G03X176490000Y-105390000I-2500000J0D01*
G01*
X173990000Y-101940000D02*
X173990000Y-103140000D01*
X174640000Y-102540000D02*
X173340000Y-102540000D01*
X192040000Y-77720000D02*
X194040000Y-77720000D01*
X194040000Y-77720000D02*
X194040000Y-74720000D01*
X194040000Y-74720000D02*
X192040000Y-74720000D01*
X192040000Y-74720000D02*
X192040000Y-77720000D01*
X194040000Y-57150000D02*
G75*
G03X194040000Y-57150000I-2000000J0D01*
G01*
X194740000Y-57150000D02*
X193840000Y-57150000D01*
X194290000Y-57600000D02*
X194290000Y-56700000D01*
X159000000Y-73390000D02*
X159000000Y-71390000D01*
X159000000Y-71390000D02*
X156000000Y-71390000D01*
X156000000Y-71390000D02*
X156000000Y-73390000D01*
X156000000Y-73390000D02*
X159000000Y-73390000D01*
X68330000Y-74930000D02*
X68330000Y-77470000D01*
X68330000Y-77470000D02*
X59820000Y-77470000D01*
X59820000Y-77470000D02*
X59820000Y-74930000D01*
X59820000Y-74930000D02*
X68330000Y-74930000D01*
X69850000Y-75880000D02*
X69850000Y-76520000D01*
X69850000Y-76520000D02*
X68330000Y-76520000D01*
X68330000Y-76520000D02*
X68330000Y-75880000D01*
X68330000Y-75880000D02*
X69850000Y-75880000D01*
X68330000Y-88900000D02*
X68330000Y-91440000D01*
X68330000Y-91440000D02*
X59820000Y-91440000D01*
X59820000Y-91440000D02*
X59820000Y-88900000D01*
X59820000Y-88900000D02*
X68330000Y-88900000D01*
X69850000Y-89850000D02*
X69850000Y-90490000D01*
X69850000Y-90490000D02*
X68330000Y-90490000D01*
X68330000Y-90490000D02*
X68330000Y-89850000D01*
X68330000Y-89850000D02*
X69850000Y-89850000D01*
X148290000Y-45030000D02*
X148290000Y-54030000D01*
X148290000Y-54030000D02*
X174290000Y-54030000D01*
X174290000Y-54030000D02*
X174290000Y-45030000D01*
X174290000Y-45030000D02*
X148290000Y-45030000D01*
X146050000Y-49530000D02*
X148290000Y-49530000D01*
X176530000Y-49530000D02*
X174290000Y-49530000D01*
X205990000Y-78740000D02*
X205990000Y-76200000D01*
X205990000Y-76200000D02*
X214500000Y-76200000D01*
X214500000Y-76200000D02*
X214500000Y-78740000D01*
X214500000Y-78740000D02*
X205990000Y-78740000D01*
X204470000Y-77790000D02*
X204470000Y-77150000D01*
X204470000Y-77150000D02*
X205990000Y-77150000D01*
X205990000Y-77150000D02*
X205990000Y-77790000D01*
X205990000Y-77790000D02*
X204470000Y-77790000D01*
X205990000Y-92710000D02*
X205990000Y-90170000D01*
X205990000Y-90170000D02*
X214500000Y-90170000D01*
X214500000Y-90170000D02*
X214500000Y-92710000D01*
X214500000Y-92710000D02*
X205990000Y-92710000D01*
X204470000Y-91760000D02*
X204470000Y-91120000D01*
X204470000Y-91120000D02*
X205990000Y-91120000D01*
X205990000Y-91120000D02*
X205990000Y-91760000D01*
X205990000Y-91760000D02*
X204470000Y-91760000D01*
X107750000Y-66730000D02*
X107750000Y-57730000D01*
X107750000Y-57730000D02*
X82750000Y-57730000D01*
X82750000Y-57730000D02*
X82750000Y-66730000D01*
X82750000Y-66730000D02*
X107750000Y-66730000D01*
X109220000Y-62230000D02*
X107750000Y-62230000D01*
X81280000Y-62230000D02*
X82750000Y-62230000D01*
X108560000Y-81260000D02*
X108560000Y-78760000D01*
X108560000Y-78760000D02*
X102260000Y-78760000D01*
X102260000Y-78760000D02*
X102260000Y-81260000D01*
X102260000Y-81260000D02*
X108560000Y-81260000D01*
X113030000Y-80010000D02*
X108560000Y-80010000D01*
X97790000Y-80010000D02*
X102260000Y-80010000D01*
X95230000Y-90830000D02*
X92730000Y-90830000D01*
X92730000Y-90830000D02*
X92730000Y-97130000D01*
X92730000Y-97130000D02*
X95230000Y-97130000D01*
X95230000Y-97130000D02*
X95230000Y-90830000D01*
X93980000Y-86360000D02*
X93980000Y-90830000D01*
X93980000Y-101600000D02*
X93980000Y-97130000D01*
X116230000Y-97810000D02*
X116230000Y-100310000D01*
X116230000Y-100310000D02*
X122530000Y-100310000D01*
X122530000Y-100310000D02*
X122530000Y-97810000D01*
X122530000Y-97810000D02*
X116230000Y-97810000D01*
X111760000Y-99060000D02*
X116230000Y-99060000D01*
X127000000Y-99060000D02*
X122530000Y-99060000D01*
X158230000Y-81030000D02*
X141330000Y-81030000D01*
X141330000Y-81030000D02*
X141330000Y-90330000D01*
X141330000Y-90330000D02*
X158230000Y-90330000D01*
X158230000Y-90330000D02*
X158230000Y-81030000D01*
X153280000Y-90330000D02*
X146280000Y-90330000D01*
X146280000Y-90330000D02*
X146280000Y-96330000D01*
X146280000Y-96330000D02*
X153280000Y-96330000D01*
X153280000Y-96330000D02*
X153280000Y-90330000D01*
X151780000Y-96330000D02*
X147780000Y-96330000D01*
X147780000Y-96330000D02*
X147780000Y-140330000D01*
X147780000Y-140330000D02*
X151780000Y-140330000D01*
X151780000Y-140330000D02*
X151780000Y-96330000D01*
X137140000Y-80670000D02*
X134640000Y-80670000D01*
X134640000Y-80670000D02*
X134640000Y-86970000D01*
X134640000Y-86970000D02*
X137140000Y-86970000D01*
X137140000Y-86970000D02*
X137140000Y-80670000D01*
X135890000Y-76200000D02*
X135890000Y-80670000D01*
X135890000Y-91440000D02*
X135890000Y-86970000D01*
X88290000Y-110510000D02*
X88290000Y-113010000D01*
X88290000Y-113010000D02*
X94590000Y-113010000D01*
X94590000Y-113010000D02*
X94590000Y-110510000D01*
X94590000Y-110510000D02*
X88290000Y-110510000D01*
X83820000Y-111760000D02*
X88290000Y-111760000D01*
X99060000Y-111760000D02*
X94590000Y-111760000D01*
X106660000Y-108610000D02*
X104160000Y-108610000D01*
X104160000Y-108610000D02*
X104160000Y-114910000D01*
X104160000Y-114910000D02*
X106660000Y-114910000D01*
X106660000Y-114910000D02*
X106660000Y-108610000D01*
X105410000Y-104140000D02*
X105410000Y-108610000D01*
X105410000Y-119380000D02*
X105410000Y-114910000D01*
X136220000Y-103450000D02*
X133020000Y-103450000D01*
X133020000Y-103450000D02*
X133020000Y-112450000D01*
X133020000Y-112450000D02*
X136220000Y-112450000D01*
X136220000Y-112450000D02*
X136220000Y-103450000D01*
X134620000Y-97790000D02*
X134620000Y-103450000D01*
X134620000Y-118110000D02*
X134620000Y-112450000D01*
X174600000Y-119360000D02*
X174600000Y-116860000D01*
X174600000Y-116860000D02*
X168300000Y-116860000D01*
X168300000Y-116860000D02*
X168300000Y-119360000D01*
X168300000Y-119360000D02*
X174600000Y-119360000D01*
X179070000Y-118110000D02*
X174600000Y-118110000D01*
X163830000Y-118110000D02*
X168300000Y-118110000D01*
X188570000Y-124440000D02*
X188570000Y-121940000D01*
X188570000Y-121940000D02*
X182270000Y-121940000D01*
X182270000Y-121940000D02*
X182270000Y-124440000D01*
X182270000Y-124440000D02*
X188570000Y-124440000D01*
X193040000Y-123190000D02*
X188570000Y-123190000D01*
X177800000Y-123190000D02*
X182270000Y-123190000D01*
X173330000Y-91420000D02*
X173330000Y-88920000D01*
X173330000Y-88920000D02*
X167030000Y-88920000D01*
X167030000Y-88920000D02*
X167030000Y-91420000D01*
X167030000Y-91420000D02*
X173330000Y-91420000D01*
X177800000Y-90170000D02*
X173330000Y-90170000D01*
X162560000Y-90170000D02*
X167030000Y-90170000D01*
X188620000Y-109240000D02*
X188620000Y-111740000D01*
X188620000Y-111740000D02*
X194920000Y-111740000D01*
X194920000Y-111740000D02*
X194920000Y-109240000D01*
X194920000Y-109240000D02*
X188620000Y-109240000D01*
X184150000Y-110490000D02*
X188620000Y-110490000D01*
X199390000Y-110490000D02*
X194920000Y-110490000D01*
X191110000Y-99040000D02*
X191110000Y-96540000D01*
X191110000Y-96540000D02*
X184810000Y-96540000D01*
X184810000Y-96540000D02*
X184810000Y-99040000D01*
X184810000Y-99040000D02*
X191110000Y-99040000D01*
X195580000Y-97790000D02*
X191110000Y-97790000D01*
X180340000Y-97790000D02*
X184810000Y-97790000D01*
X160290000Y-106140000D02*
X162290000Y-106140000D01*
X162290000Y-106140000D02*
X162290000Y-102140000D01*
X162290000Y-102140000D02*
X160290000Y-102140000D01*
X160290000Y-102140000D02*
X160290000Y-106140000D01*
X161290000Y-110490000D02*
X161290000Y-106140000D01*
X161290000Y-97790000D02*
X161290000Y-102140000D01*
X160290000Y-105540000D02*
X162290000Y-105540000D01*
X151460000Y-59630000D02*
X151460000Y-64830000D01*
X151460000Y-64830000D02*
X160960000Y-64830000D01*
X160960000Y-64830000D02*
X160960000Y-59630000D01*
X160960000Y-59630000D02*
X151460000Y-59630000D01*
X148590000Y-62230000D02*
X151460000Y-62230000D01*
X163830000Y-62230000D02*
X160960000Y-62230000D01*
X152885000Y-59630000D02*
X152885000Y-64830000D01*
X173490000Y-63980000D02*
X176990000Y-63980000D01*
X177013625Y-63983625D02*
G75*
G03X175260000Y-59750000I-1753625J1753625D01*
G01*
X173506375Y-63983625D02*
G75*
G02X175260000Y-59750000I1753625J1753625D01*
G01*
X166450000Y-73700000D02*
X166450000Y-78100000D01*
X166450000Y-78100000D02*
X176450000Y-78100000D01*
X176450000Y-78100000D02*
X176450000Y-73700000D01*
X176450000Y-73700000D02*
X166450000Y-73700000D01*
X166450000Y-74970000D02*
X176450000Y-74970000D01*
X169600000Y-73700000D02*
X169600000Y-74970000D01*
X173300000Y-73700000D02*
X173300000Y-74970000D01*
D11*
X122777619Y-55117143D02*
X122730000Y-55069524D01*
X122682381Y-54974286D01*
X122682381Y-54736190D01*
X122730000Y-54640952D01*
X122777619Y-54593333D01*
X122872857Y-54545714D01*
X122968095Y-54545714D01*
X123110952Y-54593333D01*
X123682381Y-55164762D01*
X123682381Y-54545714D01*
X122682381Y-53926667D02*
X122682381Y-53831428D01*
X122730000Y-53736190D01*
X122777619Y-53688571D01*
X122872857Y-53640952D01*
X123063333Y-53593333D01*
X123301429Y-53593333D01*
X123491905Y-53640952D01*
X123587143Y-53688571D01*
X123634762Y-53736190D01*
X123682381Y-53831428D01*
X123682381Y-53926667D01*
X123634762Y-54021905D01*
X123587143Y-54069524D01*
X123491905Y-54117143D01*
X123301429Y-54164762D01*
X123063333Y-54164762D01*
X122872857Y-54117143D01*
X122777619Y-54069524D01*
X122730000Y-54021905D01*
X122682381Y-53926667D01*
X122682381Y-53307619D02*
X123682381Y-52974286D01*
X122682381Y-52640952D01*
X123682381Y-51021904D02*
X123682381Y-51593333D01*
X123682381Y-51307619D02*
X122682381Y-51307619D01*
X122825238Y-51402857D01*
X122920476Y-51498095D01*
X122968095Y-51593333D01*
X122682381Y-50402857D02*
X122682381Y-50307618D01*
X122730000Y-50212380D01*
X122777619Y-50164761D01*
X122872857Y-50117142D01*
X123063333Y-50069523D01*
X123301429Y-50069523D01*
X123491905Y-50117142D01*
X123587143Y-50164761D01*
X123634762Y-50212380D01*
X123682381Y-50307618D01*
X123682381Y-50402857D01*
X123634762Y-50498095D01*
X123587143Y-50545714D01*
X123491905Y-50593333D01*
X123301429Y-50640952D01*
X123063333Y-50640952D01*
X122872857Y-50593333D01*
X122777619Y-50545714D01*
X122730000Y-50498095D01*
X122682381Y-50402857D01*
X122682381Y-49450476D02*
X122682381Y-49355237D01*
X122730000Y-49259999D01*
X122777619Y-49212380D01*
X122872857Y-49164761D01*
X123063333Y-49117142D01*
X123301429Y-49117142D01*
X123491905Y-49164761D01*
X123587143Y-49212380D01*
X123634762Y-49259999D01*
X123682381Y-49355237D01*
X123682381Y-49450476D01*
X123634762Y-49545714D01*
X123587143Y-49593333D01*
X123491905Y-49640952D01*
X123301429Y-49688571D01*
X123063333Y-49688571D01*
X122872857Y-49640952D01*
X122777619Y-49593333D01*
X122730000Y-49545714D01*
X122682381Y-49450476D01*
X122682381Y-48498095D02*
X122682381Y-48402856D01*
X122730000Y-48307618D01*
X122777619Y-48259999D01*
X122872857Y-48212380D01*
X123063333Y-48164761D01*
X123301429Y-48164761D01*
X123491905Y-48212380D01*
X123587143Y-48259999D01*
X123634762Y-48307618D01*
X123682381Y-48402856D01*
X123682381Y-48498095D01*
X123634762Y-48593333D01*
X123587143Y-48640952D01*
X123491905Y-48688571D01*
X123301429Y-48736190D01*
X123063333Y-48736190D01*
X122872857Y-48688571D01*
X122777619Y-48640952D01*
X122730000Y-48593333D01*
X122682381Y-48498095D01*
X123015714Y-47307618D02*
X123682381Y-47307618D01*
X123015714Y-47736190D02*
X123539524Y-47736190D01*
X123634762Y-47688571D01*
X123682381Y-47593333D01*
X123682381Y-47450475D01*
X123634762Y-47355237D01*
X123587143Y-47307618D01*
X123158571Y-46498094D02*
X123158571Y-46831428D01*
X123682381Y-46831428D02*
X122682381Y-46831428D01*
X122682381Y-46355237D01*
X129897143Y-50926666D02*
X129944762Y-50974285D01*
X129992381Y-51117142D01*
X129992381Y-51212380D01*
X129944762Y-51355238D01*
X129849524Y-51450476D01*
X129754286Y-51498095D01*
X129563810Y-51545714D01*
X129420952Y-51545714D01*
X129230476Y-51498095D01*
X129135238Y-51450476D01*
X129040000Y-51355238D01*
X128992381Y-51212380D01*
X128992381Y-51117142D01*
X129040000Y-50974285D01*
X129087619Y-50926666D01*
X129992381Y-49974285D02*
X129992381Y-50545714D01*
X129992381Y-50260000D02*
X128992381Y-50260000D01*
X129135238Y-50355238D01*
X129230476Y-50450476D01*
X129278095Y-50545714D01*
X119062381Y-63852857D02*
X119062381Y-63757618D01*
X119110000Y-63662380D01*
X119157619Y-63614761D01*
X119252857Y-63567142D01*
X119443333Y-63519523D01*
X119681429Y-63519523D01*
X119871905Y-63567142D01*
X119967143Y-63614761D01*
X120014762Y-63662380D01*
X120062381Y-63757618D01*
X120062381Y-63852857D01*
X120014762Y-63948095D01*
X119967143Y-63995714D01*
X119871905Y-64043333D01*
X119681429Y-64090952D01*
X119443333Y-64090952D01*
X119252857Y-64043333D01*
X119157619Y-63995714D01*
X119110000Y-63948095D01*
X119062381Y-63852857D01*
X119967143Y-63090952D02*
X120014762Y-63043333D01*
X120062381Y-63090952D01*
X120014762Y-63138571D01*
X119967143Y-63090952D01*
X120062381Y-63090952D01*
X120062381Y-62090952D02*
X120062381Y-62662381D01*
X120062381Y-62376667D02*
X119062381Y-62376667D01*
X119205238Y-62471905D01*
X119300476Y-62567143D01*
X119348095Y-62662381D01*
X119395714Y-61233809D02*
X120062381Y-61233809D01*
X119395714Y-61662381D02*
X119919524Y-61662381D01*
X120014762Y-61614762D01*
X120062381Y-61519524D01*
X120062381Y-61376666D01*
X120014762Y-61281428D01*
X119967143Y-61233809D01*
X119538571Y-60424285D02*
X119538571Y-60757619D01*
X120062381Y-60757619D02*
X119062381Y-60757619D01*
X119062381Y-60281428D01*
X122277143Y-62376666D02*
X122324762Y-62424285D01*
X122372381Y-62567142D01*
X122372381Y-62662380D01*
X122324762Y-62805238D01*
X122229524Y-62900476D01*
X122134286Y-62948095D01*
X121943810Y-62995714D01*
X121800952Y-62995714D01*
X121610476Y-62948095D01*
X121515238Y-62900476D01*
X121420000Y-62805238D01*
X121372381Y-62662380D01*
X121372381Y-62567142D01*
X121420000Y-62424285D01*
X121467619Y-62376666D01*
X121467619Y-61995714D02*
X121420000Y-61948095D01*
X121372381Y-61852857D01*
X121372381Y-61614761D01*
X121420000Y-61519523D01*
X121467619Y-61471904D01*
X121562857Y-61424285D01*
X121658095Y-61424285D01*
X121800952Y-61471904D01*
X122372381Y-62043333D01*
X122372381Y-61424285D01*
X134755238Y-60007619D02*
X134802857Y-59960000D01*
X134898095Y-59912381D01*
X135136191Y-59912381D01*
X135231429Y-59960000D01*
X135279048Y-60007619D01*
X135326667Y-60102857D01*
X135326667Y-60198095D01*
X135279048Y-60340952D01*
X134707619Y-60912381D01*
X135326667Y-60912381D01*
X135945714Y-59912381D02*
X136040953Y-59912381D01*
X136136191Y-59960000D01*
X136183810Y-60007619D01*
X136231429Y-60102857D01*
X136279048Y-60293333D01*
X136279048Y-60531429D01*
X136231429Y-60721905D01*
X136183810Y-60817143D01*
X136136191Y-60864762D01*
X136040953Y-60912381D01*
X135945714Y-60912381D01*
X135850476Y-60864762D01*
X135802857Y-60817143D01*
X135755238Y-60721905D01*
X135707619Y-60531429D01*
X135707619Y-60293333D01*
X135755238Y-60102857D01*
X135802857Y-60007619D01*
X135850476Y-59960000D01*
X135945714Y-59912381D01*
X136564762Y-59912381D02*
X136898095Y-60912381D01*
X137231429Y-59912381D01*
X138850477Y-60912381D02*
X138279048Y-60912381D01*
X138564762Y-60912381D02*
X138564762Y-59912381D01*
X138469524Y-60055238D01*
X138374286Y-60150476D01*
X138279048Y-60198095D01*
X139469524Y-59912381D02*
X139564763Y-59912381D01*
X139660001Y-59960000D01*
X139707620Y-60007619D01*
X139755239Y-60102857D01*
X139802858Y-60293333D01*
X139802858Y-60531429D01*
X139755239Y-60721905D01*
X139707620Y-60817143D01*
X139660001Y-60864762D01*
X139564763Y-60912381D01*
X139469524Y-60912381D01*
X139374286Y-60864762D01*
X139326667Y-60817143D01*
X139279048Y-60721905D01*
X139231429Y-60531429D01*
X139231429Y-60293333D01*
X139279048Y-60102857D01*
X139326667Y-60007619D01*
X139374286Y-59960000D01*
X139469524Y-59912381D01*
X140660001Y-60245714D02*
X140660001Y-60912381D01*
X140231429Y-60245714D02*
X140231429Y-60769524D01*
X140279048Y-60864762D01*
X140374286Y-60912381D01*
X140517144Y-60912381D01*
X140612382Y-60864762D01*
X140660001Y-60817143D01*
X141469525Y-60388571D02*
X141136191Y-60388571D01*
X141136191Y-60912381D02*
X141136191Y-59912381D01*
X141612382Y-59912381D01*
X137993334Y-57507143D02*
X137945715Y-57554762D01*
X137802858Y-57602381D01*
X137707620Y-57602381D01*
X137564762Y-57554762D01*
X137469524Y-57459524D01*
X137421905Y-57364286D01*
X137374286Y-57173810D01*
X137374286Y-57030952D01*
X137421905Y-56840476D01*
X137469524Y-56745238D01*
X137564762Y-56650000D01*
X137707620Y-56602381D01*
X137802858Y-56602381D01*
X137945715Y-56650000D01*
X137993334Y-56697619D01*
X138326667Y-56602381D02*
X138945715Y-56602381D01*
X138612381Y-56983333D01*
X138755239Y-56983333D01*
X138850477Y-57030952D01*
X138898096Y-57078571D01*
X138945715Y-57173810D01*
X138945715Y-57411905D01*
X138898096Y-57507143D01*
X138850477Y-57554762D01*
X138755239Y-57602381D01*
X138469524Y-57602381D01*
X138374286Y-57554762D01*
X138326667Y-57507143D01*
X136767143Y-72882381D02*
X136862382Y-72882381D01*
X136957620Y-72930000D01*
X137005239Y-72977619D01*
X137052858Y-73072857D01*
X137100477Y-73263333D01*
X137100477Y-73501429D01*
X137052858Y-73691905D01*
X137005239Y-73787143D01*
X136957620Y-73834762D01*
X136862382Y-73882381D01*
X136767143Y-73882381D01*
X136671905Y-73834762D01*
X136624286Y-73787143D01*
X136576667Y-73691905D01*
X136529048Y-73501429D01*
X136529048Y-73263333D01*
X136576667Y-73072857D01*
X136624286Y-72977619D01*
X136671905Y-72930000D01*
X136767143Y-72882381D01*
X137529048Y-73787143D02*
X137576667Y-73834762D01*
X137529048Y-73882381D01*
X137481429Y-73834762D01*
X137529048Y-73787143D01*
X137529048Y-73882381D01*
X138529048Y-73882381D02*
X137957619Y-73882381D01*
X138243333Y-73882381D02*
X138243333Y-72882381D01*
X138148095Y-73025238D01*
X138052857Y-73120476D01*
X137957619Y-73168095D01*
X139386191Y-73215714D02*
X139386191Y-73882381D01*
X138957619Y-73215714D02*
X138957619Y-73739524D01*
X139005238Y-73834762D01*
X139100476Y-73882381D01*
X139243334Y-73882381D01*
X139338572Y-73834762D01*
X139386191Y-73787143D01*
X140195715Y-73358571D02*
X139862381Y-73358571D01*
X139862381Y-73882381D02*
X139862381Y-72882381D01*
X140338572Y-72882381D01*
X138243334Y-71477143D02*
X138195715Y-71524762D01*
X138052858Y-71572381D01*
X137957620Y-71572381D01*
X137814762Y-71524762D01*
X137719524Y-71429524D01*
X137671905Y-71334286D01*
X137624286Y-71143810D01*
X137624286Y-71000952D01*
X137671905Y-70810476D01*
X137719524Y-70715238D01*
X137814762Y-70620000D01*
X137957620Y-70572381D01*
X138052858Y-70572381D01*
X138195715Y-70620000D01*
X138243334Y-70667619D01*
X139100477Y-70905714D02*
X139100477Y-71572381D01*
X138862381Y-70524762D02*
X138624286Y-71239048D01*
X139243334Y-71239048D01*
X93587143Y-123682381D02*
X93682382Y-123682381D01*
X93777620Y-123730000D01*
X93825239Y-123777619D01*
X93872858Y-123872857D01*
X93920477Y-124063333D01*
X93920477Y-124301429D01*
X93872858Y-124491905D01*
X93825239Y-124587143D01*
X93777620Y-124634762D01*
X93682382Y-124682381D01*
X93587143Y-124682381D01*
X93491905Y-124634762D01*
X93444286Y-124587143D01*
X93396667Y-124491905D01*
X93349048Y-124301429D01*
X93349048Y-124063333D01*
X93396667Y-123872857D01*
X93444286Y-123777619D01*
X93491905Y-123730000D01*
X93587143Y-123682381D01*
X94349048Y-124587143D02*
X94396667Y-124634762D01*
X94349048Y-124682381D01*
X94301429Y-124634762D01*
X94349048Y-124587143D01*
X94349048Y-124682381D01*
X95349048Y-124682381D02*
X94777619Y-124682381D01*
X95063333Y-124682381D02*
X95063333Y-123682381D01*
X94968095Y-123825238D01*
X94872857Y-123920476D01*
X94777619Y-123968095D01*
X96206191Y-124015714D02*
X96206191Y-124682381D01*
X95777619Y-124015714D02*
X95777619Y-124539524D01*
X95825238Y-124634762D01*
X95920476Y-124682381D01*
X96063334Y-124682381D01*
X96158572Y-124634762D01*
X96206191Y-124587143D01*
X97015715Y-124158571D02*
X96682381Y-124158571D01*
X96682381Y-124682381D02*
X96682381Y-123682381D01*
X97158572Y-123682381D01*
X95063334Y-122277143D02*
X95015715Y-122324762D01*
X94872858Y-122372381D01*
X94777620Y-122372381D01*
X94634762Y-122324762D01*
X94539524Y-122229524D01*
X94491905Y-122134286D01*
X94444286Y-121943810D01*
X94444286Y-121800952D01*
X94491905Y-121610476D01*
X94539524Y-121515238D01*
X94634762Y-121420000D01*
X94777620Y-121372381D01*
X94872858Y-121372381D01*
X95015715Y-121420000D01*
X95063334Y-121467619D01*
X95968096Y-121372381D02*
X95491905Y-121372381D01*
X95444286Y-121848571D01*
X95491905Y-121800952D01*
X95587143Y-121753333D01*
X95825239Y-121753333D01*
X95920477Y-121800952D01*
X95968096Y-121848571D01*
X96015715Y-121943810D01*
X96015715Y-122181905D01*
X95968096Y-122277143D01*
X95920477Y-122324762D01*
X95825239Y-122372381D01*
X95587143Y-122372381D01*
X95491905Y-122324762D01*
X95444286Y-122277143D01*
X108652381Y-93995238D02*
X108652381Y-93899999D01*
X108700000Y-93804761D01*
X108747619Y-93757142D01*
X108842857Y-93709523D01*
X109033333Y-93661904D01*
X109271429Y-93661904D01*
X109461905Y-93709523D01*
X109557143Y-93757142D01*
X109604762Y-93804761D01*
X109652381Y-93899999D01*
X109652381Y-93995238D01*
X109604762Y-94090476D01*
X109557143Y-94138095D01*
X109461905Y-94185714D01*
X109271429Y-94233333D01*
X109033333Y-94233333D01*
X108842857Y-94185714D01*
X108747619Y-94138095D01*
X108700000Y-94090476D01*
X108652381Y-93995238D01*
X109557143Y-93233333D02*
X109604762Y-93185714D01*
X109652381Y-93233333D01*
X109604762Y-93280952D01*
X109557143Y-93233333D01*
X109652381Y-93233333D01*
X108652381Y-92566667D02*
X108652381Y-92471428D01*
X108700000Y-92376190D01*
X108747619Y-92328571D01*
X108842857Y-92280952D01*
X109033333Y-92233333D01*
X109271429Y-92233333D01*
X109461905Y-92280952D01*
X109557143Y-92328571D01*
X109604762Y-92376190D01*
X109652381Y-92471428D01*
X109652381Y-92566667D01*
X109604762Y-92661905D01*
X109557143Y-92709524D01*
X109461905Y-92757143D01*
X109271429Y-92804762D01*
X109033333Y-92804762D01*
X108842857Y-92757143D01*
X108747619Y-92709524D01*
X108700000Y-92661905D01*
X108652381Y-92566667D01*
X108747619Y-91852381D02*
X108700000Y-91804762D01*
X108652381Y-91709524D01*
X108652381Y-91471428D01*
X108700000Y-91376190D01*
X108747619Y-91328571D01*
X108842857Y-91280952D01*
X108938095Y-91280952D01*
X109080952Y-91328571D01*
X109652381Y-91900000D01*
X109652381Y-91280952D01*
X108747619Y-90900000D02*
X108700000Y-90852381D01*
X108652381Y-90757143D01*
X108652381Y-90519047D01*
X108700000Y-90423809D01*
X108747619Y-90376190D01*
X108842857Y-90328571D01*
X108938095Y-90328571D01*
X109080952Y-90376190D01*
X109652381Y-90947619D01*
X109652381Y-90328571D01*
X108985714Y-89471428D02*
X109652381Y-89471428D01*
X108985714Y-89900000D02*
X109509524Y-89900000D01*
X109604762Y-89852381D01*
X109652381Y-89757143D01*
X109652381Y-89614285D01*
X109604762Y-89519047D01*
X109557143Y-89471428D01*
X109128571Y-88661904D02*
X109128571Y-88995238D01*
X109652381Y-88995238D02*
X108652381Y-88995238D01*
X108652381Y-88519047D01*
X112117143Y-91566666D02*
X112164762Y-91614285D01*
X112212381Y-91757142D01*
X112212381Y-91852380D01*
X112164762Y-91995238D01*
X112069524Y-92090476D01*
X111974286Y-92138095D01*
X111783810Y-92185714D01*
X111640952Y-92185714D01*
X111450476Y-92138095D01*
X111355238Y-92090476D01*
X111260000Y-91995238D01*
X111212381Y-91852380D01*
X111212381Y-91757142D01*
X111260000Y-91614285D01*
X111307619Y-91566666D01*
X111212381Y-90709523D02*
X111212381Y-90900000D01*
X111260000Y-90995238D01*
X111307619Y-91042857D01*
X111450476Y-91138095D01*
X111640952Y-91185714D01*
X112021905Y-91185714D01*
X112117143Y-91138095D01*
X112164762Y-91090476D01*
X112212381Y-90995238D01*
X112212381Y-90804761D01*
X112164762Y-90709523D01*
X112117143Y-90661904D01*
X112021905Y-90614285D01*
X111783810Y-90614285D01*
X111688571Y-90661904D01*
X111640952Y-90709523D01*
X111593333Y-90804761D01*
X111593333Y-90995238D01*
X111640952Y-91090476D01*
X111688571Y-91138095D01*
X111783810Y-91185714D01*
X127172381Y-111283809D02*
X127172381Y-111855238D01*
X127172381Y-111569524D02*
X126172381Y-111569524D01*
X126315238Y-111664762D01*
X126410476Y-111760000D01*
X126458095Y-111855238D01*
X126172381Y-110664762D02*
X126172381Y-110569523D01*
X126220000Y-110474285D01*
X126267619Y-110426666D01*
X126362857Y-110379047D01*
X126553333Y-110331428D01*
X126791429Y-110331428D01*
X126981905Y-110379047D01*
X127077143Y-110426666D01*
X127124762Y-110474285D01*
X127172381Y-110569523D01*
X127172381Y-110664762D01*
X127124762Y-110760000D01*
X127077143Y-110807619D01*
X126981905Y-110855238D01*
X126791429Y-110902857D01*
X126553333Y-110902857D01*
X126362857Y-110855238D01*
X126267619Y-110807619D01*
X126220000Y-110760000D01*
X126172381Y-110664762D01*
X126172381Y-109712381D02*
X126172381Y-109617142D01*
X126220000Y-109521904D01*
X126267619Y-109474285D01*
X126362857Y-109426666D01*
X126553333Y-109379047D01*
X126791429Y-109379047D01*
X126981905Y-109426666D01*
X127077143Y-109474285D01*
X127124762Y-109521904D01*
X127172381Y-109617142D01*
X127172381Y-109712381D01*
X127124762Y-109807619D01*
X127077143Y-109855238D01*
X126981905Y-109902857D01*
X126791429Y-109950476D01*
X126553333Y-109950476D01*
X126362857Y-109902857D01*
X126267619Y-109855238D01*
X126220000Y-109807619D01*
X126172381Y-109712381D01*
X126172381Y-108760000D02*
X126172381Y-108664761D01*
X126220000Y-108569523D01*
X126267619Y-108521904D01*
X126362857Y-108474285D01*
X126553333Y-108426666D01*
X126791429Y-108426666D01*
X126981905Y-108474285D01*
X127077143Y-108521904D01*
X127124762Y-108569523D01*
X127172381Y-108664761D01*
X127172381Y-108760000D01*
X127124762Y-108855238D01*
X127077143Y-108902857D01*
X126981905Y-108950476D01*
X126791429Y-108998095D01*
X126553333Y-108998095D01*
X126362857Y-108950476D01*
X126267619Y-108902857D01*
X126220000Y-108855238D01*
X126172381Y-108760000D01*
X126505714Y-107998095D02*
X127505714Y-107998095D01*
X126553333Y-107998095D02*
X126505714Y-107902857D01*
X126505714Y-107712380D01*
X126553333Y-107617142D01*
X126600952Y-107569523D01*
X126696190Y-107521904D01*
X126981905Y-107521904D01*
X127077143Y-107569523D01*
X127124762Y-107617142D01*
X127172381Y-107712380D01*
X127172381Y-107902857D01*
X127124762Y-107998095D01*
X126648571Y-106759999D02*
X126648571Y-107093333D01*
X127172381Y-107093333D02*
X126172381Y-107093333D01*
X126172381Y-106617142D01*
X124817143Y-109426666D02*
X124864762Y-109474285D01*
X124912381Y-109617142D01*
X124912381Y-109712380D01*
X124864762Y-109855238D01*
X124769524Y-109950476D01*
X124674286Y-109998095D01*
X124483810Y-110045714D01*
X124340952Y-110045714D01*
X124150476Y-109998095D01*
X124055238Y-109950476D01*
X123960000Y-109855238D01*
X123912381Y-109712380D01*
X123912381Y-109617142D01*
X123960000Y-109474285D01*
X124007619Y-109426666D01*
X123912381Y-109093333D02*
X123912381Y-108426666D01*
X124912381Y-108855238D01*
X169727619Y-109032857D02*
X169680000Y-108985238D01*
X169632381Y-108890000D01*
X169632381Y-108651904D01*
X169680000Y-108556666D01*
X169727619Y-108509047D01*
X169822857Y-108461428D01*
X169918095Y-108461428D01*
X170060952Y-108509047D01*
X170632381Y-109080476D01*
X170632381Y-108461428D01*
X169632381Y-107556666D02*
X169632381Y-108032857D01*
X170108571Y-108080476D01*
X170060952Y-108032857D01*
X170013333Y-107937619D01*
X170013333Y-107699523D01*
X170060952Y-107604285D01*
X170108571Y-107556666D01*
X170203810Y-107509047D01*
X170441905Y-107509047D01*
X170537143Y-107556666D01*
X170584762Y-107604285D01*
X170632381Y-107699523D01*
X170632381Y-107937619D01*
X170584762Y-108032857D01*
X170537143Y-108080476D01*
X169632381Y-107223333D02*
X170632381Y-106890000D01*
X169632381Y-106556666D01*
X169965714Y-105032856D02*
X170632381Y-105032856D01*
X169584762Y-105270952D02*
X170299048Y-105509047D01*
X170299048Y-104889999D01*
X170537143Y-104509047D02*
X170584762Y-104461428D01*
X170632381Y-104509047D01*
X170584762Y-104556666D01*
X170537143Y-104509047D01*
X170632381Y-104509047D01*
X169632381Y-104128095D02*
X169632381Y-103461428D01*
X170632381Y-103890000D01*
X169965714Y-102651904D02*
X170632381Y-102651904D01*
X169965714Y-103080476D02*
X170489524Y-103080476D01*
X170584762Y-103032857D01*
X170632381Y-102937619D01*
X170632381Y-102794761D01*
X170584762Y-102699523D01*
X170537143Y-102651904D01*
X170108571Y-101842380D02*
X170108571Y-102175714D01*
X170632381Y-102175714D02*
X169632381Y-102175714D01*
X169632381Y-101699523D01*
X174347143Y-105556666D02*
X174394762Y-105604285D01*
X174442381Y-105747142D01*
X174442381Y-105842380D01*
X174394762Y-105985238D01*
X174299524Y-106080476D01*
X174204286Y-106128095D01*
X174013810Y-106175714D01*
X173870952Y-106175714D01*
X173680476Y-106128095D01*
X173585238Y-106080476D01*
X173490000Y-105985238D01*
X173442381Y-105842380D01*
X173442381Y-105747142D01*
X173490000Y-105604285D01*
X173537619Y-105556666D01*
X173870952Y-104985238D02*
X173823333Y-105080476D01*
X173775714Y-105128095D01*
X173680476Y-105175714D01*
X173632857Y-105175714D01*
X173537619Y-105128095D01*
X173490000Y-105080476D01*
X173442381Y-104985238D01*
X173442381Y-104794761D01*
X173490000Y-104699523D01*
X173537619Y-104651904D01*
X173632857Y-104604285D01*
X173680476Y-104604285D01*
X173775714Y-104651904D01*
X173823333Y-104699523D01*
X173870952Y-104794761D01*
X173870952Y-104985238D01*
X173918571Y-105080476D01*
X173966190Y-105128095D01*
X174061429Y-105175714D01*
X174251905Y-105175714D01*
X174347143Y-105128095D01*
X174394762Y-105080476D01*
X174442381Y-104985238D01*
X174442381Y-104794761D01*
X174394762Y-104699523D01*
X174347143Y-104651904D01*
X174251905Y-104604285D01*
X174061429Y-104604285D01*
X173966190Y-104651904D01*
X173918571Y-104699523D01*
X173870952Y-104794761D01*
X194802381Y-77862857D02*
X194802381Y-77767618D01*
X194850000Y-77672380D01*
X194897619Y-77624761D01*
X194992857Y-77577142D01*
X195183333Y-77529523D01*
X195421429Y-77529523D01*
X195611905Y-77577142D01*
X195707143Y-77624761D01*
X195754762Y-77672380D01*
X195802381Y-77767618D01*
X195802381Y-77862857D01*
X195754762Y-77958095D01*
X195707143Y-78005714D01*
X195611905Y-78053333D01*
X195421429Y-78100952D01*
X195183333Y-78100952D01*
X194992857Y-78053333D01*
X194897619Y-78005714D01*
X194850000Y-77958095D01*
X194802381Y-77862857D01*
X195707143Y-77100952D02*
X195754762Y-77053333D01*
X195802381Y-77100952D01*
X195754762Y-77148571D01*
X195707143Y-77100952D01*
X195802381Y-77100952D01*
X195802381Y-76100952D02*
X195802381Y-76672381D01*
X195802381Y-76386667D02*
X194802381Y-76386667D01*
X194945238Y-76481905D01*
X195040476Y-76577143D01*
X195088095Y-76672381D01*
X195135714Y-75243809D02*
X195802381Y-75243809D01*
X195135714Y-75672381D02*
X195659524Y-75672381D01*
X195754762Y-75624762D01*
X195802381Y-75529524D01*
X195802381Y-75386666D01*
X195754762Y-75291428D01*
X195707143Y-75243809D01*
X195278571Y-74434285D02*
X195278571Y-74767619D01*
X195802381Y-74767619D02*
X194802381Y-74767619D01*
X194802381Y-74291428D01*
X193397143Y-76386666D02*
X193444762Y-76434285D01*
X193492381Y-76577142D01*
X193492381Y-76672380D01*
X193444762Y-76815238D01*
X193349524Y-76910476D01*
X193254286Y-76958095D01*
X193063810Y-77005714D01*
X192920952Y-77005714D01*
X192730476Y-76958095D01*
X192635238Y-76910476D01*
X192540000Y-76815238D01*
X192492381Y-76672380D01*
X192492381Y-76577142D01*
X192540000Y-76434285D01*
X192587619Y-76386666D01*
X193492381Y-75910476D02*
X193492381Y-75720000D01*
X193444762Y-75624761D01*
X193397143Y-75577142D01*
X193254286Y-75481904D01*
X193063810Y-75434285D01*
X192682857Y-75434285D01*
X192587619Y-75481904D01*
X192540000Y-75529523D01*
X192492381Y-75624761D01*
X192492381Y-75815238D01*
X192540000Y-75910476D01*
X192587619Y-75958095D01*
X192682857Y-76005714D01*
X192920952Y-76005714D01*
X193016190Y-75958095D01*
X193063810Y-75910476D01*
X193111429Y-75815238D01*
X193111429Y-75624761D01*
X193063810Y-75529523D01*
X193016190Y-75481904D01*
X192920952Y-75434285D01*
X188635238Y-53387619D02*
X188682857Y-53340000D01*
X188778095Y-53292381D01*
X189016191Y-53292381D01*
X189111429Y-53340000D01*
X189159048Y-53387619D01*
X189206667Y-53482857D01*
X189206667Y-53578095D01*
X189159048Y-53720952D01*
X188587619Y-54292381D01*
X189206667Y-54292381D01*
X189825714Y-53292381D02*
X189920953Y-53292381D01*
X190016191Y-53340000D01*
X190063810Y-53387619D01*
X190111429Y-53482857D01*
X190159048Y-53673333D01*
X190159048Y-53911429D01*
X190111429Y-54101905D01*
X190063810Y-54197143D01*
X190016191Y-54244762D01*
X189920953Y-54292381D01*
X189825714Y-54292381D01*
X189730476Y-54244762D01*
X189682857Y-54197143D01*
X189635238Y-54101905D01*
X189587619Y-53911429D01*
X189587619Y-53673333D01*
X189635238Y-53482857D01*
X189682857Y-53387619D01*
X189730476Y-53340000D01*
X189825714Y-53292381D01*
X190444762Y-53292381D02*
X190778095Y-54292381D01*
X191111429Y-53292381D01*
X192730477Y-54292381D02*
X192159048Y-54292381D01*
X192444762Y-54292381D02*
X192444762Y-53292381D01*
X192349524Y-53435238D01*
X192254286Y-53530476D01*
X192159048Y-53578095D01*
X193349524Y-53292381D02*
X193444763Y-53292381D01*
X193540001Y-53340000D01*
X193587620Y-53387619D01*
X193635239Y-53482857D01*
X193682858Y-53673333D01*
X193682858Y-53911429D01*
X193635239Y-54101905D01*
X193587620Y-54197143D01*
X193540001Y-54244762D01*
X193444763Y-54292381D01*
X193349524Y-54292381D01*
X193254286Y-54244762D01*
X193206667Y-54197143D01*
X193159048Y-54101905D01*
X193111429Y-53911429D01*
X193111429Y-53673333D01*
X193159048Y-53482857D01*
X193206667Y-53387619D01*
X193254286Y-53340000D01*
X193349524Y-53292381D01*
X194540001Y-53625714D02*
X194540001Y-54292381D01*
X194111429Y-53625714D02*
X194111429Y-54149524D01*
X194159048Y-54244762D01*
X194254286Y-54292381D01*
X194397144Y-54292381D01*
X194492382Y-54244762D01*
X194540001Y-54197143D01*
X195349525Y-53768571D02*
X195016191Y-53768571D01*
X195016191Y-54292381D02*
X195016191Y-53292381D01*
X195492382Y-53292381D01*
X191397143Y-57507143D02*
X191349524Y-57554762D01*
X191206667Y-57602381D01*
X191111429Y-57602381D01*
X190968571Y-57554762D01*
X190873333Y-57459524D01*
X190825714Y-57364286D01*
X190778095Y-57173810D01*
X190778095Y-57030952D01*
X190825714Y-56840476D01*
X190873333Y-56745238D01*
X190968571Y-56650000D01*
X191111429Y-56602381D01*
X191206667Y-56602381D01*
X191349524Y-56650000D01*
X191397143Y-56697619D01*
X192349524Y-57602381D02*
X191778095Y-57602381D01*
X192063809Y-57602381D02*
X192063809Y-56602381D01*
X191968571Y-56745238D01*
X191873333Y-56840476D01*
X191778095Y-56888095D01*
X193301905Y-57602381D02*
X192730476Y-57602381D01*
X193016190Y-57602381D02*
X193016190Y-56602381D01*
X192920952Y-56745238D01*
X192825714Y-56840476D01*
X192730476Y-56888095D01*
X155857143Y-69532381D02*
X155952382Y-69532381D01*
X156047620Y-69580000D01*
X156095239Y-69627619D01*
X156142858Y-69722857D01*
X156190477Y-69913333D01*
X156190477Y-70151429D01*
X156142858Y-70341905D01*
X156095239Y-70437143D01*
X156047620Y-70484762D01*
X155952382Y-70532381D01*
X155857143Y-70532381D01*
X155761905Y-70484762D01*
X155714286Y-70437143D01*
X155666667Y-70341905D01*
X155619048Y-70151429D01*
X155619048Y-69913333D01*
X155666667Y-69722857D01*
X155714286Y-69627619D01*
X155761905Y-69580000D01*
X155857143Y-69532381D01*
X156619048Y-70437143D02*
X156666667Y-70484762D01*
X156619048Y-70532381D01*
X156571429Y-70484762D01*
X156619048Y-70437143D01*
X156619048Y-70532381D01*
X157619048Y-70532381D02*
X157047619Y-70532381D01*
X157333333Y-70532381D02*
X157333333Y-69532381D01*
X157238095Y-69675238D01*
X157142857Y-69770476D01*
X157047619Y-69818095D01*
X158476191Y-69865714D02*
X158476191Y-70532381D01*
X158047619Y-69865714D02*
X158047619Y-70389524D01*
X158095238Y-70484762D01*
X158190476Y-70532381D01*
X158333334Y-70532381D01*
X158428572Y-70484762D01*
X158476191Y-70437143D01*
X159285715Y-70008571D02*
X158952381Y-70008571D01*
X158952381Y-70532381D02*
X158952381Y-69532381D01*
X159428572Y-69532381D01*
X156857143Y-72747143D02*
X156809524Y-72794762D01*
X156666667Y-72842381D01*
X156571429Y-72842381D01*
X156428571Y-72794762D01*
X156333333Y-72699524D01*
X156285714Y-72604286D01*
X156238095Y-72413810D01*
X156238095Y-72270952D01*
X156285714Y-72080476D01*
X156333333Y-71985238D01*
X156428571Y-71890000D01*
X156571429Y-71842381D01*
X156666667Y-71842381D01*
X156809524Y-71890000D01*
X156857143Y-71937619D01*
X157809524Y-72842381D02*
X157238095Y-72842381D01*
X157523809Y-72842381D02*
X157523809Y-71842381D01*
X157428571Y-71985238D01*
X157333333Y-72080476D01*
X157238095Y-72128095D01*
X158190476Y-71937619D02*
X158238095Y-71890000D01*
X158333333Y-71842381D01*
X158571429Y-71842381D01*
X158666667Y-71890000D01*
X158714286Y-71937619D01*
X158761905Y-72032857D01*
X158761905Y-72128095D01*
X158714286Y-72270952D01*
X158142857Y-72842381D01*
X158761905Y-72842381D01*
X63708095Y-78541429D02*
X64470000Y-78541429D01*
X64089048Y-78922381D02*
X64089048Y-78160476D01*
X65470000Y-78922381D02*
X64898571Y-78922381D01*
X65184285Y-78922381D02*
X65184285Y-77922381D01*
X65089047Y-78065238D01*
X64993809Y-78160476D01*
X64898571Y-78208095D01*
X65803333Y-77922381D02*
X66422381Y-77922381D01*
X66089047Y-78303333D01*
X66231905Y-78303333D01*
X66327143Y-78350952D01*
X66374762Y-78398571D01*
X66422381Y-78493810D01*
X66422381Y-78731905D01*
X66374762Y-78827143D01*
X66327143Y-78874762D01*
X66231905Y-78922381D01*
X65946190Y-78922381D01*
X65850952Y-78874762D01*
X65803333Y-78827143D01*
X66708095Y-77922381D02*
X67041428Y-78922381D01*
X67374762Y-77922381D01*
X64993810Y-74382381D02*
X64993810Y-73382381D01*
X65993810Y-74382381D02*
X65422381Y-74382381D01*
X65708095Y-74382381D02*
X65708095Y-73382381D01*
X65612857Y-73525238D01*
X65517619Y-73620476D01*
X65422381Y-73668095D01*
X63708095Y-92511429D02*
X64470000Y-92511429D01*
X65470000Y-92892381D02*
X64898571Y-92892381D01*
X65184285Y-92892381D02*
X65184285Y-91892381D01*
X65089047Y-92035238D01*
X64993809Y-92130476D01*
X64898571Y-92178095D01*
X65803333Y-91892381D02*
X66422381Y-91892381D01*
X66089047Y-92273333D01*
X66231905Y-92273333D01*
X66327143Y-92320952D01*
X66374762Y-92368571D01*
X66422381Y-92463810D01*
X66422381Y-92701905D01*
X66374762Y-92797143D01*
X66327143Y-92844762D01*
X66231905Y-92892381D01*
X65946190Y-92892381D01*
X65850952Y-92844762D01*
X65803333Y-92797143D01*
X66708095Y-91892381D02*
X67041428Y-92892381D01*
X67374762Y-91892381D01*
X64993810Y-88352381D02*
X64993810Y-87352381D01*
X65422381Y-87447619D02*
X65470000Y-87400000D01*
X65565238Y-87352381D01*
X65803334Y-87352381D01*
X65898572Y-87400000D01*
X65946191Y-87447619D01*
X65993810Y-87542857D01*
X65993810Y-87638095D01*
X65946191Y-87780952D01*
X65374762Y-88352381D01*
X65993810Y-88352381D01*
X155051905Y-55542381D02*
X155051905Y-54542381D01*
X155528095Y-55542381D02*
X155528095Y-54542381D01*
X156099524Y-55542381D01*
X156099524Y-54542381D01*
X156575714Y-55542381D02*
X156575714Y-54542381D01*
X156813809Y-54542381D01*
X156956667Y-54590000D01*
X157051905Y-54685238D01*
X157099524Y-54780476D01*
X157147143Y-54970952D01*
X157147143Y-55113810D01*
X157099524Y-55304286D01*
X157051905Y-55399524D01*
X156956667Y-55494762D01*
X156813809Y-55542381D01*
X156575714Y-55542381D01*
X157575714Y-54542381D02*
X157575714Y-55351905D01*
X157623333Y-55447143D01*
X157670952Y-55494762D01*
X157766190Y-55542381D01*
X157956667Y-55542381D01*
X158051905Y-55494762D01*
X158099524Y-55447143D01*
X158147143Y-55351905D01*
X158147143Y-54542381D01*
X159194762Y-55447143D02*
X159147143Y-55494762D01*
X159004286Y-55542381D01*
X158909048Y-55542381D01*
X158766190Y-55494762D01*
X158670952Y-55399524D01*
X158623333Y-55304286D01*
X158575714Y-55113810D01*
X158575714Y-54970952D01*
X158623333Y-54780476D01*
X158670952Y-54685238D01*
X158766190Y-54590000D01*
X158909048Y-54542381D01*
X159004286Y-54542381D01*
X159147143Y-54590000D01*
X159194762Y-54637619D01*
X159480476Y-54542381D02*
X160051905Y-54542381D01*
X159766190Y-55542381D02*
X159766190Y-54542381D01*
X160575714Y-54542381D02*
X160766191Y-54542381D01*
X160861429Y-54590000D01*
X160956667Y-54685238D01*
X161004286Y-54875714D01*
X161004286Y-55209048D01*
X160956667Y-55399524D01*
X160861429Y-55494762D01*
X160766191Y-55542381D01*
X160575714Y-55542381D01*
X160480476Y-55494762D01*
X160385238Y-55399524D01*
X160337619Y-55209048D01*
X160337619Y-54875714D01*
X160385238Y-54685238D01*
X160480476Y-54590000D01*
X160575714Y-54542381D01*
X162004286Y-55542381D02*
X161670952Y-55066190D01*
X161432857Y-55542381D02*
X161432857Y-54542381D01*
X161813810Y-54542381D01*
X161909048Y-54590000D01*
X161956667Y-54637619D01*
X162004286Y-54732857D01*
X162004286Y-54875714D01*
X161956667Y-54970952D01*
X161909048Y-55018571D01*
X161813810Y-55066190D01*
X161432857Y-55066190D01*
X163718572Y-55542381D02*
X163147143Y-55542381D01*
X163432857Y-55542381D02*
X163432857Y-54542381D01*
X163337619Y-54685238D01*
X163242381Y-54780476D01*
X163147143Y-54828095D01*
X164337619Y-54542381D02*
X164432858Y-54542381D01*
X164528096Y-54590000D01*
X164575715Y-54637619D01*
X164623334Y-54732857D01*
X164670953Y-54923333D01*
X164670953Y-55161429D01*
X164623334Y-55351905D01*
X164575715Y-55447143D01*
X164528096Y-55494762D01*
X164432858Y-55542381D01*
X164337619Y-55542381D01*
X164242381Y-55494762D01*
X164194762Y-55447143D01*
X164147143Y-55351905D01*
X164099524Y-55161429D01*
X164099524Y-54923333D01*
X164147143Y-54732857D01*
X164194762Y-54637619D01*
X164242381Y-54590000D01*
X164337619Y-54542381D01*
X165290000Y-54542381D02*
X165385239Y-54542381D01*
X165480477Y-54590000D01*
X165528096Y-54637619D01*
X165575715Y-54732857D01*
X165623334Y-54923333D01*
X165623334Y-55161429D01*
X165575715Y-55351905D01*
X165528096Y-55447143D01*
X165480477Y-55494762D01*
X165385239Y-55542381D01*
X165290000Y-55542381D01*
X165194762Y-55494762D01*
X165147143Y-55447143D01*
X165099524Y-55351905D01*
X165051905Y-55161429D01*
X165051905Y-54923333D01*
X165099524Y-54732857D01*
X165147143Y-54637619D01*
X165194762Y-54590000D01*
X165290000Y-54542381D01*
X166480477Y-54875714D02*
X166480477Y-55542381D01*
X166051905Y-54875714D02*
X166051905Y-55399524D01*
X166099524Y-55494762D01*
X166194762Y-55542381D01*
X166337620Y-55542381D01*
X166432858Y-55494762D01*
X166480477Y-55447143D01*
X166956667Y-55542381D02*
X166956667Y-54542381D01*
X166956667Y-55018571D02*
X167528096Y-55018571D01*
X167528096Y-55542381D02*
X167528096Y-54542381D01*
X207088095Y-75271429D02*
X207850000Y-75271429D01*
X207469048Y-75652381D02*
X207469048Y-74890476D01*
X208850000Y-75652381D02*
X208278571Y-75652381D01*
X208564285Y-75652381D02*
X208564285Y-74652381D01*
X208469047Y-74795238D01*
X208373809Y-74890476D01*
X208278571Y-74938095D01*
X209326190Y-75652381D02*
X209516666Y-75652381D01*
X209611905Y-75604762D01*
X209659524Y-75557143D01*
X209754762Y-75414286D01*
X209802381Y-75223810D01*
X209802381Y-74842857D01*
X209754762Y-74747619D01*
X209707143Y-74700000D01*
X209611905Y-74652381D01*
X209421428Y-74652381D01*
X209326190Y-74700000D01*
X209278571Y-74747619D01*
X209230952Y-74842857D01*
X209230952Y-75080952D01*
X209278571Y-75176190D01*
X209326190Y-75223810D01*
X209421428Y-75271429D01*
X209611905Y-75271429D01*
X209707143Y-75223810D01*
X209754762Y-75176190D01*
X209802381Y-75080952D01*
X210088095Y-74652381D02*
X210421428Y-75652381D01*
X210754762Y-74652381D01*
X208278571Y-79192381D02*
X208469048Y-79192381D01*
X208564286Y-79240000D01*
X208659524Y-79335238D01*
X208707143Y-79525714D01*
X208707143Y-79859048D01*
X208659524Y-80049524D01*
X208564286Y-80144762D01*
X208469048Y-80192381D01*
X208278571Y-80192381D01*
X208183333Y-80144762D01*
X208088095Y-80049524D01*
X208040476Y-79859048D01*
X208040476Y-79525714D01*
X208088095Y-79335238D01*
X208183333Y-79240000D01*
X208278571Y-79192381D01*
X209659524Y-80192381D02*
X209088095Y-80192381D01*
X209373809Y-80192381D02*
X209373809Y-79192381D01*
X209278571Y-79335238D01*
X209183333Y-79430476D01*
X209088095Y-79478095D01*
X207088095Y-89241429D02*
X207850000Y-89241429D01*
X208850000Y-89622381D02*
X208278571Y-89622381D01*
X208564285Y-89622381D02*
X208564285Y-88622381D01*
X208469047Y-88765238D01*
X208373809Y-88860476D01*
X208278571Y-88908095D01*
X209326190Y-89622381D02*
X209516666Y-89622381D01*
X209611905Y-89574762D01*
X209659524Y-89527143D01*
X209754762Y-89384286D01*
X209802381Y-89193810D01*
X209802381Y-88812857D01*
X209754762Y-88717619D01*
X209707143Y-88670000D01*
X209611905Y-88622381D01*
X209421428Y-88622381D01*
X209326190Y-88670000D01*
X209278571Y-88717619D01*
X209230952Y-88812857D01*
X209230952Y-89050952D01*
X209278571Y-89146190D01*
X209326190Y-89193810D01*
X209421428Y-89241429D01*
X209611905Y-89241429D01*
X209707143Y-89193810D01*
X209754762Y-89146190D01*
X209802381Y-89050952D01*
X210088095Y-88622381D02*
X210421428Y-89622381D01*
X210754762Y-88622381D01*
X208278571Y-93162381D02*
X208469048Y-93162381D01*
X208564286Y-93210000D01*
X208659524Y-93305238D01*
X208707143Y-93495714D01*
X208707143Y-93829048D01*
X208659524Y-94019524D01*
X208564286Y-94114762D01*
X208469048Y-94162381D01*
X208278571Y-94162381D01*
X208183333Y-94114762D01*
X208088095Y-94019524D01*
X208040476Y-93829048D01*
X208040476Y-93495714D01*
X208088095Y-93305238D01*
X208183333Y-93210000D01*
X208278571Y-93162381D01*
X209088095Y-93257619D02*
X209135714Y-93210000D01*
X209230952Y-93162381D01*
X209469048Y-93162381D01*
X209564286Y-93210000D01*
X209611905Y-93257619D01*
X209659524Y-93352857D01*
X209659524Y-93448095D01*
X209611905Y-93590952D01*
X209040476Y-94162381D01*
X209659524Y-94162381D01*
X92535714Y-57122381D02*
X91964285Y-57122381D01*
X92249999Y-57122381D02*
X92249999Y-56122381D01*
X92154761Y-56265238D01*
X92059523Y-56360476D01*
X91964285Y-56408095D01*
X93154761Y-56122381D02*
X93250000Y-56122381D01*
X93345238Y-56170000D01*
X93392857Y-56217619D01*
X93440476Y-56312857D01*
X93488095Y-56503333D01*
X93488095Y-56741429D01*
X93440476Y-56931905D01*
X93392857Y-57027143D01*
X93345238Y-57074762D01*
X93250000Y-57122381D01*
X93154761Y-57122381D01*
X93059523Y-57074762D01*
X93011904Y-57027143D01*
X92964285Y-56931905D01*
X92916666Y-56741429D01*
X92916666Y-56503333D01*
X92964285Y-56312857D01*
X93011904Y-56217619D01*
X93059523Y-56170000D01*
X93154761Y-56122381D01*
X93869047Y-56836667D02*
X94345238Y-56836667D01*
X93773809Y-57122381D02*
X94107142Y-56122381D01*
X94440476Y-57122381D01*
X95869048Y-56598571D02*
X95535714Y-56598571D01*
X95535714Y-57122381D02*
X95535714Y-56122381D01*
X96011905Y-56122381D01*
X96821429Y-56455714D02*
X96821429Y-57122381D01*
X96392857Y-56455714D02*
X96392857Y-56979524D01*
X96440476Y-57074762D01*
X96535714Y-57122381D01*
X96678572Y-57122381D01*
X96773810Y-57074762D01*
X96821429Y-57027143D01*
X97250000Y-57074762D02*
X97345238Y-57122381D01*
X97535714Y-57122381D01*
X97630953Y-57074762D01*
X97678572Y-56979524D01*
X97678572Y-56931905D01*
X97630953Y-56836667D01*
X97535714Y-56789048D01*
X97392857Y-56789048D01*
X97297619Y-56741429D01*
X97250000Y-56646190D01*
X97250000Y-56598571D01*
X97297619Y-56503333D01*
X97392857Y-56455714D01*
X97535714Y-56455714D01*
X97630953Y-56503333D01*
X98488096Y-57074762D02*
X98392858Y-57122381D01*
X98202381Y-57122381D01*
X98107143Y-57074762D01*
X98059524Y-56979524D01*
X98059524Y-56598571D01*
X98107143Y-56503333D01*
X98202381Y-56455714D01*
X98392858Y-56455714D01*
X98488096Y-56503333D01*
X98535715Y-56598571D01*
X98535715Y-56693810D01*
X98059524Y-56789048D01*
X102529048Y-77485714D02*
X102529048Y-78152381D01*
X102290952Y-77104762D02*
X102052857Y-77819048D01*
X102671905Y-77819048D01*
X103052857Y-78057143D02*
X103100476Y-78104762D01*
X103052857Y-78152381D01*
X103005238Y-78104762D01*
X103052857Y-78057143D01*
X103052857Y-78152381D01*
X103433809Y-77152381D02*
X104100476Y-77152381D01*
X103671904Y-78152381D01*
X104481428Y-78152381D02*
X104481428Y-77152381D01*
X104576666Y-77771429D02*
X104862381Y-78152381D01*
X104862381Y-77485714D02*
X104481428Y-77866667D01*
X106195714Y-78152381D02*
X106100476Y-78104762D01*
X106052857Y-78057143D01*
X106005238Y-77961905D01*
X106005238Y-77676190D01*
X106052857Y-77580952D01*
X106100476Y-77533333D01*
X106195714Y-77485714D01*
X106338572Y-77485714D01*
X106433810Y-77533333D01*
X106481429Y-77580952D01*
X106529048Y-77676190D01*
X106529048Y-77961905D01*
X106481429Y-78057143D01*
X106433810Y-78104762D01*
X106338572Y-78152381D01*
X106195714Y-78152381D01*
X106957619Y-78152381D02*
X106957619Y-77152381D01*
X107386191Y-78152381D02*
X107386191Y-77628571D01*
X107338572Y-77533333D01*
X107243334Y-77485714D01*
X107100476Y-77485714D01*
X107005238Y-77533333D01*
X106957619Y-77580952D01*
X107862381Y-78152381D02*
X107862381Y-77485714D01*
X107862381Y-77580952D02*
X107910000Y-77533333D01*
X108005238Y-77485714D01*
X108148096Y-77485714D01*
X108243334Y-77533333D01*
X108290953Y-77628571D01*
X108290953Y-78152381D01*
X108290953Y-77628571D02*
X108338572Y-77533333D01*
X108433810Y-77485714D01*
X108576667Y-77485714D01*
X108671905Y-77533333D01*
X108719524Y-77628571D01*
X108719524Y-78152381D01*
X91455714Y-96860952D02*
X92122381Y-96860952D01*
X91074762Y-97099048D02*
X91789048Y-97337143D01*
X91789048Y-96718095D01*
X92027143Y-96337143D02*
X92074762Y-96289524D01*
X92122381Y-96337143D01*
X92074762Y-96384762D01*
X92027143Y-96337143D01*
X92122381Y-96337143D01*
X91122381Y-95956191D02*
X91122381Y-95289524D01*
X92122381Y-95718096D01*
X92122381Y-94908572D02*
X91122381Y-94908572D01*
X91741429Y-94813334D02*
X92122381Y-94527619D01*
X91455714Y-94527619D02*
X91836667Y-94908572D01*
X92122381Y-93194286D02*
X92074762Y-93289524D01*
X92027143Y-93337143D01*
X91931905Y-93384762D01*
X91646190Y-93384762D01*
X91550952Y-93337143D01*
X91503333Y-93289524D01*
X91455714Y-93194286D01*
X91455714Y-93051428D01*
X91503333Y-92956190D01*
X91550952Y-92908571D01*
X91646190Y-92860952D01*
X91931905Y-92860952D01*
X92027143Y-92908571D01*
X92074762Y-92956190D01*
X92122381Y-93051428D01*
X92122381Y-93194286D01*
X92122381Y-92432381D02*
X91122381Y-92432381D01*
X92122381Y-92003809D02*
X91598571Y-92003809D01*
X91503333Y-92051428D01*
X91455714Y-92146666D01*
X91455714Y-92289524D01*
X91503333Y-92384762D01*
X91550952Y-92432381D01*
X92122381Y-91527619D02*
X91455714Y-91527619D01*
X91550952Y-91527619D02*
X91503333Y-91480000D01*
X91455714Y-91384762D01*
X91455714Y-91241904D01*
X91503333Y-91146666D01*
X91598571Y-91099047D01*
X92122381Y-91099047D01*
X91598571Y-91099047D02*
X91503333Y-91051428D01*
X91455714Y-90956190D01*
X91455714Y-90813333D01*
X91503333Y-90718095D01*
X91598571Y-90670476D01*
X92122381Y-90670476D01*
X116022857Y-100917619D02*
X116070476Y-100870000D01*
X116165714Y-100822381D01*
X116403810Y-100822381D01*
X116499048Y-100870000D01*
X116546667Y-100917619D01*
X116594286Y-101012857D01*
X116594286Y-101108095D01*
X116546667Y-101250952D01*
X115975238Y-101822381D01*
X116594286Y-101822381D01*
X117022857Y-101727143D02*
X117070476Y-101774762D01*
X117022857Y-101822381D01*
X116975238Y-101774762D01*
X117022857Y-101727143D01*
X117022857Y-101822381D01*
X117927619Y-101155714D02*
X117927619Y-101822381D01*
X117689523Y-100774762D02*
X117451428Y-101489048D01*
X118070476Y-101489048D01*
X118451428Y-101822381D02*
X118451428Y-100822381D01*
X118546666Y-101441429D02*
X118832381Y-101822381D01*
X118832381Y-101155714D02*
X118451428Y-101536667D01*
X120165714Y-101822381D02*
X120070476Y-101774762D01*
X120022857Y-101727143D01*
X119975238Y-101631905D01*
X119975238Y-101346190D01*
X120022857Y-101250952D01*
X120070476Y-101203333D01*
X120165714Y-101155714D01*
X120308572Y-101155714D01*
X120403810Y-101203333D01*
X120451429Y-101250952D01*
X120499048Y-101346190D01*
X120499048Y-101631905D01*
X120451429Y-101727143D01*
X120403810Y-101774762D01*
X120308572Y-101822381D01*
X120165714Y-101822381D01*
X120927619Y-101822381D02*
X120927619Y-100822381D01*
X121356191Y-101822381D02*
X121356191Y-101298571D01*
X121308572Y-101203333D01*
X121213334Y-101155714D01*
X121070476Y-101155714D01*
X120975238Y-101203333D01*
X120927619Y-101250952D01*
X121832381Y-101822381D02*
X121832381Y-101155714D01*
X121832381Y-101250952D02*
X121880000Y-101203333D01*
X121975238Y-101155714D01*
X122118096Y-101155714D01*
X122213334Y-101203333D01*
X122260953Y-101298571D01*
X122260953Y-101822381D01*
X122260953Y-101298571D02*
X122308572Y-101203333D01*
X122403810Y-101155714D01*
X122546667Y-101155714D01*
X122641905Y-101203333D01*
X122689524Y-101298571D01*
X122689524Y-101822381D01*
X139865714Y-86910952D02*
X140532381Y-86910952D01*
X139484762Y-87149048D02*
X140199048Y-87387143D01*
X140199048Y-86768095D01*
X140437143Y-86387143D02*
X140484762Y-86339524D01*
X140532381Y-86387143D01*
X140484762Y-86434762D01*
X140437143Y-86387143D01*
X140532381Y-86387143D01*
X139532381Y-86006191D02*
X139532381Y-85339524D01*
X140532381Y-85768096D01*
X140532381Y-84958572D02*
X139532381Y-84958572D01*
X140151429Y-84863334D02*
X140532381Y-84577619D01*
X139865714Y-84577619D02*
X140246667Y-84958572D01*
X140532381Y-83244286D02*
X140484762Y-83339524D01*
X140437143Y-83387143D01*
X140341905Y-83434762D01*
X140056190Y-83434762D01*
X139960952Y-83387143D01*
X139913333Y-83339524D01*
X139865714Y-83244286D01*
X139865714Y-83101428D01*
X139913333Y-83006190D01*
X139960952Y-82958571D01*
X140056190Y-82910952D01*
X140341905Y-82910952D01*
X140437143Y-82958571D01*
X140484762Y-83006190D01*
X140532381Y-83101428D01*
X140532381Y-83244286D01*
X140532381Y-82482381D02*
X139532381Y-82482381D01*
X140532381Y-82053809D02*
X140008571Y-82053809D01*
X139913333Y-82101428D01*
X139865714Y-82196666D01*
X139865714Y-82339524D01*
X139913333Y-82434762D01*
X139960952Y-82482381D01*
X140532381Y-81577619D02*
X139865714Y-81577619D01*
X139960952Y-81577619D02*
X139913333Y-81530000D01*
X139865714Y-81434762D01*
X139865714Y-81291904D01*
X139913333Y-81196666D01*
X140008571Y-81149047D01*
X140532381Y-81149047D01*
X140008571Y-81149047D02*
X139913333Y-81101428D01*
X139865714Y-81006190D01*
X139865714Y-80863333D01*
X139913333Y-80768095D01*
X140008571Y-80720476D01*
X140532381Y-80720476D01*
X134032381Y-86367619D02*
X134032381Y-86939048D01*
X134032381Y-86653334D02*
X133032381Y-86653334D01*
X133175238Y-86748572D01*
X133270476Y-86843810D01*
X133318095Y-86939048D01*
X133127619Y-85986667D02*
X133080000Y-85939048D01*
X133032381Y-85843810D01*
X133032381Y-85605714D01*
X133080000Y-85510476D01*
X133127619Y-85462857D01*
X133222857Y-85415238D01*
X133318095Y-85415238D01*
X133460952Y-85462857D01*
X134032381Y-86034286D01*
X134032381Y-85415238D01*
X134032381Y-84986667D02*
X133032381Y-84986667D01*
X133651429Y-84891429D02*
X134032381Y-84605714D01*
X133365714Y-84605714D02*
X133746667Y-84986667D01*
X134032381Y-83272381D02*
X133984762Y-83367619D01*
X133937143Y-83415238D01*
X133841905Y-83462857D01*
X133556190Y-83462857D01*
X133460952Y-83415238D01*
X133413333Y-83367619D01*
X133365714Y-83272381D01*
X133365714Y-83129523D01*
X133413333Y-83034285D01*
X133460952Y-82986666D01*
X133556190Y-82939047D01*
X133841905Y-82939047D01*
X133937143Y-82986666D01*
X133984762Y-83034285D01*
X134032381Y-83129523D01*
X134032381Y-83272381D01*
X134032381Y-82510476D02*
X133032381Y-82510476D01*
X134032381Y-82081904D02*
X133508571Y-82081904D01*
X133413333Y-82129523D01*
X133365714Y-82224761D01*
X133365714Y-82367619D01*
X133413333Y-82462857D01*
X133460952Y-82510476D01*
X134032381Y-81605714D02*
X133365714Y-81605714D01*
X133460952Y-81605714D02*
X133413333Y-81558095D01*
X133365714Y-81462857D01*
X133365714Y-81319999D01*
X133413333Y-81224761D01*
X133508571Y-81177142D01*
X134032381Y-81177142D01*
X133508571Y-81177142D02*
X133413333Y-81129523D01*
X133365714Y-81034285D01*
X133365714Y-80891428D01*
X133413333Y-80796190D01*
X133508571Y-80748571D01*
X134032381Y-80748571D01*
X88249524Y-113522381D02*
X88344763Y-113522381D01*
X88440001Y-113570000D01*
X88487620Y-113617619D01*
X88535239Y-113712857D01*
X88582858Y-113903333D01*
X88582858Y-114141429D01*
X88535239Y-114331905D01*
X88487620Y-114427143D01*
X88440001Y-114474762D01*
X88344763Y-114522381D01*
X88249524Y-114522381D01*
X88154286Y-114474762D01*
X88106667Y-114427143D01*
X88059048Y-114331905D01*
X88011429Y-114141429D01*
X88011429Y-113903333D01*
X88059048Y-113712857D01*
X88106667Y-113617619D01*
X88154286Y-113570000D01*
X88249524Y-113522381D01*
X89011429Y-114427143D02*
X89059048Y-114474762D01*
X89011429Y-114522381D01*
X88963810Y-114474762D01*
X89011429Y-114427143D01*
X89011429Y-114522381D01*
X89678095Y-113522381D02*
X89773334Y-113522381D01*
X89868572Y-113570000D01*
X89916191Y-113617619D01*
X89963810Y-113712857D01*
X90011429Y-113903333D01*
X90011429Y-114141429D01*
X89963810Y-114331905D01*
X89916191Y-114427143D01*
X89868572Y-114474762D01*
X89773334Y-114522381D01*
X89678095Y-114522381D01*
X89582857Y-114474762D01*
X89535238Y-114427143D01*
X89487619Y-114331905D01*
X89440000Y-114141429D01*
X89440000Y-113903333D01*
X89487619Y-113712857D01*
X89535238Y-113617619D01*
X89582857Y-113570000D01*
X89678095Y-113522381D01*
X90868572Y-113855714D02*
X90868572Y-114522381D01*
X90630476Y-113474762D02*
X90392381Y-114189048D01*
X91011429Y-114189048D01*
X92297143Y-114522381D02*
X92201905Y-114474762D01*
X92154286Y-114427143D01*
X92106667Y-114331905D01*
X92106667Y-114046190D01*
X92154286Y-113950952D01*
X92201905Y-113903333D01*
X92297143Y-113855714D01*
X92440001Y-113855714D01*
X92535239Y-113903333D01*
X92582858Y-113950952D01*
X92630477Y-114046190D01*
X92630477Y-114331905D01*
X92582858Y-114427143D01*
X92535239Y-114474762D01*
X92440001Y-114522381D01*
X92297143Y-114522381D01*
X93059048Y-114522381D02*
X93059048Y-113522381D01*
X93487620Y-114522381D02*
X93487620Y-113998571D01*
X93440001Y-113903333D01*
X93344763Y-113855714D01*
X93201905Y-113855714D01*
X93106667Y-113903333D01*
X93059048Y-113950952D01*
X93963810Y-114522381D02*
X93963810Y-113855714D01*
X93963810Y-113950952D02*
X94011429Y-113903333D01*
X94106667Y-113855714D01*
X94249525Y-113855714D01*
X94344763Y-113903333D01*
X94392382Y-113998571D01*
X94392382Y-114522381D01*
X94392382Y-113998571D02*
X94440001Y-113903333D01*
X94535239Y-113855714D01*
X94678096Y-113855714D01*
X94773334Y-113903333D01*
X94820953Y-113998571D01*
X94820953Y-114522381D01*
X102647619Y-114712381D02*
X102600000Y-114664762D01*
X102552381Y-114569524D01*
X102552381Y-114331428D01*
X102600000Y-114236190D01*
X102647619Y-114188571D01*
X102742857Y-114140952D01*
X102838095Y-114140952D01*
X102980952Y-114188571D01*
X103552381Y-114760000D01*
X103552381Y-114140952D01*
X103457143Y-113712381D02*
X103504762Y-113664762D01*
X103552381Y-113712381D01*
X103504762Y-113760000D01*
X103457143Y-113712381D01*
X103552381Y-113712381D01*
X102552381Y-113331429D02*
X102552381Y-112664762D01*
X103552381Y-113093334D01*
X103552381Y-111379048D02*
X103504762Y-111474286D01*
X103457143Y-111521905D01*
X103361905Y-111569524D01*
X103076190Y-111569524D01*
X102980952Y-111521905D01*
X102933333Y-111474286D01*
X102885714Y-111379048D01*
X102885714Y-111236190D01*
X102933333Y-111140952D01*
X102980952Y-111093333D01*
X103076190Y-111045714D01*
X103361905Y-111045714D01*
X103457143Y-111093333D01*
X103504762Y-111140952D01*
X103552381Y-111236190D01*
X103552381Y-111379048D01*
X103552381Y-110617143D02*
X102552381Y-110617143D01*
X103552381Y-110188571D02*
X103028571Y-110188571D01*
X102933333Y-110236190D01*
X102885714Y-110331428D01*
X102885714Y-110474286D01*
X102933333Y-110569524D01*
X102980952Y-110617143D01*
X103552381Y-109712381D02*
X102885714Y-109712381D01*
X102980952Y-109712381D02*
X102933333Y-109664762D01*
X102885714Y-109569524D01*
X102885714Y-109426666D01*
X102933333Y-109331428D01*
X103028571Y-109283809D01*
X103552381Y-109283809D01*
X103028571Y-109283809D02*
X102933333Y-109236190D01*
X102885714Y-109140952D01*
X102885714Y-108998095D01*
X102933333Y-108902857D01*
X103028571Y-108855238D01*
X103552381Y-108855238D01*
X131745714Y-110830952D02*
X132412381Y-110830952D01*
X131364762Y-111069048D02*
X132079048Y-111307143D01*
X132079048Y-110688095D01*
X132317143Y-110307143D02*
X132364762Y-110259524D01*
X132412381Y-110307143D01*
X132364762Y-110354762D01*
X132317143Y-110307143D01*
X132412381Y-110307143D01*
X131412381Y-109926191D02*
X131412381Y-109259524D01*
X132412381Y-109688096D01*
X132412381Y-108878572D02*
X131412381Y-108878572D01*
X132031429Y-108783334D02*
X132412381Y-108497619D01*
X131745714Y-108497619D02*
X132126667Y-108878572D01*
X132412381Y-107164286D02*
X132364762Y-107259524D01*
X132317143Y-107307143D01*
X132221905Y-107354762D01*
X131936190Y-107354762D01*
X131840952Y-107307143D01*
X131793333Y-107259524D01*
X131745714Y-107164286D01*
X131745714Y-107021428D01*
X131793333Y-106926190D01*
X131840952Y-106878571D01*
X131936190Y-106830952D01*
X132221905Y-106830952D01*
X132317143Y-106878571D01*
X132364762Y-106926190D01*
X132412381Y-107021428D01*
X132412381Y-107164286D01*
X132412381Y-106402381D02*
X131412381Y-106402381D01*
X132412381Y-105973809D02*
X131888571Y-105973809D01*
X131793333Y-106021428D01*
X131745714Y-106116666D01*
X131745714Y-106259524D01*
X131793333Y-106354762D01*
X131840952Y-106402381D01*
X132412381Y-105497619D02*
X131745714Y-105497619D01*
X131840952Y-105497619D02*
X131793333Y-105450000D01*
X131745714Y-105354762D01*
X131745714Y-105211904D01*
X131793333Y-105116666D01*
X131888571Y-105069047D01*
X132412381Y-105069047D01*
X131888571Y-105069047D02*
X131793333Y-105021428D01*
X131745714Y-104926190D01*
X131745714Y-104783333D01*
X131793333Y-104688095D01*
X131888571Y-104640476D01*
X132412381Y-104640476D01*
X169211905Y-116252381D02*
X168640476Y-116252381D01*
X168926190Y-116252381D02*
X168926190Y-115252381D01*
X168830952Y-115395238D01*
X168735714Y-115490476D01*
X168640476Y-115538095D01*
X169640476Y-116252381D02*
X169640476Y-115252381D01*
X169973810Y-115966667D01*
X170307143Y-115252381D01*
X170307143Y-116252381D01*
X171688095Y-116252381D02*
X171592857Y-116204762D01*
X171545238Y-116157143D01*
X171497619Y-116061905D01*
X171497619Y-115776190D01*
X171545238Y-115680952D01*
X171592857Y-115633333D01*
X171688095Y-115585714D01*
X171830953Y-115585714D01*
X171926191Y-115633333D01*
X171973810Y-115680952D01*
X172021429Y-115776190D01*
X172021429Y-116061905D01*
X171973810Y-116157143D01*
X171926191Y-116204762D01*
X171830953Y-116252381D01*
X171688095Y-116252381D01*
X172450000Y-116252381D02*
X172450000Y-115252381D01*
X172878572Y-116252381D02*
X172878572Y-115728571D01*
X172830953Y-115633333D01*
X172735715Y-115585714D01*
X172592857Y-115585714D01*
X172497619Y-115633333D01*
X172450000Y-115680952D01*
X173354762Y-116252381D02*
X173354762Y-115585714D01*
X173354762Y-115680952D02*
X173402381Y-115633333D01*
X173497619Y-115585714D01*
X173640477Y-115585714D01*
X173735715Y-115633333D01*
X173783334Y-115728571D01*
X173783334Y-116252381D01*
X173783334Y-115728571D02*
X173830953Y-115633333D01*
X173926191Y-115585714D01*
X174069048Y-115585714D01*
X174164286Y-115633333D01*
X174211905Y-115728571D01*
X174211905Y-116252381D01*
X182062857Y-120427619D02*
X182110476Y-120380000D01*
X182205714Y-120332381D01*
X182443810Y-120332381D01*
X182539048Y-120380000D01*
X182586667Y-120427619D01*
X182634286Y-120522857D01*
X182634286Y-120618095D01*
X182586667Y-120760952D01*
X182015238Y-121332381D01*
X182634286Y-121332381D01*
X183062857Y-121237143D02*
X183110476Y-121284762D01*
X183062857Y-121332381D01*
X183015238Y-121284762D01*
X183062857Y-121237143D01*
X183062857Y-121332381D01*
X183491428Y-120427619D02*
X183539047Y-120380000D01*
X183634285Y-120332381D01*
X183872381Y-120332381D01*
X183967619Y-120380000D01*
X184015238Y-120427619D01*
X184062857Y-120522857D01*
X184062857Y-120618095D01*
X184015238Y-120760952D01*
X183443809Y-121332381D01*
X184062857Y-121332381D01*
X184491428Y-121332381D02*
X184491428Y-120332381D01*
X184586666Y-120951429D02*
X184872381Y-121332381D01*
X184872381Y-120665714D02*
X184491428Y-121046667D01*
X186205714Y-121332381D02*
X186110476Y-121284762D01*
X186062857Y-121237143D01*
X186015238Y-121141905D01*
X186015238Y-120856190D01*
X186062857Y-120760952D01*
X186110476Y-120713333D01*
X186205714Y-120665714D01*
X186348572Y-120665714D01*
X186443810Y-120713333D01*
X186491429Y-120760952D01*
X186539048Y-120856190D01*
X186539048Y-121141905D01*
X186491429Y-121237143D01*
X186443810Y-121284762D01*
X186348572Y-121332381D01*
X186205714Y-121332381D01*
X186967619Y-121332381D02*
X186967619Y-120332381D01*
X187396191Y-121332381D02*
X187396191Y-120808571D01*
X187348572Y-120713333D01*
X187253334Y-120665714D01*
X187110476Y-120665714D01*
X187015238Y-120713333D01*
X186967619Y-120760952D01*
X187872381Y-121332381D02*
X187872381Y-120665714D01*
X187872381Y-120760952D02*
X187920000Y-120713333D01*
X188015238Y-120665714D01*
X188158096Y-120665714D01*
X188253334Y-120713333D01*
X188300953Y-120808571D01*
X188300953Y-121332381D01*
X188300953Y-120808571D02*
X188348572Y-120713333D01*
X188443810Y-120665714D01*
X188586667Y-120665714D01*
X188681905Y-120713333D01*
X188729524Y-120808571D01*
X188729524Y-121332381D01*
X167465715Y-87645714D02*
X167465715Y-88312381D01*
X167227619Y-87264762D02*
X166989524Y-87979048D01*
X167608572Y-87979048D01*
X167894286Y-87312381D02*
X168560953Y-87312381D01*
X168132381Y-88312381D01*
X169132381Y-87312381D02*
X169227620Y-87312381D01*
X169322858Y-87360000D01*
X169370477Y-87407619D01*
X169418096Y-87502857D01*
X169465715Y-87693333D01*
X169465715Y-87931429D01*
X169418096Y-88121905D01*
X169370477Y-88217143D01*
X169322858Y-88264762D01*
X169227620Y-88312381D01*
X169132381Y-88312381D01*
X169037143Y-88264762D01*
X168989524Y-88217143D01*
X168941905Y-88121905D01*
X168894286Y-87931429D01*
X168894286Y-87693333D01*
X168941905Y-87502857D01*
X168989524Y-87407619D01*
X169037143Y-87360000D01*
X169132381Y-87312381D01*
X170799048Y-88312381D02*
X170703810Y-88264762D01*
X170656191Y-88217143D01*
X170608572Y-88121905D01*
X170608572Y-87836190D01*
X170656191Y-87740952D01*
X170703810Y-87693333D01*
X170799048Y-87645714D01*
X170941906Y-87645714D01*
X171037144Y-87693333D01*
X171084763Y-87740952D01*
X171132382Y-87836190D01*
X171132382Y-88121905D01*
X171084763Y-88217143D01*
X171037144Y-88264762D01*
X170941906Y-88312381D01*
X170799048Y-88312381D01*
X171560953Y-88312381D02*
X171560953Y-87312381D01*
X171989525Y-88312381D02*
X171989525Y-87788571D01*
X171941906Y-87693333D01*
X171846668Y-87645714D01*
X171703810Y-87645714D01*
X171608572Y-87693333D01*
X171560953Y-87740952D01*
X172465715Y-88312381D02*
X172465715Y-87645714D01*
X172465715Y-87740952D02*
X172513334Y-87693333D01*
X172608572Y-87645714D01*
X172751430Y-87645714D01*
X172846668Y-87693333D01*
X172894287Y-87788571D01*
X172894287Y-88312381D01*
X172894287Y-87788571D02*
X172941906Y-87693333D01*
X173037144Y-87645714D01*
X173180001Y-87645714D01*
X173275239Y-87693333D01*
X173322858Y-87788571D01*
X173322858Y-88312381D01*
X189698572Y-113252381D02*
X189127143Y-113252381D01*
X189412857Y-113252381D02*
X189412857Y-112252381D01*
X189317619Y-112395238D01*
X189222381Y-112490476D01*
X189127143Y-112538095D01*
X190127143Y-113252381D02*
X190127143Y-112252381D01*
X190222381Y-112871429D02*
X190508096Y-113252381D01*
X190508096Y-112585714D02*
X190127143Y-112966667D01*
X191841429Y-113252381D02*
X191746191Y-113204762D01*
X191698572Y-113157143D01*
X191650953Y-113061905D01*
X191650953Y-112776190D01*
X191698572Y-112680952D01*
X191746191Y-112633333D01*
X191841429Y-112585714D01*
X191984287Y-112585714D01*
X192079525Y-112633333D01*
X192127144Y-112680952D01*
X192174763Y-112776190D01*
X192174763Y-113061905D01*
X192127144Y-113157143D01*
X192079525Y-113204762D01*
X191984287Y-113252381D01*
X191841429Y-113252381D01*
X192603334Y-113252381D02*
X192603334Y-112252381D01*
X193031906Y-113252381D02*
X193031906Y-112728571D01*
X192984287Y-112633333D01*
X192889049Y-112585714D01*
X192746191Y-112585714D01*
X192650953Y-112633333D01*
X192603334Y-112680952D01*
X193508096Y-113252381D02*
X193508096Y-112585714D01*
X193508096Y-112680952D02*
X193555715Y-112633333D01*
X193650953Y-112585714D01*
X193793811Y-112585714D01*
X193889049Y-112633333D01*
X193936668Y-112728571D01*
X193936668Y-113252381D01*
X193936668Y-112728571D02*
X193984287Y-112633333D01*
X194079525Y-112585714D01*
X194222382Y-112585714D01*
X194317620Y-112633333D01*
X194365239Y-112728571D01*
X194365239Y-113252381D01*
X185174286Y-95932381D02*
X184602857Y-95932381D01*
X184888571Y-95932381D02*
X184888571Y-94932381D01*
X184793333Y-95075238D01*
X184698095Y-95170476D01*
X184602857Y-95218095D01*
X185602857Y-95837143D02*
X185650476Y-95884762D01*
X185602857Y-95932381D01*
X185555238Y-95884762D01*
X185602857Y-95837143D01*
X185602857Y-95932381D01*
X186221904Y-95360952D02*
X186126666Y-95313333D01*
X186079047Y-95265714D01*
X186031428Y-95170476D01*
X186031428Y-95122857D01*
X186079047Y-95027619D01*
X186126666Y-94980000D01*
X186221904Y-94932381D01*
X186412381Y-94932381D01*
X186507619Y-94980000D01*
X186555238Y-95027619D01*
X186602857Y-95122857D01*
X186602857Y-95170476D01*
X186555238Y-95265714D01*
X186507619Y-95313333D01*
X186412381Y-95360952D01*
X186221904Y-95360952D01*
X186126666Y-95408571D01*
X186079047Y-95456190D01*
X186031428Y-95551429D01*
X186031428Y-95741905D01*
X186079047Y-95837143D01*
X186126666Y-95884762D01*
X186221904Y-95932381D01*
X186412381Y-95932381D01*
X186507619Y-95884762D01*
X186555238Y-95837143D01*
X186602857Y-95741905D01*
X186602857Y-95551429D01*
X186555238Y-95456190D01*
X186507619Y-95408571D01*
X186412381Y-95360952D01*
X187031428Y-95932381D02*
X187031428Y-94932381D01*
X187126666Y-95551429D02*
X187412381Y-95932381D01*
X187412381Y-95265714D02*
X187031428Y-95646667D01*
X188745714Y-95932381D02*
X188650476Y-95884762D01*
X188602857Y-95837143D01*
X188555238Y-95741905D01*
X188555238Y-95456190D01*
X188602857Y-95360952D01*
X188650476Y-95313333D01*
X188745714Y-95265714D01*
X188888572Y-95265714D01*
X188983810Y-95313333D01*
X189031429Y-95360952D01*
X189079048Y-95456190D01*
X189079048Y-95741905D01*
X189031429Y-95837143D01*
X188983810Y-95884762D01*
X188888572Y-95932381D01*
X188745714Y-95932381D01*
X189507619Y-95932381D02*
X189507619Y-94932381D01*
X189936191Y-95932381D02*
X189936191Y-95408571D01*
X189888572Y-95313333D01*
X189793334Y-95265714D01*
X189650476Y-95265714D01*
X189555238Y-95313333D01*
X189507619Y-95360952D01*
X190412381Y-95932381D02*
X190412381Y-95265714D01*
X190412381Y-95360952D02*
X190460000Y-95313333D01*
X190555238Y-95265714D01*
X190698096Y-95265714D01*
X190793334Y-95313333D01*
X190840953Y-95408571D01*
X190840953Y-95932381D01*
X190840953Y-95408571D02*
X190888572Y-95313333D01*
X190983810Y-95265714D01*
X191126667Y-95265714D01*
X191221905Y-95313333D01*
X191269524Y-95408571D01*
X191269524Y-95932381D01*
X163802381Y-106568571D02*
X162802381Y-106568571D01*
X163802381Y-106092381D02*
X162802381Y-106092381D01*
X163802381Y-105520952D01*
X162802381Y-105520952D01*
X163135714Y-104616190D02*
X163802381Y-104616190D01*
X162754762Y-104854286D02*
X163469048Y-105092381D01*
X163469048Y-104473333D01*
X163802381Y-103568571D02*
X163802381Y-104140000D01*
X163802381Y-103854286D02*
X162802381Y-103854286D01*
X162945238Y-103949524D01*
X163040476Y-104044762D01*
X163088095Y-104140000D01*
X163135714Y-102711428D02*
X163802381Y-102711428D01*
X162754762Y-102949524D02*
X163469048Y-103187619D01*
X163469048Y-102568571D01*
X163230952Y-102044762D02*
X163183333Y-102140000D01*
X163135714Y-102187619D01*
X163040476Y-102235238D01*
X162992857Y-102235238D01*
X162897619Y-102187619D01*
X162850000Y-102140000D01*
X162802381Y-102044762D01*
X162802381Y-101854285D01*
X162850000Y-101759047D01*
X162897619Y-101711428D01*
X162992857Y-101663809D01*
X163040476Y-101663809D01*
X163135714Y-101711428D01*
X163183333Y-101759047D01*
X163230952Y-101854285D01*
X163230952Y-102044762D01*
X163278571Y-102140000D01*
X163326190Y-102187619D01*
X163421429Y-102235238D01*
X163611905Y-102235238D01*
X163707143Y-102187619D01*
X163754762Y-102140000D01*
X163802381Y-102044762D01*
X163802381Y-101854285D01*
X163754762Y-101759047D01*
X163707143Y-101711428D01*
X163611905Y-101663809D01*
X163421429Y-101663809D01*
X163326190Y-101711428D01*
X163278571Y-101759047D01*
X163230952Y-101854285D01*
X160742381Y-105449524D02*
X161742381Y-105116191D01*
X160742381Y-104782857D01*
X161742381Y-104449524D02*
X160742381Y-104449524D01*
X160742381Y-104211429D01*
X160790000Y-104068571D01*
X160885238Y-103973333D01*
X160980476Y-103925714D01*
X161170952Y-103878095D01*
X161313810Y-103878095D01*
X161504286Y-103925714D01*
X161599524Y-103973333D01*
X161694762Y-104068571D01*
X161742381Y-104211429D01*
X161742381Y-104449524D01*
X161742381Y-102925714D02*
X161742381Y-103497143D01*
X161742381Y-103211429D02*
X160742381Y-103211429D01*
X160885238Y-103306667D01*
X160980476Y-103401905D01*
X161028095Y-103497143D01*
X153995714Y-66294762D02*
X154138571Y-66342381D01*
X154376667Y-66342381D01*
X154471905Y-66294762D01*
X154519524Y-66247143D01*
X154567143Y-66151905D01*
X154567143Y-66056667D01*
X154519524Y-65961429D01*
X154471905Y-65913810D01*
X154376667Y-65866190D01*
X154186190Y-65818571D01*
X154090952Y-65770952D01*
X154043333Y-65723333D01*
X153995714Y-65628095D01*
X153995714Y-65532857D01*
X154043333Y-65437619D01*
X154090952Y-65390000D01*
X154186190Y-65342381D01*
X154424286Y-65342381D01*
X154567143Y-65390000D01*
X155329048Y-65818571D02*
X155471905Y-65866190D01*
X155519524Y-65913810D01*
X155567143Y-66009048D01*
X155567143Y-66151905D01*
X155519524Y-66247143D01*
X155471905Y-66294762D01*
X155376667Y-66342381D01*
X154995714Y-66342381D01*
X154995714Y-65342381D01*
X155329048Y-65342381D01*
X155424286Y-65390000D01*
X155471905Y-65437619D01*
X155519524Y-65532857D01*
X155519524Y-65628095D01*
X155471905Y-65723333D01*
X155424286Y-65770952D01*
X155329048Y-65818571D01*
X154995714Y-65818571D01*
X156471905Y-65342381D02*
X155995714Y-65342381D01*
X155948095Y-65818571D01*
X155995714Y-65770952D01*
X156090952Y-65723333D01*
X156329048Y-65723333D01*
X156424286Y-65770952D01*
X156471905Y-65818571D01*
X156519524Y-65913810D01*
X156519524Y-66151905D01*
X156471905Y-66247143D01*
X156424286Y-66294762D01*
X156329048Y-66342381D01*
X156090952Y-66342381D01*
X155995714Y-66294762D01*
X155948095Y-66247143D01*
X157090952Y-65770952D02*
X156995714Y-65723333D01*
X156948095Y-65675714D01*
X156900476Y-65580476D01*
X156900476Y-65532857D01*
X156948095Y-65437619D01*
X156995714Y-65390000D01*
X157090952Y-65342381D01*
X157281429Y-65342381D01*
X157376667Y-65390000D01*
X157424286Y-65437619D01*
X157471905Y-65532857D01*
X157471905Y-65580476D01*
X157424286Y-65675714D01*
X157376667Y-65723333D01*
X157281429Y-65770952D01*
X157090952Y-65770952D01*
X156995714Y-65818571D01*
X156948095Y-65866190D01*
X156900476Y-65961429D01*
X156900476Y-66151905D01*
X156948095Y-66247143D01*
X156995714Y-66294762D01*
X157090952Y-66342381D01*
X157281429Y-66342381D01*
X157376667Y-66294762D01*
X157424286Y-66247143D01*
X157471905Y-66151905D01*
X157471905Y-65961429D01*
X157424286Y-65866190D01*
X157376667Y-65818571D01*
X157281429Y-65770952D01*
X158090952Y-65342381D02*
X158186191Y-65342381D01*
X158281429Y-65390000D01*
X158329048Y-65437619D01*
X158376667Y-65532857D01*
X158424286Y-65723333D01*
X158424286Y-65961429D01*
X158376667Y-66151905D01*
X158329048Y-66247143D01*
X158281429Y-66294762D01*
X158186191Y-66342381D01*
X158090952Y-66342381D01*
X157995714Y-66294762D01*
X157948095Y-66247143D01*
X157900476Y-66151905D01*
X157852857Y-65961429D01*
X157852857Y-65723333D01*
X157900476Y-65532857D01*
X157948095Y-65437619D01*
X157995714Y-65390000D01*
X158090952Y-65342381D01*
X154900476Y-61682381D02*
X155233809Y-62682381D01*
X155567143Y-61682381D01*
X155900476Y-62682381D02*
X155900476Y-61682381D01*
X156138571Y-61682381D01*
X156281429Y-61730000D01*
X156376667Y-61825238D01*
X156424286Y-61920476D01*
X156471905Y-62110952D01*
X156471905Y-62253810D01*
X156424286Y-62444286D01*
X156376667Y-62539524D01*
X156281429Y-62634762D01*
X156138571Y-62682381D01*
X155900476Y-62682381D01*
X156852857Y-61777619D02*
X156900476Y-61730000D01*
X156995714Y-61682381D01*
X157233810Y-61682381D01*
X157329048Y-61730000D01*
X157376667Y-61777619D01*
X157424286Y-61872857D01*
X157424286Y-61968095D01*
X157376667Y-62110952D01*
X156805238Y-62682381D01*
X157424286Y-62682381D01*
X173402858Y-64948571D02*
X173545715Y-64996190D01*
X173593334Y-65043810D01*
X173640953Y-65139048D01*
X173640953Y-65281905D01*
X173593334Y-65377143D01*
X173545715Y-65424762D01*
X173450477Y-65472381D01*
X173069524Y-65472381D01*
X173069524Y-64472381D01*
X173402858Y-64472381D01*
X173498096Y-64520000D01*
X173545715Y-64567619D01*
X173593334Y-64662857D01*
X173593334Y-64758095D01*
X173545715Y-64853333D01*
X173498096Y-64900952D01*
X173402858Y-64948571D01*
X173069524Y-64948571D01*
X174640953Y-65377143D02*
X174593334Y-65424762D01*
X174450477Y-65472381D01*
X174355239Y-65472381D01*
X174212381Y-65424762D01*
X174117143Y-65329524D01*
X174069524Y-65234286D01*
X174021905Y-65043810D01*
X174021905Y-64900952D01*
X174069524Y-64710476D01*
X174117143Y-64615238D01*
X174212381Y-64520000D01*
X174355239Y-64472381D01*
X174450477Y-64472381D01*
X174593334Y-64520000D01*
X174640953Y-64567619D01*
X175545715Y-64472381D02*
X175069524Y-64472381D01*
X175021905Y-64948571D01*
X175069524Y-64900952D01*
X175164762Y-64853333D01*
X175402858Y-64853333D01*
X175498096Y-64900952D01*
X175545715Y-64948571D01*
X175593334Y-65043810D01*
X175593334Y-65281905D01*
X175545715Y-65377143D01*
X175498096Y-65424762D01*
X175402858Y-65472381D01*
X175164762Y-65472381D01*
X175069524Y-65424762D01*
X175021905Y-65377143D01*
X176450477Y-64805714D02*
X176450477Y-65472381D01*
X176212381Y-64424762D02*
X175974286Y-65139048D01*
X176593334Y-65139048D01*
X177117143Y-64900952D02*
X177021905Y-64853333D01*
X176974286Y-64805714D01*
X176926667Y-64710476D01*
X176926667Y-64662857D01*
X176974286Y-64567619D01*
X177021905Y-64520000D01*
X177117143Y-64472381D01*
X177307620Y-64472381D01*
X177402858Y-64520000D01*
X177450477Y-64567619D01*
X177498096Y-64662857D01*
X177498096Y-64710476D01*
X177450477Y-64805714D01*
X177402858Y-64853333D01*
X177307620Y-64900952D01*
X177117143Y-64900952D01*
X177021905Y-64948571D01*
X176974286Y-64996190D01*
X176926667Y-65091429D01*
X176926667Y-65281905D01*
X176974286Y-65377143D01*
X177021905Y-65424762D01*
X177117143Y-65472381D01*
X177307620Y-65472381D01*
X177402858Y-65424762D01*
X177450477Y-65377143D01*
X177498096Y-65281905D01*
X177498096Y-65091429D01*
X177450477Y-64996190D01*
X177402858Y-64948571D01*
X177307620Y-64900952D01*
X174069524Y-58122381D02*
X174402857Y-59122381D01*
X174736191Y-58122381D01*
X174926667Y-58122381D02*
X175498096Y-58122381D01*
X175212381Y-59122381D02*
X175212381Y-58122381D01*
X176355239Y-59122381D02*
X175783810Y-59122381D01*
X176069524Y-59122381D02*
X176069524Y-58122381D01*
X175974286Y-58265238D01*
X175879048Y-58360476D01*
X175783810Y-58408095D01*
X169569048Y-80048571D02*
X169711905Y-80096190D01*
X169759524Y-80143810D01*
X169807143Y-80239048D01*
X169807143Y-80381905D01*
X169759524Y-80477143D01*
X169711905Y-80524762D01*
X169616667Y-80572381D01*
X169235714Y-80572381D01*
X169235714Y-79572381D01*
X169569048Y-79572381D01*
X169664286Y-79620000D01*
X169711905Y-79667619D01*
X169759524Y-79762857D01*
X169759524Y-79858095D01*
X169711905Y-79953333D01*
X169664286Y-80000952D01*
X169569048Y-80048571D01*
X169235714Y-80048571D01*
X170235714Y-79572381D02*
X170235714Y-80381905D01*
X170283333Y-80477143D01*
X170330952Y-80524762D01*
X170426190Y-80572381D01*
X170616667Y-80572381D01*
X170711905Y-80524762D01*
X170759524Y-80477143D01*
X170807143Y-80381905D01*
X170807143Y-79572381D01*
X171188095Y-79572381D02*
X171854762Y-79572381D01*
X171188095Y-80572381D01*
X171854762Y-80572381D01*
X172140476Y-79572381D02*
X172807143Y-79572381D01*
X172378571Y-80572381D01*
X173330952Y-80000952D02*
X173235714Y-79953333D01*
X173188095Y-79905714D01*
X173140476Y-79810476D01*
X173140476Y-79762857D01*
X173188095Y-79667619D01*
X173235714Y-79620000D01*
X173330952Y-79572381D01*
X173521429Y-79572381D01*
X173616667Y-79620000D01*
X173664286Y-79667619D01*
X173711905Y-79762857D01*
X173711905Y-79810476D01*
X173664286Y-79905714D01*
X173616667Y-79953333D01*
X173521429Y-80000952D01*
X173330952Y-80000952D01*
X173235714Y-80048571D01*
X173188095Y-80096190D01*
X173140476Y-80191429D01*
X173140476Y-80381905D01*
X173188095Y-80477143D01*
X173235714Y-80524762D01*
X173330952Y-80572381D01*
X173521429Y-80572381D01*
X173616667Y-80524762D01*
X173664286Y-80477143D01*
X173711905Y-80381905D01*
X173711905Y-80191429D01*
X173664286Y-80096190D01*
X173616667Y-80048571D01*
X173521429Y-80000952D01*
X170259524Y-72032381D02*
X170592857Y-73032381D01*
X170926191Y-72032381D01*
X171116667Y-72032381D02*
X171688096Y-72032381D01*
X171402381Y-73032381D02*
X171402381Y-72032381D01*
X171973810Y-72127619D02*
X172021429Y-72080000D01*
X172116667Y-72032381D01*
X172354763Y-72032381D01*
X172450001Y-72080000D01*
X172497620Y-72127619D01*
X172545239Y-72222857D01*
X172545239Y-72318095D01*
X172497620Y-72460952D01*
X171926191Y-73032381D01*
X172545239Y-73032381D01*
X60333809Y-47632381D02*
X60333809Y-46632381D01*
X60667143Y-47346667D01*
X61000476Y-46632381D01*
X61000476Y-47632381D01*
X61619523Y-47632381D02*
X61524285Y-47584762D01*
X61476666Y-47537143D01*
X61429047Y-47441905D01*
X61429047Y-47156190D01*
X61476666Y-47060952D01*
X61524285Y-47013333D01*
X61619523Y-46965714D01*
X61762381Y-46965714D01*
X61857619Y-47013333D01*
X61905238Y-47060952D01*
X61952857Y-47156190D01*
X61952857Y-47441905D01*
X61905238Y-47537143D01*
X61857619Y-47584762D01*
X61762381Y-47632381D01*
X61619523Y-47632381D01*
X62810000Y-46965714D02*
X62810000Y-47632381D01*
X62381428Y-46965714D02*
X62381428Y-47489524D01*
X62429047Y-47584762D01*
X62524285Y-47632381D01*
X62667143Y-47632381D01*
X62762381Y-47584762D01*
X62810000Y-47537143D01*
X63286190Y-46965714D02*
X63286190Y-47632381D01*
X63286190Y-47060952D02*
X63333809Y-47013333D01*
X63429047Y-46965714D01*
X63571905Y-46965714D01*
X63667143Y-47013333D01*
X63714762Y-47108571D01*
X63714762Y-47632381D01*
X64048095Y-46965714D02*
X64429047Y-46965714D01*
X64190952Y-46632381D02*
X64190952Y-47489524D01*
X64238571Y-47584762D01*
X64333809Y-47632381D01*
X64429047Y-47632381D01*
X64762381Y-47632381D02*
X64762381Y-46965714D01*
X64762381Y-46632381D02*
X64714762Y-46680000D01*
X64762381Y-46727619D01*
X64810000Y-46680000D01*
X64762381Y-46632381D01*
X64762381Y-46727619D01*
X65238571Y-46965714D02*
X65238571Y-47632381D01*
X65238571Y-47060952D02*
X65286190Y-47013333D01*
X65381428Y-46965714D01*
X65524286Y-46965714D01*
X65619524Y-47013333D01*
X65667143Y-47108571D01*
X65667143Y-47632381D01*
X66571905Y-46965714D02*
X66571905Y-47775238D01*
X66524286Y-47870476D01*
X66476667Y-47918095D01*
X66381428Y-47965714D01*
X66238571Y-47965714D01*
X66143333Y-47918095D01*
X66571905Y-47584762D02*
X66476667Y-47632381D01*
X66286190Y-47632381D01*
X66190952Y-47584762D01*
X66143333Y-47537143D01*
X66095714Y-47441905D01*
X66095714Y-47156190D01*
X66143333Y-47060952D01*
X66190952Y-47013333D01*
X66286190Y-46965714D01*
X66476667Y-46965714D01*
X66571905Y-47013333D01*
X67048095Y-47632381D02*
X67048095Y-46632381D01*
X67048095Y-47108571D02*
X67619524Y-47108571D01*
X67619524Y-47632381D02*
X67619524Y-46632381D01*
X68238571Y-47632381D02*
X68143333Y-47584762D01*
X68095714Y-47537143D01*
X68048095Y-47441905D01*
X68048095Y-47156190D01*
X68095714Y-47060952D01*
X68143333Y-47013333D01*
X68238571Y-46965714D01*
X68381429Y-46965714D01*
X68476667Y-47013333D01*
X68524286Y-47060952D01*
X68571905Y-47156190D01*
X68571905Y-47441905D01*
X68524286Y-47537143D01*
X68476667Y-47584762D01*
X68381429Y-47632381D01*
X68238571Y-47632381D01*
X69143333Y-47632381D02*
X69048095Y-47584762D01*
X69000476Y-47489524D01*
X69000476Y-46632381D01*
X69905239Y-47584762D02*
X69810001Y-47632381D01*
X69619524Y-47632381D01*
X69524286Y-47584762D01*
X69476667Y-47489524D01*
X69476667Y-47108571D01*
X69524286Y-47013333D01*
X69619524Y-46965714D01*
X69810001Y-46965714D01*
X69905239Y-47013333D01*
X69952858Y-47108571D01*
X69952858Y-47203810D01*
X69476667Y-47299048D01*
X70143334Y-47727619D02*
X70905239Y-47727619D01*
X71048096Y-46632381D02*
X71667144Y-46632381D01*
X71333810Y-47013333D01*
X71476668Y-47013333D01*
X71571906Y-47060952D01*
X71619525Y-47108571D01*
X71667144Y-47203810D01*
X71667144Y-47441905D01*
X71619525Y-47537143D01*
X71571906Y-47584762D01*
X71476668Y-47632381D01*
X71190953Y-47632381D01*
X71095715Y-47584762D01*
X71048096Y-47537143D01*
X72095715Y-47632381D02*
X72095715Y-46965714D01*
X72095715Y-47060952D02*
X72143334Y-47013333D01*
X72238572Y-46965714D01*
X72381430Y-46965714D01*
X72476668Y-47013333D01*
X72524287Y-47108571D01*
X72524287Y-47632381D01*
X72524287Y-47108571D02*
X72571906Y-47013333D01*
X72667144Y-46965714D01*
X72810001Y-46965714D01*
X72905239Y-47013333D01*
X72952858Y-47108571D01*
X72952858Y-47632381D01*
X73429048Y-47632381D02*
X73429048Y-46965714D01*
X73429048Y-47060952D02*
X73476667Y-47013333D01*
X73571905Y-46965714D01*
X73714763Y-46965714D01*
X73810001Y-47013333D01*
X73857620Y-47108571D01*
X73857620Y-47632381D01*
X73857620Y-47108571D02*
X73905239Y-47013333D01*
X74000477Y-46965714D01*
X74143334Y-46965714D01*
X74238572Y-47013333D01*
X74286191Y-47108571D01*
X74286191Y-47632381D01*
X66276667Y-43632381D02*
X65943333Y-43156190D01*
X65705238Y-43632381D02*
X65705238Y-42632381D01*
X66086191Y-42632381D01*
X66181429Y-42680000D01*
X66229048Y-42727619D01*
X66276667Y-42822857D01*
X66276667Y-42965714D01*
X66229048Y-43060952D01*
X66181429Y-43108571D01*
X66086191Y-43156190D01*
X65705238Y-43156190D01*
X66705238Y-43108571D02*
X67038572Y-43108571D01*
X67181429Y-43632381D02*
X66705238Y-43632381D01*
X66705238Y-42632381D01*
X67181429Y-42632381D01*
X67943334Y-43108571D02*
X67610000Y-43108571D01*
X67610000Y-43632381D02*
X67610000Y-42632381D01*
X68086191Y-42632381D01*
X68610000Y-42632381D02*
X68610000Y-42870476D01*
X68371905Y-42775238D02*
X68610000Y-42870476D01*
X68848096Y-42775238D01*
X68467143Y-43060952D02*
X68610000Y-42870476D01*
X68752858Y-43060952D01*
X69371905Y-42632381D02*
X69371905Y-42870476D01*
X69133810Y-42775238D02*
X69371905Y-42870476D01*
X69610001Y-42775238D01*
X69229048Y-43060952D02*
X69371905Y-42870476D01*
X69514763Y-43060952D01*
X60333809Y-131452381D02*
X60333809Y-130452381D01*
X60667143Y-131166667D01*
X61000476Y-130452381D01*
X61000476Y-131452381D01*
X61619523Y-131452381D02*
X61524285Y-131404762D01*
X61476666Y-131357143D01*
X61429047Y-131261905D01*
X61429047Y-130976190D01*
X61476666Y-130880952D01*
X61524285Y-130833333D01*
X61619523Y-130785714D01*
X61762381Y-130785714D01*
X61857619Y-130833333D01*
X61905238Y-130880952D01*
X61952857Y-130976190D01*
X61952857Y-131261905D01*
X61905238Y-131357143D01*
X61857619Y-131404762D01*
X61762381Y-131452381D01*
X61619523Y-131452381D01*
X62810000Y-130785714D02*
X62810000Y-131452381D01*
X62381428Y-130785714D02*
X62381428Y-131309524D01*
X62429047Y-131404762D01*
X62524285Y-131452381D01*
X62667143Y-131452381D01*
X62762381Y-131404762D01*
X62810000Y-131357143D01*
X63286190Y-130785714D02*
X63286190Y-131452381D01*
X63286190Y-130880952D02*
X63333809Y-130833333D01*
X63429047Y-130785714D01*
X63571905Y-130785714D01*
X63667143Y-130833333D01*
X63714762Y-130928571D01*
X63714762Y-131452381D01*
X64048095Y-130785714D02*
X64429047Y-130785714D01*
X64190952Y-130452381D02*
X64190952Y-131309524D01*
X64238571Y-131404762D01*
X64333809Y-131452381D01*
X64429047Y-131452381D01*
X64762381Y-131452381D02*
X64762381Y-130785714D01*
X64762381Y-130452381D02*
X64714762Y-130500000D01*
X64762381Y-130547619D01*
X64810000Y-130500000D01*
X64762381Y-130452381D01*
X64762381Y-130547619D01*
X65238571Y-130785714D02*
X65238571Y-131452381D01*
X65238571Y-130880952D02*
X65286190Y-130833333D01*
X65381428Y-130785714D01*
X65524286Y-130785714D01*
X65619524Y-130833333D01*
X65667143Y-130928571D01*
X65667143Y-131452381D01*
X66571905Y-130785714D02*
X66571905Y-131595238D01*
X66524286Y-131690476D01*
X66476667Y-131738095D01*
X66381428Y-131785714D01*
X66238571Y-131785714D01*
X66143333Y-131738095D01*
X66571905Y-131404762D02*
X66476667Y-131452381D01*
X66286190Y-131452381D01*
X66190952Y-131404762D01*
X66143333Y-131357143D01*
X66095714Y-131261905D01*
X66095714Y-130976190D01*
X66143333Y-130880952D01*
X66190952Y-130833333D01*
X66286190Y-130785714D01*
X66476667Y-130785714D01*
X66571905Y-130833333D01*
X67048095Y-131452381D02*
X67048095Y-130452381D01*
X67048095Y-130928571D02*
X67619524Y-130928571D01*
X67619524Y-131452381D02*
X67619524Y-130452381D01*
X68238571Y-131452381D02*
X68143333Y-131404762D01*
X68095714Y-131357143D01*
X68048095Y-131261905D01*
X68048095Y-130976190D01*
X68095714Y-130880952D01*
X68143333Y-130833333D01*
X68238571Y-130785714D01*
X68381429Y-130785714D01*
X68476667Y-130833333D01*
X68524286Y-130880952D01*
X68571905Y-130976190D01*
X68571905Y-131261905D01*
X68524286Y-131357143D01*
X68476667Y-131404762D01*
X68381429Y-131452381D01*
X68238571Y-131452381D01*
X69143333Y-131452381D02*
X69048095Y-131404762D01*
X69000476Y-131309524D01*
X69000476Y-130452381D01*
X69905239Y-131404762D02*
X69810001Y-131452381D01*
X69619524Y-131452381D01*
X69524286Y-131404762D01*
X69476667Y-131309524D01*
X69476667Y-130928571D01*
X69524286Y-130833333D01*
X69619524Y-130785714D01*
X69810001Y-130785714D01*
X69905239Y-130833333D01*
X69952858Y-130928571D01*
X69952858Y-131023810D01*
X69476667Y-131119048D01*
X70143334Y-131547619D02*
X70905239Y-131547619D01*
X71048096Y-130452381D02*
X71667144Y-130452381D01*
X71333810Y-130833333D01*
X71476668Y-130833333D01*
X71571906Y-130880952D01*
X71619525Y-130928571D01*
X71667144Y-131023810D01*
X71667144Y-131261905D01*
X71619525Y-131357143D01*
X71571906Y-131404762D01*
X71476668Y-131452381D01*
X71190953Y-131452381D01*
X71095715Y-131404762D01*
X71048096Y-131357143D01*
X72095715Y-131452381D02*
X72095715Y-130785714D01*
X72095715Y-130880952D02*
X72143334Y-130833333D01*
X72238572Y-130785714D01*
X72381430Y-130785714D01*
X72476668Y-130833333D01*
X72524287Y-130928571D01*
X72524287Y-131452381D01*
X72524287Y-130928571D02*
X72571906Y-130833333D01*
X72667144Y-130785714D01*
X72810001Y-130785714D01*
X72905239Y-130833333D01*
X72952858Y-130928571D01*
X72952858Y-131452381D01*
X73429048Y-131452381D02*
X73429048Y-130785714D01*
X73429048Y-130880952D02*
X73476667Y-130833333D01*
X73571905Y-130785714D01*
X73714763Y-130785714D01*
X73810001Y-130833333D01*
X73857620Y-130928571D01*
X73857620Y-131452381D01*
X73857620Y-130928571D02*
X73905239Y-130833333D01*
X74000477Y-130785714D01*
X74143334Y-130785714D01*
X74238572Y-130833333D01*
X74286191Y-130928571D01*
X74286191Y-131452381D01*
X66276667Y-127452381D02*
X65943333Y-126976190D01*
X65705238Y-127452381D02*
X65705238Y-126452381D01*
X66086191Y-126452381D01*
X66181429Y-126500000D01*
X66229048Y-126547619D01*
X66276667Y-126642857D01*
X66276667Y-126785714D01*
X66229048Y-126880952D01*
X66181429Y-126928571D01*
X66086191Y-126976190D01*
X65705238Y-126976190D01*
X66705238Y-126928571D02*
X67038572Y-126928571D01*
X67181429Y-127452381D02*
X66705238Y-127452381D01*
X66705238Y-126452381D01*
X67181429Y-126452381D01*
X67943334Y-126928571D02*
X67610000Y-126928571D01*
X67610000Y-127452381D02*
X67610000Y-126452381D01*
X68086191Y-126452381D01*
X68610000Y-126452381D02*
X68610000Y-126690476D01*
X68371905Y-126595238D02*
X68610000Y-126690476D01*
X68848096Y-126595238D01*
X68467143Y-126880952D02*
X68610000Y-126690476D01*
X68752858Y-126880952D01*
X69371905Y-126452381D02*
X69371905Y-126690476D01*
X69133810Y-126595238D02*
X69371905Y-126690476D01*
X69610001Y-126595238D01*
X69229048Y-126880952D02*
X69371905Y-126690476D01*
X69514763Y-126880952D01*
X200033809Y-131452381D02*
X200033809Y-130452381D01*
X200367143Y-131166667D01*
X200700476Y-130452381D01*
X200700476Y-131452381D01*
X201319523Y-131452381D02*
X201224285Y-131404762D01*
X201176666Y-131357143D01*
X201129047Y-131261905D01*
X201129047Y-130976190D01*
X201176666Y-130880952D01*
X201224285Y-130833333D01*
X201319523Y-130785714D01*
X201462381Y-130785714D01*
X201557619Y-130833333D01*
X201605238Y-130880952D01*
X201652857Y-130976190D01*
X201652857Y-131261905D01*
X201605238Y-131357143D01*
X201557619Y-131404762D01*
X201462381Y-131452381D01*
X201319523Y-131452381D01*
X202510000Y-130785714D02*
X202510000Y-131452381D01*
X202081428Y-130785714D02*
X202081428Y-131309524D01*
X202129047Y-131404762D01*
X202224285Y-131452381D01*
X202367143Y-131452381D01*
X202462381Y-131404762D01*
X202510000Y-131357143D01*
X202986190Y-130785714D02*
X202986190Y-131452381D01*
X202986190Y-130880952D02*
X203033809Y-130833333D01*
X203129047Y-130785714D01*
X203271905Y-130785714D01*
X203367143Y-130833333D01*
X203414762Y-130928571D01*
X203414762Y-131452381D01*
X203748095Y-130785714D02*
X204129047Y-130785714D01*
X203890952Y-130452381D02*
X203890952Y-131309524D01*
X203938571Y-131404762D01*
X204033809Y-131452381D01*
X204129047Y-131452381D01*
X204462381Y-131452381D02*
X204462381Y-130785714D01*
X204462381Y-130452381D02*
X204414762Y-130500000D01*
X204462381Y-130547619D01*
X204510000Y-130500000D01*
X204462381Y-130452381D01*
X204462381Y-130547619D01*
X204938571Y-130785714D02*
X204938571Y-131452381D01*
X204938571Y-130880952D02*
X204986190Y-130833333D01*
X205081428Y-130785714D01*
X205224286Y-130785714D01*
X205319524Y-130833333D01*
X205367143Y-130928571D01*
X205367143Y-131452381D01*
X206271905Y-130785714D02*
X206271905Y-131595238D01*
X206224286Y-131690476D01*
X206176667Y-131738095D01*
X206081428Y-131785714D01*
X205938571Y-131785714D01*
X205843333Y-131738095D01*
X206271905Y-131404762D02*
X206176667Y-131452381D01*
X205986190Y-131452381D01*
X205890952Y-131404762D01*
X205843333Y-131357143D01*
X205795714Y-131261905D01*
X205795714Y-130976190D01*
X205843333Y-130880952D01*
X205890952Y-130833333D01*
X205986190Y-130785714D01*
X206176667Y-130785714D01*
X206271905Y-130833333D01*
X206748095Y-131452381D02*
X206748095Y-130452381D01*
X206748095Y-130928571D02*
X207319524Y-130928571D01*
X207319524Y-131452381D02*
X207319524Y-130452381D01*
X207938571Y-131452381D02*
X207843333Y-131404762D01*
X207795714Y-131357143D01*
X207748095Y-131261905D01*
X207748095Y-130976190D01*
X207795714Y-130880952D01*
X207843333Y-130833333D01*
X207938571Y-130785714D01*
X208081429Y-130785714D01*
X208176667Y-130833333D01*
X208224286Y-130880952D01*
X208271905Y-130976190D01*
X208271905Y-131261905D01*
X208224286Y-131357143D01*
X208176667Y-131404762D01*
X208081429Y-131452381D01*
X207938571Y-131452381D01*
X208843333Y-131452381D02*
X208748095Y-131404762D01*
X208700476Y-131309524D01*
X208700476Y-130452381D01*
X209605239Y-131404762D02*
X209510001Y-131452381D01*
X209319524Y-131452381D01*
X209224286Y-131404762D01*
X209176667Y-131309524D01*
X209176667Y-130928571D01*
X209224286Y-130833333D01*
X209319524Y-130785714D01*
X209510001Y-130785714D01*
X209605239Y-130833333D01*
X209652858Y-130928571D01*
X209652858Y-131023810D01*
X209176667Y-131119048D01*
X209843334Y-131547619D02*
X210605239Y-131547619D01*
X210748096Y-130452381D02*
X211367144Y-130452381D01*
X211033810Y-130833333D01*
X211176668Y-130833333D01*
X211271906Y-130880952D01*
X211319525Y-130928571D01*
X211367144Y-131023810D01*
X211367144Y-131261905D01*
X211319525Y-131357143D01*
X211271906Y-131404762D01*
X211176668Y-131452381D01*
X210890953Y-131452381D01*
X210795715Y-131404762D01*
X210748096Y-131357143D01*
X211795715Y-131452381D02*
X211795715Y-130785714D01*
X211795715Y-130880952D02*
X211843334Y-130833333D01*
X211938572Y-130785714D01*
X212081430Y-130785714D01*
X212176668Y-130833333D01*
X212224287Y-130928571D01*
X212224287Y-131452381D01*
X212224287Y-130928571D02*
X212271906Y-130833333D01*
X212367144Y-130785714D01*
X212510001Y-130785714D01*
X212605239Y-130833333D01*
X212652858Y-130928571D01*
X212652858Y-131452381D01*
X213129048Y-131452381D02*
X213129048Y-130785714D01*
X213129048Y-130880952D02*
X213176667Y-130833333D01*
X213271905Y-130785714D01*
X213414763Y-130785714D01*
X213510001Y-130833333D01*
X213557620Y-130928571D01*
X213557620Y-131452381D01*
X213557620Y-130928571D02*
X213605239Y-130833333D01*
X213700477Y-130785714D01*
X213843334Y-130785714D01*
X213938572Y-130833333D01*
X213986191Y-130928571D01*
X213986191Y-131452381D01*
X205976667Y-127452381D02*
X205643333Y-126976190D01*
X205405238Y-127452381D02*
X205405238Y-126452381D01*
X205786191Y-126452381D01*
X205881429Y-126500000D01*
X205929048Y-126547619D01*
X205976667Y-126642857D01*
X205976667Y-126785714D01*
X205929048Y-126880952D01*
X205881429Y-126928571D01*
X205786191Y-126976190D01*
X205405238Y-126976190D01*
X206405238Y-126928571D02*
X206738572Y-126928571D01*
X206881429Y-127452381D02*
X206405238Y-127452381D01*
X206405238Y-126452381D01*
X206881429Y-126452381D01*
X207643334Y-126928571D02*
X207310000Y-126928571D01*
X207310000Y-127452381D02*
X207310000Y-126452381D01*
X207786191Y-126452381D01*
X208310000Y-126452381D02*
X208310000Y-126690476D01*
X208071905Y-126595238D02*
X208310000Y-126690476D01*
X208548096Y-126595238D01*
X208167143Y-126880952D02*
X208310000Y-126690476D01*
X208452858Y-126880952D01*
X209071905Y-126452381D02*
X209071905Y-126690476D01*
X208833810Y-126595238D02*
X209071905Y-126690476D01*
X209310001Y-126595238D01*
X208929048Y-126880952D02*
X209071905Y-126690476D01*
X209214763Y-126880952D01*
X200033809Y-47632381D02*
X200033809Y-46632381D01*
X200367143Y-47346667D01*
X200700476Y-46632381D01*
X200700476Y-47632381D01*
X201319523Y-47632381D02*
X201224285Y-47584762D01*
X201176666Y-47537143D01*
X201129047Y-47441905D01*
X201129047Y-47156190D01*
X201176666Y-47060952D01*
X201224285Y-47013333D01*
X201319523Y-46965714D01*
X201462381Y-46965714D01*
X201557619Y-47013333D01*
X201605238Y-47060952D01*
X201652857Y-47156190D01*
X201652857Y-47441905D01*
X201605238Y-47537143D01*
X201557619Y-47584762D01*
X201462381Y-47632381D01*
X201319523Y-47632381D01*
X202510000Y-46965714D02*
X202510000Y-47632381D01*
X202081428Y-46965714D02*
X202081428Y-47489524D01*
X202129047Y-47584762D01*
X202224285Y-47632381D01*
X202367143Y-47632381D01*
X202462381Y-47584762D01*
X202510000Y-47537143D01*
X202986190Y-46965714D02*
X202986190Y-47632381D01*
X202986190Y-47060952D02*
X203033809Y-47013333D01*
X203129047Y-46965714D01*
X203271905Y-46965714D01*
X203367143Y-47013333D01*
X203414762Y-47108571D01*
X203414762Y-47632381D01*
X203748095Y-46965714D02*
X204129047Y-46965714D01*
X203890952Y-46632381D02*
X203890952Y-47489524D01*
X203938571Y-47584762D01*
X204033809Y-47632381D01*
X204129047Y-47632381D01*
X204462381Y-47632381D02*
X204462381Y-46965714D01*
X204462381Y-46632381D02*
X204414762Y-46680000D01*
X204462381Y-46727619D01*
X204510000Y-46680000D01*
X204462381Y-46632381D01*
X204462381Y-46727619D01*
X204938571Y-46965714D02*
X204938571Y-47632381D01*
X204938571Y-47060952D02*
X204986190Y-47013333D01*
X205081428Y-46965714D01*
X205224286Y-46965714D01*
X205319524Y-47013333D01*
X205367143Y-47108571D01*
X205367143Y-47632381D01*
X206271905Y-46965714D02*
X206271905Y-47775238D01*
X206224286Y-47870476D01*
X206176667Y-47918095D01*
X206081428Y-47965714D01*
X205938571Y-47965714D01*
X205843333Y-47918095D01*
X206271905Y-47584762D02*
X206176667Y-47632381D01*
X205986190Y-47632381D01*
X205890952Y-47584762D01*
X205843333Y-47537143D01*
X205795714Y-47441905D01*
X205795714Y-47156190D01*
X205843333Y-47060952D01*
X205890952Y-47013333D01*
X205986190Y-46965714D01*
X206176667Y-46965714D01*
X206271905Y-47013333D01*
X206748095Y-47632381D02*
X206748095Y-46632381D01*
X206748095Y-47108571D02*
X207319524Y-47108571D01*
X207319524Y-47632381D02*
X207319524Y-46632381D01*
X207938571Y-47632381D02*
X207843333Y-47584762D01*
X207795714Y-47537143D01*
X207748095Y-47441905D01*
X207748095Y-47156190D01*
X207795714Y-47060952D01*
X207843333Y-47013333D01*
X207938571Y-46965714D01*
X208081429Y-46965714D01*
X208176667Y-47013333D01*
X208224286Y-47060952D01*
X208271905Y-47156190D01*
X208271905Y-47441905D01*
X208224286Y-47537143D01*
X208176667Y-47584762D01*
X208081429Y-47632381D01*
X207938571Y-47632381D01*
X208843333Y-47632381D02*
X208748095Y-47584762D01*
X208700476Y-47489524D01*
X208700476Y-46632381D01*
X209605239Y-47584762D02*
X209510001Y-47632381D01*
X209319524Y-47632381D01*
X209224286Y-47584762D01*
X209176667Y-47489524D01*
X209176667Y-47108571D01*
X209224286Y-47013333D01*
X209319524Y-46965714D01*
X209510001Y-46965714D01*
X209605239Y-47013333D01*
X209652858Y-47108571D01*
X209652858Y-47203810D01*
X209176667Y-47299048D01*
X209843334Y-47727619D02*
X210605239Y-47727619D01*
X210748096Y-46632381D02*
X211367144Y-46632381D01*
X211033810Y-47013333D01*
X211176668Y-47013333D01*
X211271906Y-47060952D01*
X211319525Y-47108571D01*
X211367144Y-47203810D01*
X211367144Y-47441905D01*
X211319525Y-47537143D01*
X211271906Y-47584762D01*
X211176668Y-47632381D01*
X210890953Y-47632381D01*
X210795715Y-47584762D01*
X210748096Y-47537143D01*
X211795715Y-47632381D02*
X211795715Y-46965714D01*
X211795715Y-47060952D02*
X211843334Y-47013333D01*
X211938572Y-46965714D01*
X212081430Y-46965714D01*
X212176668Y-47013333D01*
X212224287Y-47108571D01*
X212224287Y-47632381D01*
X212224287Y-47108571D02*
X212271906Y-47013333D01*
X212367144Y-46965714D01*
X212510001Y-46965714D01*
X212605239Y-47013333D01*
X212652858Y-47108571D01*
X212652858Y-47632381D01*
X213129048Y-47632381D02*
X213129048Y-46965714D01*
X213129048Y-47060952D02*
X213176667Y-47013333D01*
X213271905Y-46965714D01*
X213414763Y-46965714D01*
X213510001Y-47013333D01*
X213557620Y-47108571D01*
X213557620Y-47632381D01*
X213557620Y-47108571D02*
X213605239Y-47013333D01*
X213700477Y-46965714D01*
X213843334Y-46965714D01*
X213938572Y-47013333D01*
X213986191Y-47108571D01*
X213986191Y-47632381D01*
X205976667Y-43632381D02*
X205643333Y-43156190D01*
X205405238Y-43632381D02*
X205405238Y-42632381D01*
X205786191Y-42632381D01*
X205881429Y-42680000D01*
X205929048Y-42727619D01*
X205976667Y-42822857D01*
X205976667Y-42965714D01*
X205929048Y-43060952D01*
X205881429Y-43108571D01*
X205786191Y-43156190D01*
X205405238Y-43156190D01*
X206405238Y-43108571D02*
X206738572Y-43108571D01*
X206881429Y-43632381D02*
X206405238Y-43632381D01*
X206405238Y-42632381D01*
X206881429Y-42632381D01*
X207643334Y-43108571D02*
X207310000Y-43108571D01*
X207310000Y-43632381D02*
X207310000Y-42632381D01*
X207786191Y-42632381D01*
X208310000Y-42632381D02*
X208310000Y-42870476D01*
X208071905Y-42775238D02*
X208310000Y-42870476D01*
X208548096Y-42775238D01*
X208167143Y-43060952D02*
X208310000Y-42870476D01*
X208452858Y-43060952D01*
X209071905Y-42632381D02*
X209071905Y-42870476D01*
X208833810Y-42775238D02*
X209071905Y-42870476D01*
X209310001Y-42775238D01*
X208929048Y-43060952D02*
X209071905Y-42870476D01*
X209214763Y-43060952D01*
M02*
